  0
SECTION
  2
HEADER
  9
$ACADVER
  1
AC1018
  9
$ACADMAINTVER
 70
     0
  9
$DWGCODEPAGE
  3
ANSI_1252
  9
$INSBASE
 10
0.0
 20
0.0
 30
0.0
  9
$EXTMIN
 10
-0.500000000000221
 20
0.0000000000000001
 30
0.0
  9
$EXTMAX
 10
480.4999999999999
 20
209.9998052437932
 30
0.0035385952114519
  9
$LIMMIN
 10
0.0
 20
0.0
  9
$LIMMAX
 10
12.0
 20
9.0
  9
$ORTHOMODE
 70
     0
  9
$REGENMODE
 70
     1
  9
$FILLMODE
 70
     1
  9
$QTEXTMODE
 70
     0
  9
$MIRRTEXT
 70
     1
  9
$LTSCALE
 40
1.0
  9
$ATTMODE
 70
     1
  9
$TEXTSIZE
 40
0.2
  9
$TRACEWID
 40
0.05
  9
$TEXTSTYLE
  7
Standard
  9
$CLAYER
  8
Engraving
  9
$CELTYPE
  6
ByLayer
  9
$CECOLOR
 62
   256
  9
$CELTSCALE
 40
1.0
  9
$DISPSILH
 70
     0
  9
$DIMSCALE
 40
1.0
  9
$DIMASZ
 40
0.18
  9
$DIMEXO
 40
0.0625
  9
$DIMDLI
 40
0.38
  9
$DIMRND
 40
0.0
  9
$DIMDLE
 40
0.0
  9
$DIMEXE
 40
0.18
  9
$DIMTP
 40
0.0
  9
$DIMTM
 40
0.0
  9
$DIMTXT
 40
0.18
  9
$DIMCEN
 40
0.09
  9
$DIMTSZ
 40
0.0
  9
$DIMTOL
 70
     0
  9
$DIMLIM
 70
     0
  9
$DIMTIH
 70
     1
  9
$DIMTOH
 70
     1
  9
$DIMSE1
 70
     0
  9
$DIMSE2
 70
     0
  9
$DIMTAD
 70
     0
  9
$DIMZIN
 70
     0
  9
$DIMBLK
  1

  9
$DIMASO
 70
     1
  9
$DIMSHO
 70
     1
  9
$DIMPOST
  1

  9
$DIMAPOST
  1

  9
$DIMALT
 70
     0
  9
$DIMALTD
 70
     2
  9
$DIMALTF
 40
25.4
  9
$DIMLFAC
 40
1.0
  9
$DIMTOFL
 70
     0
  9
$DIMTVP
 40
0.0
  9
$DIMTIX
 70
     0
  9
$DIMSOXD
 70
     0
  9
$DIMSAH
 70
     0
  9
$DIMBLK1
  1

  9
$DIMBLK2
  1

  9
$DIMSTYLE
  2
Standard
  9
$DIMCLRD
 70
     0
  9
$DIMCLRE
 70
     0
  9
$DIMCLRT
 70
     0
  9
$DIMTFAC
 40
1.0
  9
$DIMGAP
 40
0.09
  9
$DIMJUST
 70
     0
  9
$DIMSD1
 70
     0
  9
$DIMSD2
 70
     0
  9
$DIMTOLJ
 70
     1
  9
$DIMTZIN
 70
     0
  9
$DIMALTZ
 70
     0
  9
$DIMALTTZ
 70
     0
  9
$DIMUPT
 70
     0
  9
$DIMDEC
 70
     4
  9
$DIMTDEC
 70
     4
  9
$DIMALTU
 70
     2
  9
$DIMALTTD
 70
     2
  9
$DIMTXSTY
  7
Standard
  9
$DIMAUNIT
 70
     0
  9
$DIMADEC
 70
     0
  9
$DIMALTRND
 40
0.0
  9
$DIMAZIN
 70
     0
  9
$DIMDSEP
 70
    46
  9
$DIMATFIT
 70
     3
  9
$DIMFRAC
 70
     0
  9
$DIMLDRBLK
  1

  9
$DIMLUNIT
 70
     2
  9
$DIMLWD
 70
    -2
  9
$DIMLWE
 70
    -2
  9
$DIMTMOVE
 70
     2
  9
$LUNITS
 70
     2
  9
$LUPREC
 70
     0
  9
$SKETCHINC
 40
0.1
  9
$FILLETRAD
 40
0.5
  9
$AUNITS
 70
     0
  9
$AUPREC
 70
     0
  9
$MENU
  1
.
  9
$ELEVATION
 40
0.0
  9
$PELEVATION
 40
0.0
  9
$THICKNESS
 40
0.0
  9
$LIMCHECK
 70
     0
  9
$CHAMFERA
 40
0.5
  9
$CHAMFERB
 40
0.5
  9
$CHAMFERC
 40
1.0
  9
$CHAMFERD
 40
0.0
  9
$SKPOLY
 70
     0
  9
$TDCREATE
 40
2456394.670164618
  9
$TDUCREATE
 40
2456394.586831285
  9
$TDUPDATE
 40
2456394.670214965
  9
$TDUUPDATE
 40
2456394.586881632
  9
$TDINDWG
 40
0.0000000116
  9
$TDUSRTIMER
 40
0.0000000116
  9
$USRTIMER
 70
     1
  9
$ANGBASE
 50
0.0
  9
$ANGDIR
 70
     0
  9
$PDMODE
 70
     0
  9
$PDSIZE
 40
0.0
  9
$PLINEWID
 40
0.0
  9
$SPLFRAME
 70
     0
  9
$SPLINETYPE
 70
     6
  9
$SPLINESEGS
 70
     8
  9
$HANDSEED
  5
2D4
  9
$SURFTAB1
 70
     6
  9
$SURFTAB2
 70
     6
  9
$SURFTYPE
 70
     6
  9
$SURFU
 70
     6
  9
$SURFV
 70
     6
  9
$UCSBASE
  2

  9
$UCSNAME
  2

  9
$UCSORG
 10
0.0
 20
0.0
 30
0.0
  9
$UCSXDIR
 10
1.0
 20
0.0
 30
0.0
  9
$UCSYDIR
 10
0.0
 20
1.0
 30
0.0
  9
$UCSORTHOREF
  2

  9
$UCSORTHOVIEW
 70
     0
  9
$UCSORGTOP
 10
0.0
 20
0.0
 30
0.0
  9
$UCSORGBOTTOM
 10
0.0
 20
0.0
 30
0.0
  9
$UCSORGLEFT
 10
0.0
 20
0.0
 30
0.0
  9
$UCSORGRIGHT
 10
0.0
 20
0.0
 30
0.0
  9
$UCSORGFRONT
 10
0.0
 20
0.0
 30
0.0
  9
$UCSORGBACK
 10
0.0
 20
0.0
 30
0.0
  9
$PUCSBASE
  2

  9
$PUCSNAME
  2

  9
$PUCSORG
 10
0.0
 20
0.0
 30
0.0
  9
$PUCSXDIR
 10
1.0
 20
0.0
 30
0.0
  9
$PUCSYDIR
 10
0.0
 20
1.0
 30
0.0
  9
$PUCSORTHOREF
  2

  9
$PUCSORTHOVIEW
 70
     0
  9
$PUCSORGTOP
 10
0.0
 20
0.0
 30
0.0
  9
$PUCSORGBOTTOM
 10
0.0
 20
0.0
 30
0.0
  9
$PUCSORGLEFT
 10
0.0
 20
0.0
 30
0.0
  9
$PUCSORGRIGHT
 10
0.0
 20
0.0
 30
0.0
  9
$PUCSORGFRONT
 10
0.0
 20
0.0
 30
0.0
  9
$PUCSORGBACK
 10
0.0
 20
0.0
 30
0.0
  9
$USERI1
 70
     0
  9
$USERI2
 70
     0
  9
$USERI3
 70
     0
  9
$USERI4
 70
     0
  9
$USERI5
 70
     0
  9
$USERR1
 40
0.0
  9
$USERR2
 40
0.0
  9
$USERR3
 40
0.0
  9
$USERR4
 40
0.0
  9
$USERR5
 40
0.0
  9
$WORLDVIEW
 70
     1
  9
$SHADEDGE
 70
     3
  9
$SHADEDIF
 70
    70
  9
$TILEMODE
 70
     1
  9
$MAXACTVP
 70
    64
  9
$PINSBASE
 10
0.0
 20
0.0
 30
0.0
  9
$PLIMCHECK
 70
     0
  9
$PEXTMIN
 10
1.000000000000000E+20
 20
1.000000000000000E+20
 30
1.000000000000000E+20
  9
$PEXTMAX
 10
-1.000000000000000E+20
 20
-1.000000000000000E+20
 30
-1.000000000000000E+20
  9
$PLIMMIN
 10
0.0
 20
0.0
  9
$PLIMMAX
 10
12.0
 20
9.0
  9
$UNITMODE
 70
     0
  9
$VISRETAIN
 70
     1
  9
$PLINEGEN
 70
     0
  9
$PSLTSCALE
 70
     1
  9
$TREEDEPTH
 70
  3020
  9
$CMLSTYLE
  2
Standard
  9
$CMLJUST
 70
     0
  9
$CMLSCALE
 40
1.0
  9
$PROXYGRAPHICS
 70
     1
  9
$MEASUREMENT
 70
     0
  9
$CELWEIGHT
370
    -1
  9
$ENDCAPS
280
     0
  9
$JOINSTYLE
280
     0
  9
$LWDISPLAY
290
     0
  9
$INSUNITS
 70
     4
  9
$HYPERLINKBASE
  1

  9
$STYLESHEET
  1

  9
$XEDIT
290
     1
  9
$CEPSNTYPE
380
     0
  9
$PSTYLEMODE
290
     1
  9
$FINGERPRINTGUID
  2
{25E933F6-A9F1-49E8-BF4A-155C00837F08}
  9
$VERSIONGUID
  2
{FAEB1C32-E019-11D5-929B-00C0DF256EC4}
  9
$EXTNAMES
290
     1
  9
$PSVPSCALE
 40
0.0
  9
$OLESTARTUP
290
     0
  9
$SORTENTS
280
   127
  9
$INDEXCTL
280
     0
  9
$HIDETEXT
280
     1
  9
$XCLIPFRAME
290
     0
  9
$HALOGAP
280
     0
  9
$OBSCOLOR
 70
   257
  9
$OBSLTYPE
280
     0
  9
$INTERSECTIONDISPLAY
280
     0
  9
$INTERSECTIONCOLOR
 70
   257
  9
$DIMASSOC
280
     2
  9
$PROJECTNAME
  1

  0
ENDSEC
  0
SECTION
  2
CLASSES
  0
CLASS
  1
ACDBDICTIONARYWDFLT
  2
AcDbDictionaryWithDefault
  3
ObjectDBX Classes
 90
        0
 91
        4
280
     0
281
     0
  0
CLASS
  1
VISUALSTYLE
  2
AcDbVisualStyle
  3
ObjectDBX Classes
 90
     4095
 91
        4
280
     0
281
     0
  0
CLASS
  1
MATERIAL
  2
AcDbMaterial
  3
ObjectDBX Classes
 90
     1153
 91
        4
280
     0
281
     0
  0
CLASS
  1
SUN
  2
AcDbSun
  3
SCENEOE
 90
     1024
 91
        4
280
     0
281
     0
  0
ENDSEC
  0
SECTION
  2
TABLES
  0
TABLE
  2
VPORT
  5
8
330
0
100
AcDbSymbolTable
 70
     1
  0
VPORT
  5
29
330
8
100
AcDbSymbolTableRecord
100
AcDbViewportTableRecord
  2
*Active
 70
     0
 10
0.0
 20
0.0
 11
1.0
 21
1.0
 12
239.9999999999998
 22
104.9999026218966
 13
0.0
 23
0.0
 14
0.5
 24
0.5
 15
0.5
 25
0.5
 16
0.0
 26
0.0
 36
1.0
 17
0.0
 27
0.0
 37
0.0
 40
214.199801348669
 41
2.29047831468985
 42
50.0
 43
0.0
 44
0.0
 50
0.0
 51
0.0
 71
     0
 72
   100
 73
     1
 74
     3
 75
     0
 76
     0
 77
     0
 78
     0
281
     0
 65
     1
110
0.0
120
0.0
130
0.0
111
1.0
121
0.0
131
0.0
112
0.0
122
1.0
132
0.0
 79
     0
146
0.0
  0
ENDTAB
  0
TABLE
  2
LTYPE
  5
5
330
0
100
AcDbSymbolTable
 70
     1
  0
LTYPE
  5
14
330
5
100
AcDbSymbolTableRecord
100
AcDbLinetypeTableRecord
  2
ByBlock
 70
     0
  3

 72
    65
 73
     0
 40
0.0
  0
LTYPE
  5
15
330
5
100
AcDbSymbolTableRecord
100
AcDbLinetypeTableRecord
  2
ByLayer
 70
     0
  3

 72
    65
 73
     0
 40
0.0
  0
LTYPE
  5
16
330
5
100
AcDbSymbolTableRecord
100
AcDbLinetypeTableRecord
  2
Continuous
 70
     0
  3
Solid line
 72
    65
 73
     0
 40
0.0
  0
ENDTAB
  0
TABLE
  2
LAYER
  5
2
330
0
100
AcDbSymbolTable
 70
     3
  0
LAYER
  5
10
330
2
100
AcDbSymbolTableRecord
100
AcDbLayerTableRecord
  2
0
 70
     0
 62
     7
  6
Continuous
370
    -3
390
F
  0
LAYER
  5
40
330
2
100
AcDbSymbolTableRecord
100
AcDbLayerTableRecord
  2
20mm Cutouts
 70
     0
 62
     1
420
 16711680
  6
Continuous
370
    -3
390
F
  0
LAYER
  5
44
330
2
100
AcDbSymbolTableRecord
100
AcDbLayerTableRecord
  2
Engraving
 70
     0
 62
     6
420
 16711935
  6
Continuous
370
    -3
390
F
  0
ENDTAB
  0
TABLE
  2
STYLE
  5
3
330
0
100
AcDbSymbolTable
 70
     1
  0
STYLE
  5
11
330
3
100
AcDbSymbolTableRecord
100
AcDbTextStyleTableRecord
  2
Standard
 70
     0
 40
0.0
 41
1.0
 50
0.0
 71
     0
 42
0.2
  3
txt
  4

  0
ENDTAB
  0
TABLE
  2
VIEW
  5
6
330
0
100
AcDbSymbolTable
 70
     0
  0
ENDTAB
  0
TABLE
  2
UCS
  5
7
330
0
100
AcDbSymbolTable
 70
     0
  0
ENDTAB
  0
TABLE
  2
APPID
  5
9
330
0
100
AcDbSymbolTable
 70
     1
  0
APPID
  5
12
330
9
100
AcDbSymbolTableRecord
100
AcDbRegAppTableRecord
  2
ACAD
 70
     0
  0
ENDTAB
  0
TABLE
  2
DIMSTYLE
  5
A
330
0
100
AcDbSymbolTable
 70
     1
100
AcDbDimStyleTable
  0
DIMSTYLE
105
27
330
A
100
AcDbSymbolTableRecord
100
AcDbDimStyleTableRecord
  2
Standard
 70
     0
178
     0
340
11
  0
ENDTAB
  0
TABLE
  2
BLOCK_RECORD
  5
1
330
0
100
AcDbSymbolTable
 70
     1
  0
BLOCK_RECORD
  5
1F
330
1
100
AcDbSymbolTableRecord
100
AcDbBlockTableRecord
  2
*Model_Space
340
22
  0
BLOCK_RECORD
  5
1B
330
1
100
AcDbSymbolTableRecord
100
AcDbBlockTableRecord
  2
*Paper_Space
340
1E
  0
BLOCK_RECORD
  5
23
330
1
100
AcDbSymbolTableRecord
100
AcDbBlockTableRecord
  2
*Paper_Space0
340
26
  0
ENDTAB
  0
ENDSEC
  0
SECTION
  2
BLOCKS
  0
BLOCK
  5
20
330
1F
100
AcDbEntity
  8
0
100
AcDbBlockBegin
  2
*Model_Space
 70
     0
 10
0.0
 20
0.0
 30
0.0
  3
*Model_Space
  1

  0
ENDBLK
  5
21
330
1F
100
AcDbEntity
  8
0
100
AcDbBlockEnd
  0
BLOCK
  5
1C
330
1B
100
AcDbEntity
 67
     1
  8
0
100
AcDbBlockBegin
  2
*Paper_Space
 70
     0
 10
0.0
 20
0.0
 30
0.0
  3
*Paper_Space
  1

  0
ENDBLK
  5
1D
330
1B
100
AcDbEntity
 67
     1
  8
0
100
AcDbBlockEnd
  0
BLOCK
  5
24
330
23
100
AcDbEntity
  8
0
100
AcDbBlockBegin
  2
*Paper_Space0
 70
     0
 10
0.0
 20
0.0
 30
0.0
  3
*Paper_Space0
  1

  0
ENDBLK
  5
25
330
23
100
AcDbEntity
  8
0
100
AcDbBlockEnd
  0
ENDSEC
  0
SECTION
  2
ENTITIES
  0
LINE
  5
41
330
1F
100
AcDbEntity
  8
20mm Cutouts
100
AcDbLine
 10
-0.0000000000002274
 20
209.9998052437927
 30
0.0
 11
-0.0000000000002274
 21
205.3141066563703
 31
0.0
  0
SPLINE
  5
42
330
1F
100
AcDbEntity
  8
20mm Cutouts
100
AcDbSpline
210
0.0
220
0.0
230
1.0
 70
    12
 71
     2
 72
    12
 73
     9
 74
     0
 42
0.0000000001
 43
0.0000000001
 12
1.0
 22
0.0
 32
0.0
 13
1.0
 23
0.0
 33
0.0
 40
0.0
 40
0.0
 40
0.0
 40
205.3141066563703
 40
205.3141066563703
 40
685.3141056938452
 40
685.3141056938452
 40
890.6282123502156
 40
890.6282123502156
 40
895.3137406517021
 40
895.3137406517021
 40
895.3137406517021
 10
-0.0000000000002274
 20
205.3141066563703
 30
0.0
 41
1.0
 10
-0.0000000000001137
 20
102.6570533281852
 30
0.0
 41
1.0
 10
0.0
 20
0.0
 30
0.0
 41
1.0
 10
239.9999995187375
 20
0.0000000000002274
 30
0.0
 41
1.0
 10
479.9999990374749
 20
0.0000000000004547
 30
0.0
 41
1.0
 10
479.9999990374747
 20
102.6570533281856
 30
0.0
 41
1.0
 10
479.9999990374745
 20
205.3141066563708
 30
0.0
 41
1.0
 10
479.9999990374745
 20
207.656955950082
 30
0.0
 41
1.0
 10
479.9999990374745
 20
209.9998052437932
 30
0.0
 41
1.0
  0
LINE
  5
43
330
1F
100
AcDbEntity
  8
20mm Cutouts
100
AcDbLine
 10
479.9999990374745
 20
209.9998052437932
 30
0.0
 11
-0.0000000000002274
 21
209.9998052437927
 31
0.0
  0
CIRCLE
  5
45
330
1F
100
AcDbEntity
  8
Engraving
100
AcDbCircle
 10
319.9999999999997
 20
195.4944198788564
 30
0.0035385952111113
 40
0.5
  0
CIRCLE
  5
46
330
1F
100
AcDbEntity
  8
Engraving
100
AcDbCircle
 10
309.9999999999997
 20
185.4944198788564
 30
0.0035385952111113
 40
0.5000000000000284
  0
CIRCLE
  5
47
330
1F
100
AcDbEntity
  8
Engraving
100
AcDbCircle
 10
329.9999999999997
 20
185.4944198788564
 30
0.0035385952111113
 40
0.5000000000000284
  0
CIRCLE
  5
48
330
1F
100
AcDbEntity
  8
Engraving
100
AcDbCircle
 10
369.9999999999998
 20
185.4944198788567
 30
0.0035385952111113
 40
0.4999999999999432
  0
CIRCLE
  5
49
330
1F
100
AcDbEntity
  8
Engraving
100
AcDbCircle
 10
349.9999999999998
 20
185.4944198788567
 30
0.0035385952111113
 40
0.4999999999999432
  0
CIRCLE
  5
4A
330
1F
100
AcDbEntity
  8
Engraving
100
AcDbCircle
 10
359.9999999999998
 20
195.4944198788567
 30
0.0035385952111113
 40
0.4999999999999432
  0
CIRCLE
  5
4B
330
1F
100
AcDbEntity
  8
Engraving
100
AcDbCircle
 10
409.9999999999999
 20
185.4944198788568
 30
0.0035385952111113
 40
0.4999999999998863
  0
CIRCLE
  5
4C
330
1F
100
AcDbEntity
  8
Engraving
100
AcDbCircle
 10
389.9999999999998
 20
185.4944198788567
 30
0.0035385952111113
 40
0.4999999999999432
  0
CIRCLE
  5
4D
330
1F
100
AcDbEntity
  8
Engraving
100
AcDbCircle
 10
399.9999999999999
 20
195.4944198788567
 30
0.0035385952111113
 40
0.4999999999999147
  0
CIRCLE
  5
4E
330
1F
100
AcDbEntity
  8
Engraving
100
AcDbCircle
 10
199.9999999999998
 20
195.4944198788564
 30
0.0035385952111113
 40
0.5
  0
CIRCLE
  5
4F
330
1F
100
AcDbEntity
  8
Engraving
100
AcDbCircle
 10
189.9999999999998
 20
185.4944198788564
 30
0.0035385952111113
 40
0.5
  0
CIRCLE
  5
50
330
1F
100
AcDbEntity
  8
Engraving
100
AcDbCircle
 10
209.9999999999998
 20
185.4944198788564
 30
0.0035385952111113
 40
0.5
  0
CIRCLE
  5
51
330
1F
100
AcDbEntity
  8
Engraving
100
AcDbCircle
 10
249.9999999999998
 20
185.4944198788564
 30
0.0035385952111113
 40
0.5
  0
CIRCLE
  5
52
330
1F
100
AcDbEntity
  8
Engraving
100
AcDbCircle
 10
229.9999999999998
 20
185.4944198788565
 30
0.0035385952111113
 40
0.4999999999999716
  0
CIRCLE
  5
53
330
1F
100
AcDbEntity
  8
Engraving
100
AcDbCircle
 10
239.9999999999998
 20
195.4944198788565
 30
0.0035385952111113
 40
0.4999999999999716
  0
CIRCLE
  5
54
330
1F
100
AcDbEntity
  8
Engraving
100
AcDbCircle
 10
289.9999999999997
 20
185.4944198788564
 30
0.0035385952111113
 40
0.5000000000000568
  0
CIRCLE
  5
55
330
1F
100
AcDbEntity
  8
Engraving
100
AcDbCircle
 10
269.9999999999997
 20
185.4944198788564
 30
0.0035385952111113
 40
0.5000000000000284
  0
CIRCLE
  5
56
330
1F
100
AcDbEntity
  8
Engraving
100
AcDbCircle
 10
279.9999999999998
 20
195.4944198788564
 30
0.0035385952111113
 40
0.5
  0
CIRCLE
  5
57
330
1F
100
AcDbEntity
  8
Engraving
100
AcDbCircle
 10
79.99999999999973
 20
195.494419878856
 30
0.003538595211225
 40
0.5
  0
CIRCLE
  5
58
330
1F
100
AcDbEntity
  8
Engraving
100
AcDbCircle
 10
89.99999999999973
 20
185.494419878856
 30
0.0035385952111113
 40
0.5
  0
CIRCLE
  5
59
330
1F
100
AcDbEntity
  8
Engraving
100
AcDbCircle
 10
69.99999999999974
 20
185.494419878856
 30
0.0035385952111113
 40
0.5
  0
CIRCLE
  5
5A
330
1F
100
AcDbEntity
  8
Engraving
100
AcDbCircle
 10
119.9999999999998
 20
195.494419878856
 30
0.003538595211225
 40
0.5
  0
CIRCLE
  5
5B
330
1F
100
AcDbEntity
  8
Engraving
100
AcDbCircle
 10
129.9999999999998
 20
185.4944198788562
 30
0.0035385952111113
 40
0.5
  0
CIRCLE
  5
5C
330
1F
100
AcDbEntity
  8
Engraving
100
AcDbCircle
 10
109.9999999999998
 20
185.494419878856
 30
0.0035385952111113
 40
0.5
  0
CIRCLE
  5
5D
330
1F
100
AcDbEntity
  8
Engraving
100
AcDbCircle
 10
149.9999999999999
 20
185.4944198788563
 30
0.0035385952111113
 40
0.5000000000001137
  0
CIRCLE
  5
5E
330
1F
100
AcDbEntity
  8
Engraving
100
AcDbCircle
 10
169.9999999999998
 20
185.4944198788564
 30
0.0035385952111113
 40
0.5
  0
CIRCLE
  5
5F
330
1F
100
AcDbEntity
  8
Engraving
100
AcDbCircle
 10
159.9999999999998
 20
195.4944198788564
 30
0.0035385952111113
 40
0.5
  0
LINE
  5
60
330
1F
100
AcDbEntity
  8
Engraving
100
AcDbLine
 10
139.9999999999999
 20
95.4944198788562
 30
0.003538595210884
 11
100.0
 21
55.49441987885598
 31
0.0035385952106566
  0
CIRCLE
  5
61
330
1F
100
AcDbEntity
  8
Engraving
100
AcDbCircle
 10
120.0
 20
75.49441987885598
 30
0.0035385952106566
 40
10.0
  0
CIRCLE
  5
62
330
1F
100
AcDbEntity
  8
Engraving
100
AcDbCircle
 10
119.9999999999999
 20
75.49441987885602
 30
0.0035385952106566
 40
19.99999999999997
  0
LINE
  5
63
330
1F
100
AcDbEntity
  8
Engraving
100
AcDbLine
 10
100.0
 20
95.49441987885598
 30
0.003538595210884
 11
140.0000000000001
 21
55.49441987885621
 31
0.0035385952106566
  0
CIRCLE
  5
64
330
1F
100
AcDbEntity
  8
Engraving
100
AcDbCircle
 10
120.0
 20
75.49441987885596
 30
0.0035385952106566
 40
0.4999999999999858
  0
CIRCLE
  5
65
330
1F
100
AcDbEntity
  8
Engraving
100
AcDbCircle
 10
130.0
 20
65.4944198788562
 30
0.0035385952106566
 40
0.5
  0
CIRCLE
  5
66
330
1F
100
AcDbEntity
  8
Engraving
100
AcDbCircle
 10
129.9999999999999
 20
85.4944198788562
 30
0.0035385952107703
 40
0.5
  0
CIRCLE
  5
67
330
1F
100
AcDbEntity
  8
Engraving
100
AcDbCircle
 10
110.0
 20
85.49441987885596
 30
0.0035385952107703
 40
0.4999999999999858
  0
CIRCLE
  5
68
330
1F
100
AcDbEntity
  8
Engraving
100
AcDbCircle
 10
110.0
 20
65.49441987885596
 30
0.0035385952106566
 40
0.4999999999999858
  0
CIRCLE
  5
69
330
1F
100
AcDbEntity
  8
Engraving
100
AcDbCircle
 10
150.0
 20
65.4944198788562
 30
0.0035385952106566
 40
0.5
  0
CIRCLE
  5
6A
330
1F
100
AcDbEntity
  8
Engraving
100
AcDbCircle
 10
149.9999999999999
 20
85.4944198788562
 30
0.0035385952107703
 40
0.5
  0
CIRCLE
  5
6B
330
1F
100
AcDbEntity
  8
Engraving
100
AcDbCircle
 10
169.9999999999999
 20
85.4944198788562
 30
0.0035385952107703
 40
0.5
  0
CIRCLE
  5
6C
330
1F
100
AcDbEntity
  8
Engraving
100
AcDbCircle
 10
170.0
 20
65.49441987885645
 30
0.0035385952106566
 40
0.5000000000000142
  0
CIRCLE
  5
6D
330
1F
100
AcDbEntity
  8
Engraving
100
AcDbCircle
 10
160.0
 20
75.4944198788562
 30
0.0035385952106566
 40
0.5
  0
LINE
  5
6E
330
1F
100
AcDbEntity
  8
Engraving
100
AcDbLine
 10
139.9999999999999
 20
95.4944198788562
 30
0.003538595210884
 11
180.0
 21
55.49441987885643
 31
0.0035385952106566
  0
CIRCLE
  5
6F
330
1F
100
AcDbEntity
  8
Engraving
100
AcDbCircle
 10
159.9999999999999
 20
75.49441987885616
 30
0.0035385952106566
 40
20.00000000000006
  0
CIRCLE
  5
70
330
1F
100
AcDbEntity
  8
Engraving
100
AcDbCircle
 10
160.0
 20
75.4944198788562
 30
0.0035385952106566
 40
10.0
  0
LINE
  5
71
330
1F
100
AcDbEntity
  8
Engraving
100
AcDbLine
 10
180.0
 20
95.49441987885643
 30
0.0035385952106566
 11
140.0000000000001
 21
55.49441987885621
 31
0.0035385952106566
  0
LINE
  5
72
330
1F
100
AcDbEntity
  8
Engraving
100
AcDbLine
 10
100.0
 20
135.494419878856
 30
0.003538595210884
 11
60.00000000000011
 21
95.49441987885598
 31
0.003538595210884
  0
CIRCLE
  5
73
330
1F
100
AcDbEntity
  8
Engraving
100
AcDbCircle
 10
79.99999999999987
 20
115.494419878856
 30
0.0035385952107703
 40
9.999999999999986
  0
CIRCLE
  5
74
330
1F
100
AcDbEntity
  8
Engraving
100
AcDbCircle
 10
80.00000000000003
 20
115.494419878856
 30
0.003538595210884
 40
19.99999999999997
  0
LINE
  5
75
330
1F
100
AcDbEntity
  8
Engraving
100
AcDbLine
 10
60.00000000000011
 20
135.494419878856
 30
0.003538595210884
 11
100.0
 21
95.49441987885598
 31
0.003538595210884
  0
CIRCLE
  5
76
330
1F
100
AcDbEntity
  8
Engraving
100
AcDbCircle
 10
80.00000000000013
 20
115.494419878856
 30
0.003538595210884
 40
0.5000000000000142
  0
CIRCLE
  5
77
330
1F
100
AcDbEntity
  8
Engraving
100
AcDbCircle
 10
89.99999999999989
 20
105.494419878856
 30
0.003538595210884
 40
0.5
  0
CIRCLE
  5
78
330
1F
100
AcDbEntity
  8
Engraving
100
AcDbCircle
 10
89.99999999999989
 20
125.494419878856
 30
0.003538595210884
 40
0.5
  0
CIRCLE
  5
79
330
1F
100
AcDbEntity
  8
Engraving
100
AcDbCircle
 10
70.00000000000011
 20
125.494419878856
 30
0.003538595210884
 40
0.5
  0
CIRCLE
  5
7A
330
1F
100
AcDbEntity
  8
Engraving
100
AcDbCircle
 10
70.00000000000011
 20
105.494419878856
 30
0.003538595210884
 40
0.5
  0
LINE
  5
7B
330
1F
100
AcDbEntity
  8
Engraving
100
AcDbLine
 10
139.9999999999999
 20
135.4944198788562
 30
0.003538595210884
 11
100.0
 21
95.49441987885598
 31
0.003538595210884
  0
CIRCLE
  5
7C
330
1F
100
AcDbEntity
  8
Engraving
100
AcDbCircle
 10
120.0
 20
115.494419878856
 30
0.0035385952107703
 40
10.0
  0
CIRCLE
  5
7D
330
1F
100
AcDbEntity
  8
Engraving
100
AcDbCircle
 10
119.9999999999999
 20
115.494419878856
 30
0.003538595210884
 40
19.99999999999994
  0
LINE
  5
7E
330
1F
100
AcDbEntity
  8
Engraving
100
AcDbLine
 10
100.0
 20
135.494419878856
 30
0.003538595210884
 11
139.9999999999999
 21
95.4944198788562
 31
0.003538595210884
  0
CIRCLE
  5
7F
330
1F
100
AcDbEntity
  8
Engraving
100
AcDbCircle
 10
120.0
 20
115.494419878856
 30
0.003538595210884
 40
0.5
  0
CIRCLE
  5
80
330
1F
100
AcDbEntity
  8
Engraving
100
AcDbCircle
 10
129.9999999999999
 20
105.4944198788562
 30
0.003538595210884
 40
0.5
  0
CIRCLE
  5
81
330
1F
100
AcDbEntity
  8
Engraving
100
AcDbCircle
 10
129.9999999999999
 20
125.4944198788562
 30
0.003538595210884
 40
0.4999999999999858
  0
CIRCLE
  5
82
330
1F
100
AcDbEntity
  8
Engraving
100
AcDbCircle
 10
110.0
 20
125.494419878856
 30
0.003538595210884
 40
0.4999999999999858
  0
CIRCLE
  5
83
330
1F
100
AcDbEntity
  8
Engraving
100
AcDbCircle
 10
110.0
 20
105.494419878856
 30
0.003538595210884
 40
0.4999999999999858
  0
CIRCLE
  5
84
330
1F
100
AcDbEntity
  8
Engraving
100
AcDbCircle
 10
149.9999999999999
 20
105.4944198788562
 30
0.003538595210884
 40
0.5
  0
CIRCLE
  5
85
330
1F
100
AcDbEntity
  8
Engraving
100
AcDbCircle
 10
149.9999999999999
 20
125.4944198788562
 30
0.003538595210884
 40
0.5
  0
CIRCLE
  5
86
330
1F
100
AcDbEntity
  8
Engraving
100
AcDbCircle
 10
170.0
 20
125.4944198788563
 30
0.003538595210884
 40
0.5000000000000853
  0
CIRCLE
  5
87
330
1F
100
AcDbEntity
  8
Engraving
100
AcDbCircle
 10
169.9999999999999
 20
105.4944198788562
 30
0.003538595210884
 40
0.5000000000000142
  0
CIRCLE
  5
88
330
1F
100
AcDbEntity
  8
Engraving
100
AcDbCircle
 10
159.9999999999999
 20
115.4944198788562
 30
0.003538595210884
 40
0.5
  0
LINE
  5
89
330
1F
100
AcDbEntity
  8
Engraving
100
AcDbLine
 10
139.9999999999999
 20
135.4944198788562
 30
0.003538595210884
 11
180.0
 21
95.49441987885643
 31
0.0035385952106566
  0
CIRCLE
  5
8A
330
1F
100
AcDbEntity
  8
Engraving
100
AcDbCircle
 10
159.9999999999999
 20
115.4944198788562
 30
0.0035385952107703
 40
20.0
  0
CIRCLE
  5
8B
330
1F
100
AcDbEntity
  8
Engraving
100
AcDbCircle
 10
159.9999999999999
 20
115.4944198788562
 30
0.0035385952107703
 40
10.0
  0
LINE
  5
8C
330
1F
100
AcDbEntity
  8
Engraving
100
AcDbLine
 10
179.9999999999999
 20
135.4944198788564
 30
0.0035385952111113
 11
139.9999999999999
 21
95.4944198788562
 31
0.003538595210884
  0
LINE
  5
8D
330
1F
100
AcDbEntity
  8
Engraving
100
AcDbLine
 10
179.9999999999998
 20
175.4944198788564
 30
0.003538595210884
 11
139.9999999999999
 21
135.4944198788562
 31
0.003538595210884
  0
CIRCLE
  5
8E
330
1F
100
AcDbEntity
  8
Engraving
100
AcDbCircle
 10
159.9999999999997
 20
155.4944198788562
 30
0.0035385952111113
 40
10.00000000000003
  0
CIRCLE
  5
8F
330
1F
100
AcDbEntity
  8
Engraving
100
AcDbCircle
 10
159.9999999999998
 20
155.4944198788562
 30
0.003538595210884
 40
20.0
  0
LINE
  5
90
330
1F
100
AcDbEntity
  8
Engraving
100
AcDbLine
 10
139.9999999999998
 20
175.4944198788562
 30
0.0035385952111113
 11
179.9999999999999
 21
135.4944198788564
 31
0.0035385952111113
  0
CIRCLE
  5
91
330
1F
100
AcDbEntity
  8
Engraving
100
AcDbCircle
 10
159.9999999999998
 20
155.4944198788562
 30
0.0035385952111113
 40
0.5000000000000284
  0
CIRCLE
  5
92
330
1F
100
AcDbEntity
  8
Engraving
100
AcDbCircle
 10
170.0
 20
145.4944198788561
 30
0.0035385952109976
 40
0.5000000000001137
  0
CIRCLE
  5
93
330
1F
100
AcDbEntity
  8
Engraving
100
AcDbCircle
 10
169.9999999999999
 20
165.4944198788563
 30
0.0035385952111113
 40
0.5000000000001137
  0
CIRCLE
  5
94
330
1F
100
AcDbEntity
  8
Engraving
100
AcDbCircle
 10
149.9999999999999
 20
165.4944198788563
 30
0.0035385952111113
 40
0.5000000000001137
  0
CIRCLE
  5
95
330
1F
100
AcDbEntity
  8
Engraving
100
AcDbCircle
 10
150.0
 20
145.4944198788561
 30
0.0035385952109976
 40
0.5000000000001137
  0
CIRCLE
  5
96
330
1F
100
AcDbEntity
  8
Engraving
100
AcDbCircle
 10
110.0000000000001
 20
145.4944198788558
 30
0.0035385952109976
 40
0.5000000000000853
  0
CIRCLE
  5
97
330
1F
100
AcDbEntity
  8
Engraving
100
AcDbCircle
 10
109.9999999999999
 20
165.4944198788561
 30
0.0035385952111113
 40
0.5000000000001137
  0
CIRCLE
  5
98
330
1F
100
AcDbEntity
  8
Engraving
100
AcDbCircle
 10
129.9999999999999
 20
165.4944198788563
 30
0.0035385952111113
 40
0.5000000000001137
  0
CIRCLE
  5
99
330
1F
100
AcDbEntity
  8
Engraving
100
AcDbCircle
 10
130.0
 20
145.4944198788561
 30
0.0035385952109976
 40
0.5000000000001137
  0
CIRCLE
  5
9A
330
1F
100
AcDbEntity
  8
Engraving
100
AcDbCircle
 10
119.9999999999998
 20
155.494419878856
 30
0.0035385952111113
 40
0.4999999999999716
  0
LINE
  5
9B
330
1F
100
AcDbEntity
  8
Engraving
100
AcDbLine
 10
99.99999999999977
 20
175.494419878856
 30
0.0035385952111113
 11
139.9999999999999
 21
135.4944198788562
 31
0.003538595210884
  0
CIRCLE
  5
9C
330
1F
100
AcDbEntity
  8
Engraving
100
AcDbCircle
 10
119.9999999999998
 20
155.494419878856
 30
0.003538595210884
 40
19.99999999999994
  0
CIRCLE
  5
9D
330
1F
100
AcDbEntity
  8
Engraving
100
AcDbCircle
 10
119.9999999999999
 20
155.494419878856
 30
0.0035385952111113
 40
10.0
  0
LINE
  5
9E
330
1F
100
AcDbEntity
  8
Engraving
100
AcDbLine
 10
139.9999999999998
 20
175.4944198788562
 30
0.0035385952111113
 11
100.0
 21
135.494419878856
 31
0.003538595210884
  0
CIRCLE
  5
9F
330
1F
100
AcDbEntity
  8
Engraving
100
AcDbCircle
 10
70.00000000000023
 20
145.4944198788559
 30
0.0035385952109976
 40
0.5000000000001137
  0
CIRCLE
  5
A0
330
1F
100
AcDbEntity
  8
Engraving
100
AcDbCircle
 10
69.9999999999999
 20
165.4944198788561
 30
0.0035385952111113
 40
0.5000000000001137
  0
CIRCLE
  5
A1
330
1F
100
AcDbEntity
  8
Engraving
100
AcDbCircle
 10
89.99999999999989
 20
165.4944198788561
 30
0.0035385952111113
 40
0.5000000000001137
  0
CIRCLE
  5
A2
330
1F
100
AcDbEntity
  8
Engraving
100
AcDbCircle
 10
90.00000000000001
 20
145.4944198788559
 30
0.0035385952109976
 40
0.5000000000001137
  0
CIRCLE
  5
A3
330
1F
100
AcDbEntity
  8
Engraving
100
AcDbCircle
 10
79.99999999999979
 20
155.494419878856
 30
0.0035385952111113
 40
0.5
  0
LINE
  5
A4
330
1F
100
AcDbEntity
  8
Engraving
100
AcDbLine
 10
59.99999999999977
 20
175.494419878856
 30
0.0035385952111113
 11
100.0
 21
135.494419878856
 31
0.003538595210884
  0
CIRCLE
  5
A5
330
1F
100
AcDbEntity
  8
Engraving
100
AcDbCircle
 10
79.99999999999983
 20
155.4944198788559
 30
0.003538595210884
 40
20.00000000000006
  0
CIRCLE
  5
A6
330
1F
100
AcDbEntity
  8
Engraving
100
AcDbCircle
 10
79.99999999999977
 20
155.494419878856
 30
0.0035385952111113
 40
10.0
  0
LINE
  5
A7
330
1F
100
AcDbEntity
  8
Engraving
100
AcDbLine
 10
99.99999999999977
 20
175.494419878856
 30
0.0035385952111113
 11
60.00000000000011
 21
135.494419878856
 31
0.003538595210884
  0
LINE
  5
A8
330
1F
100
AcDbEntity
  8
Engraving
100
AcDbLine
 10
100.0
 20
95.49441987885598
 30
0.003538595210884
 11
60.00000000000011
 21
55.49441987885598
 31
0.0035385952106566
  0
CIRCLE
  5
A9
330
1F
100
AcDbEntity
  8
Engraving
100
AcDbCircle
 10
79.99999999999989
 20
75.49441987885598
 30
0.0035385952106566
 40
10.0
  0
CIRCLE
  5
AA
330
1F
100
AcDbEntity
  8
Engraving
100
AcDbCircle
 10
80.00000000000004
 20
75.49441987885602
 30
0.0035385952106566
 40
19.99999999999996
  0
LINE
  5
AB
330
1F
100
AcDbEntity
  8
Engraving
100
AcDbLine
 10
60.00000000000011
 20
95.49441987885598
 30
0.003538595210884
 11
100.0
 21
55.49441987885598
 31
0.0035385952106566
  0
CIRCLE
  5
AC
330
1F
100
AcDbEntity
  8
Engraving
100
AcDbCircle
 10
80.00000000000011
 20
75.49441987885598
 30
0.0035385952106566
 40
0.5
  0
CIRCLE
  5
AD
330
1F
100
AcDbEntity
  8
Engraving
100
AcDbCircle
 10
90.0000000000001
 20
65.49441987885598
 30
0.0035385952106566
 40
0.5
  0
CIRCLE
  5
AE
330
1F
100
AcDbEntity
  8
Engraving
100
AcDbCircle
 10
89.99999999999989
 20
85.49441987885598
 30
0.0035385952107703
 40
0.5
  0
CIRCLE
  5
AF
330
1F
100
AcDbEntity
  8
Engraving
100
AcDbCircle
 10
70.00000000000011
 20
85.49441987885598
 30
0.0035385952107703
 40
0.5
  0
CIRCLE
  5
B0
330
1F
100
AcDbEntity
  8
Engraving
100
AcDbCircle
 10
70.00000000000011
 20
65.49441987885598
 30
0.0035385952106566
 40
0.5
  0
CIRCLE
  5
B1
330
1F
100
AcDbEntity
  8
Engraving
100
AcDbCircle
 10
410.0000000000001
 20
65.49441987885676
 30
0.0035385952106566
 40
0.4999999999998721
  0
CIRCLE
  5
B2
330
1F
100
AcDbEntity
  8
Engraving
100
AcDbCircle
 10
409.9999999999999
 20
85.49441987885666
 30
0.0035385952106566
 40
0.5
  0
CIRCLE
  5
B3
330
1F
100
AcDbEntity
  8
Engraving
100
AcDbCircle
 10
389.9999999999999
 20
85.49441987885666
 30
0.0035385952106566
 40
0.5
  0
CIRCLE
  5
B4
330
1F
100
AcDbEntity
  8
Engraving
100
AcDbCircle
 10
389.9999999999999
 20
65.49441987885666
 30
0.0035385952106566
 40
0.5
  0
CIRCLE
  5
B5
330
1F
100
AcDbEntity
  8
Engraving
100
AcDbCircle
 10
399.9999999999999
 20
75.49441987885666
 30
0.0035385952106566
 40
0.5
  0
LINE
  5
B6
330
1F
100
AcDbEntity
  8
Engraving
100
AcDbLine
 10
419.9999999999999
 20
95.49441987885689
 30
0.003538595210884
 11
380.0
 21
55.49441987885666
 31
0.0035385952106566
  0
CIRCLE
  5
B7
330
1F
100
AcDbEntity
  8
Engraving
100
AcDbCircle
 10
400.0
 20
75.49441987885665
 30
0.0035385952106566
 40
20.0
  0
CIRCLE
  5
B8
330
1F
100
AcDbEntity
  8
Engraving
100
AcDbCircle
 10
399.9999999999999
 20
75.49441987885666
 30
0.0035385952107703
 40
10.0
  0
LINE
  5
B9
330
1F
100
AcDbEntity
  8
Engraving
100
AcDbLine
 10
380.0
 20
95.49441987885666
 30
0.0035385952106566
 11
420.0
 21
55.49441987885689
 31
0.0035385952106566
  0
LINE
  5
BA
330
1F
100
AcDbEntity
  8
Engraving
100
AcDbLine
 10
379.9999999999998
 20
175.4944198788567
 30
0.0035385952111113
 11
419.9999999999998
 21
135.4944198788569
 31
0.0035385952111113
  0
CIRCLE
  5
BB
330
1F
100
AcDbEntity
  8
Engraving
100
AcDbCircle
 10
399.9999999999998
 20
155.4944198788569
 30
0.0035385952111113
 40
10.0
  0
CIRCLE
  5
BC
330
1F
100
AcDbEntity
  8
Engraving
100
AcDbCircle
 10
399.9999999999998
 20
155.4944198788568
 30
0.0035385952109976
 40
20.00000000000006
  0
LINE
  5
BD
330
1F
100
AcDbEntity
  8
Engraving
100
AcDbLine
 10
419.9999999999998
 20
175.4944198788569
 30
0.0035385952111113
 11
379.9999999999999
 21
135.4944198788567
 31
0.0035385952111113
  0
CIRCLE
  5
BE
330
1F
100
AcDbEntity
  8
Engraving
100
AcDbCircle
 10
399.9999999999999
 20
155.4944198788568
 30
0.0035385952109976
 40
0.4999999999998863
  0
CIRCLE
  5
BF
330
1F
100
AcDbEntity
  8
Engraving
100
AcDbCircle
 10
389.9999999999998
 20
145.4944198788566
 30
0.0035385952111113
 40
0.4999999999999432
  0
CIRCLE
  5
C0
330
1F
100
AcDbEntity
  8
Engraving
100
AcDbCircle
 10
389.9999999999998
 20
165.4944198788566
 30
0.0035385952111113
 40
0.4999999999999432
  0
CIRCLE
  5
C1
330
1F
100
AcDbEntity
  8
Engraving
100
AcDbCircle
 10
410.0
 20
165.4944198788569
 30
0.0035385952111113
 40
0.4999999999997726
  0
CIRCLE
  5
C2
330
1F
100
AcDbEntity
  8
Engraving
100
AcDbCircle
 10
409.9999999999998
 20
145.4944198788569
 30
0.003538595210884
 40
0.4999999999999716
  0
LINE
  5
C3
330
1F
100
AcDbEntity
  8
Engraving
100
AcDbLine
 10
339.9999999999998
 20
175.4944198788564
 30
0.0035385952111113
 11
379.9999999999999
 21
135.4944198788567
 31
0.0035385952111113
  0
CIRCLE
  5
C4
330
1F
100
AcDbEntity
  8
Engraving
100
AcDbCircle
 10
359.9999999999998
 20
155.4944198788567
 30
0.0035385952109976
 40
10.0
  0
CIRCLE
  5
C5
330
1F
100
AcDbEntity
  8
Engraving
100
AcDbCircle
 10
359.9999999999998
 20
155.4944198788567
 30
0.0035385952111113
 40
19.99999999999994
  0
LINE
  5
C6
330
1F
100
AcDbEntity
  8
Engraving
100
AcDbLine
 10
379.9999999999998
 20
175.4944198788567
 30
0.0035385952111113
 11
340.0
 21
135.4944198788564
 31
0.0035385952111113
  0
CIRCLE
  5
C7
330
1F
100
AcDbEntity
  8
Engraving
100
AcDbCircle
 10
359.9999999999998
 20
155.4944198788567
 30
0.0035385952109976
 40
0.5
  0
CIRCLE
  5
C8
330
1F
100
AcDbEntity
  8
Engraving
100
AcDbCircle
 10
349.9999999999999
 20
145.4944198788567
 30
0.0035385952111113
 40
0.5
  0
CIRCLE
  5
C9
330
1F
100
AcDbEntity
  8
Engraving
100
AcDbCircle
 10
349.9999999999998
 20
165.4944198788567
 30
0.0035385952111113
 40
0.5
  0
CIRCLE
  5
CA
330
1F
100
AcDbEntity
  8
Engraving
100
AcDbCircle
 10
369.9999999999998
 20
165.4944198788566
 30
0.0035385952111113
 40
0.4999999999999432
  0
CIRCLE
  5
CB
330
1F
100
AcDbEntity
  8
Engraving
100
AcDbCircle
 10
369.9999999999998
 20
145.4944198788566
 30
0.0035385952111113
 40
0.4999999999999432
  0
CIRCLE
  5
CC
330
1F
100
AcDbEntity
  8
Engraving
100
AcDbCircle
 10
329.9999999999999
 20
145.4944198788564
 30
0.0035385952111113
 40
0.5
  0
CIRCLE
  5
CD
330
1F
100
AcDbEntity
  8
Engraving
100
AcDbCircle
 10
329.9999999999997
 20
165.4944198788564
 30
0.0035385952111113
 40
0.5
  0
CIRCLE
  5
CE
330
1F
100
AcDbEntity
  8
Engraving
100
AcDbCircle
 10
309.9999999999997
 20
165.4944198788564
 30
0.0035385952111113
 40
0.5
  0
CIRCLE
  5
CF
330
1F
100
AcDbEntity
  8
Engraving
100
AcDbCircle
 10
309.9999999999999
 20
145.4944198788564
 30
0.0035385952111113
 40
0.5
  0
CIRCLE
  5
D0
330
1F
100
AcDbEntity
  8
Engraving
100
AcDbCircle
 10
319.9999999999996
 20
155.4944198788564
 30
0.0035385952109976
 40
0.5
  0
LINE
  5
D1
330
1F
100
AcDbEntity
  8
Engraving
100
AcDbLine
 10
339.9999999999998
 20
175.4944198788564
 30
0.0035385952111113
 11
299.9999999999999
 21
135.4944198788564
 31
0.0035385952111113
  0
CIRCLE
  5
D2
330
1F
100
AcDbEntity
  8
Engraving
100
AcDbCircle
 10
319.9999999999998
 20
155.4944198788563
 30
0.0035385952111113
 40
20.0
  0
CIRCLE
  5
D3
330
1F
100
AcDbEntity
  8
Engraving
100
AcDbCircle
 10
319.9999999999998
 20
155.4944198788564
 30
0.0035385952109976
 40
10.0
  0
LINE
  5
D4
330
1F
100
AcDbEntity
  8
Engraving
100
AcDbLine
 10
299.9999999999998
 20
175.4944198788564
 30
0.0035385952111113
 11
340.0
 21
135.4944198788564
 31
0.0035385952111113
  0
LINE
  5
D5
330
1F
100
AcDbEntity
  8
Engraving
100
AcDbLine
 10
299.9999999999999
 20
135.4944198788564
 30
0.0035385952111113
 11
340.0
 21
95.49441987885643
 31
0.0035385952106566
  0
CIRCLE
  5
D6
330
1F
100
AcDbEntity
  8
Engraving
100
AcDbCircle
 10
319.9999999999999
 20
115.4944198788564
 30
0.003538595210884
 40
10.0
  0
CIRCLE
  5
D7
330
1F
100
AcDbEntity
  8
Engraving
100
AcDbCircle
 10
319.9999999999999
 20
115.4944198788564
 30
0.0035385952106566
 40
20.00000000000006
  0
LINE
  5
D8
330
1F
100
AcDbEntity
  8
Engraving
100
AcDbLine
 10
340.0
 20
135.4944198788564
 30
0.0035385952111113
 11
300.0
 21
95.49441987885643
 31
0.0035385952106566
  0
CIRCLE
  5
D9
330
1F
100
AcDbEntity
  8
Engraving
100
AcDbCircle
 10
319.9999999999999
 20
115.4944198788564
 30
0.003538595210884
 40
0.5
  0
CIRCLE
  5
DA
330
1F
100
AcDbEntity
  8
Engraving
100
AcDbCircle
 10
310.0
 20
105.4944198788563
 30
0.003538595210884
 40
0.4999999999998863
  0
CIRCLE
  5
DB
330
1F
100
AcDbEntity
  8
Engraving
100
AcDbCircle
 10
309.9999999999999
 20
125.4944198788564
 30
0.003538595210884
 40
0.5
  0
CIRCLE
  5
DC
330
1F
100
AcDbEntity
  8
Engraving
100
AcDbCircle
 10
330.0
 20
125.4944198788564
 30
0.003538595210884
 40
0.5000000000000142
  0
CIRCLE
  5
DD
330
1F
100
AcDbEntity
  8
Engraving
100
AcDbCircle
 10
330.0000000000001
 20
105.4944198788564
 30
0.003538595210884
 40
0.4999999999999289
  0
CIRCLE
  5
DE
330
1F
100
AcDbEntity
  8
Engraving
100
AcDbCircle
 10
370.0000000000001
 20
105.4944198788565
 30
0.003538595210884
 40
0.4999999999998721
  0
CIRCLE
  5
DF
330
1F
100
AcDbEntity
  8
Engraving
100
AcDbCircle
 10
369.9999999999999
 20
125.4944198788566
 30
0.003538595210884
 40
0.4999999999999858
  0
CIRCLE
  5
E0
330
1F
100
AcDbEntity
  8
Engraving
100
AcDbCircle
 10
349.9999999999999
 20
125.4944198788566
 30
0.003538595210884
 40
0.4999999999999858
  0
CIRCLE
  5
E1
330
1F
100
AcDbEntity
  8
Engraving
100
AcDbCircle
 10
350.0000000000001
 20
105.4944198788565
 30
0.003538595210884
 40
0.4999999999998863
  0
CIRCLE
  5
E2
330
1F
100
AcDbEntity
  8
Engraving
100
AcDbCircle
 10
360.0
 20
115.4944198788566
 30
0.003538595210884
 40
0.4999999999999716
  0
LINE
  5
E3
330
1F
100
AcDbEntity
  8
Engraving
100
AcDbLine
 10
379.9999999999999
 20
135.4944198788567
 30
0.0035385952111113
 11
340.0
 21
95.49441987885643
 31
0.0035385952106566
  0
CIRCLE
  5
E4
330
1F
100
AcDbEntity
  8
Engraving
100
AcDbCircle
 10
359.9999999999999
 20
115.4944198788568
 30
0.0035385952106566
 40
19.99999999999994
  0
CIRCLE
  5
E5
330
1F
100
AcDbEntity
  8
Engraving
100
AcDbCircle
 10
359.9999999999999
 20
115.4944198788567
 30
0.003538595210884
 40
10.0
  0
LINE
  5
E6
330
1F
100
AcDbEntity
  8
Engraving
100
AcDbLine
 10
340.0
 20
135.4944198788564
 30
0.0035385952111113
 11
380.0
 21
95.49441987885666
 31
0.0035385952106566
  0
CIRCLE
  5
E7
330
1F
100
AcDbEntity
  8
Engraving
100
AcDbCircle
 10
410.0
 20
105.4944198788565
 30
0.003538595210884
 40
0.4999999999998863
  0
CIRCLE
  5
E8
330
1F
100
AcDbEntity
  8
Engraving
100
AcDbCircle
 10
409.9999999999996
 20
125.4944198788568
 30
0.003538595210884
 40
0.5000000000001705
  0
CIRCLE
  5
E9
330
1F
100
AcDbEntity
  8
Engraving
100
AcDbCircle
 10
389.9999999999998
 20
125.4944198788567
 30
0.003538595210884
 40
0.5
  0
CIRCLE
  5
EA
330
1F
100
AcDbEntity
  8
Engraving
100
AcDbCircle
 10
390.0000000000001
 20
105.4944198788566
 30
0.003538595210884
 40
0.4999999999999147
  0
CIRCLE
  5
EB
330
1F
100
AcDbEntity
  8
Engraving
100
AcDbCircle
 10
399.9999999999998
 20
115.4944198788566
 30
0.003538595210884
 40
0.4999999999999432
  0
LINE
  5
EC
330
1F
100
AcDbEntity
  8
Engraving
100
AcDbLine
 10
419.9999999999998
 20
135.4944198788569
 30
0.0035385952111113
 11
380.0
 21
95.49441987885666
 31
0.0035385952106566
  0
CIRCLE
  5
ED
330
1F
100
AcDbEntity
  8
Engraving
100
AcDbCircle
 10
399.9999999999999
 20
115.4944198788567
 30
0.0035385952107703
 40
20.0
  0
CIRCLE
  5
EE
330
1F
100
AcDbEntity
  8
Engraving
100
AcDbCircle
 10
399.9999999999999
 20
115.4944198788567
 30
0.003538595210884
 40
10.0
  0
LINE
  5
EF
330
1F
100
AcDbEntity
  8
Engraving
100
AcDbLine
 10
379.9999999999999
 20
135.4944198788567
 30
0.0035385952111113
 11
419.9999999999999
 21
95.49441987885689
 31
0.003538595210884
  0
LINE
  5
F0
330
1F
100
AcDbEntity
  8
Engraving
100
AcDbLine
 10
300.0
 20
95.49441987885643
 30
0.0035385952106566
 11
340.0
 21
55.49441987885643
 31
0.0035385952106566
  0
CIRCLE
  5
F1
330
1F
100
AcDbEntity
  8
Engraving
100
AcDbCircle
 10
320.0000000000001
 20
75.49441987885638
 30
0.0035385952107703
 40
10.00000000000006
  0
CIRCLE
  5
F2
330
1F
100
AcDbEntity
  8
Engraving
100
AcDbCircle
 10
320.0
 20
75.49441987885643
 30
0.0035385952106566
 40
20.0
  0
LINE
  5
F3
330
1F
100
AcDbEntity
  8
Engraving
100
AcDbLine
 10
340.0
 20
95.49441987885643
 30
0.0035385952106566
 11
300.0
 21
55.49441987885643
 31
0.0035385952106566
  0
CIRCLE
  5
F4
330
1F
100
AcDbEntity
  8
Engraving
100
AcDbCircle
 10
320.0000000000001
 20
75.49441987885638
 30
0.0035385952106566
 40
0.4999999999999432
  0
CIRCLE
  5
F5
330
1F
100
AcDbEntity
  8
Engraving
100
AcDbCircle
 10
309.9999999999999
 20
65.49441987885643
 30
0.0035385952106566
 40
0.5
  0
CIRCLE
  5
F6
330
1F
100
AcDbEntity
  8
Engraving
100
AcDbCircle
 10
309.9999999999999
 20
85.49441987885638
 30
0.0035385952106566
 40
0.4999999999999432
  0
CIRCLE
  5
F7
330
1F
100
AcDbEntity
  8
Engraving
100
AcDbCircle
 10
330.0000000000001
 20
85.49441987885638
 30
0.0035385952106566
 40
0.4999999999999432
  0
CIRCLE
  5
F8
330
1F
100
AcDbEntity
  8
Engraving
100
AcDbCircle
 10
330.0000000000001
 20
65.49441987885638
 30
0.0035385952106566
 40
0.4999999999999432
  0
CIRCLE
  5
F9
330
1F
100
AcDbEntity
  8
Engraving
100
AcDbCircle
 10
369.9999999999999
 20
65.49441987885666
 30
0.0035385952106566
 40
0.5
  0
CIRCLE
  5
FA
330
1F
100
AcDbEntity
  8
Engraving
100
AcDbCircle
 10
369.9999999999999
 20
85.49441987885666
 30
0.0035385952106566
 40
0.5
  0
CIRCLE
  5
FB
330
1F
100
AcDbEntity
  8
Engraving
100
AcDbCircle
 10
349.9999999999999
 20
85.49441987885666
 30
0.0035385952106566
 40
0.5
  0
CIRCLE
  5
FC
330
1F
100
AcDbEntity
  8
Engraving
100
AcDbCircle
 10
349.9999999999999
 20
65.49441987885666
 30
0.0035385952106566
 40
0.5
  0
CIRCLE
  5
FD
330
1F
100
AcDbEntity
  8
Engraving
100
AcDbCircle
 10
359.9999999999999
 20
75.49441987885666
 30
0.0035385952106566
 40
0.5
  0
LINE
  5
FE
330
1F
100
AcDbEntity
  8
Engraving
100
AcDbLine
 10
380.0
 20
95.49441987885666
 30
0.0035385952106566
 11
340.0
 21
55.49441987885643
 31
0.0035385952106566
  0
CIRCLE
  5
FF
330
1F
100
AcDbEntity
  8
Engraving
100
AcDbCircle
 10
359.9999999999999
 20
75.49441987885672
 30
0.0035385952106566
 40
19.99999999999994
  0
CIRCLE
  5
100
330
1F
100
AcDbEntity
  8
Engraving
100
AcDbCircle
 10
359.9999999999999
 20
75.49441987885666
 30
0.0035385952107703
 40
10.0
  0
LINE
  5
101
330
1F
100
AcDbEntity
  8
Engraving
100
AcDbLine
 10
340.0
 20
95.49441987885643
 30
0.0035385952106566
 11
380.0
 21
55.49441987885666
 31
0.0035385952106566
  0
CIRCLE
  5
102
330
1F
100
AcDbEntity
  8
Engraving
100
AcDbCircle
 10
289.9999999999999
 20
65.49441987885638
 30
0.0035385952106566
 40
0.4999999999999432
  0
CIRCLE
  5
103
330
1F
100
AcDbEntity
  8
Engraving
100
AcDbCircle
 10
289.9999999999999
 20
85.49441987885643
 30
0.0035385952106566
 40
0.5
  0
CIRCLE
  5
104
330
1F
100
AcDbEntity
  8
Engraving
100
AcDbCircle
 10
269.9999999999998
 20
85.4944198788564
 30
0.0035385952106566
 40
0.4999999999999716
  0
CIRCLE
  5
105
330
1F
100
AcDbEntity
  8
Engraving
100
AcDbCircle
 10
270.0
 20
65.49441987885643
 30
0.0035385952106566
 40
0.5
  0
CIRCLE
  5
106
330
1F
100
AcDbEntity
  8
Engraving
100
AcDbCircle
 10
280.0
 20
75.49441987885643
 30
0.0035385952106566
 40
0.5
  0
LINE
  5
107
330
1F
100
AcDbEntity
  8
Engraving
100
AcDbLine
 10
300.0
 20
95.49441987885643
 30
0.0035385952106566
 11
260.0
 21
55.49441987885643
 31
0.0035385952106566
  0
CIRCLE
  5
108
330
1F
100
AcDbEntity
  8
Engraving
100
AcDbCircle
 10
280.0
 20
75.49441987885643
 30
0.0035385952106566
 40
20.0
  0
CIRCLE
  5
109
330
1F
100
AcDbEntity
  8
Engraving
100
AcDbCircle
 10
280.0
 20
75.49441987885643
 30
0.0035385952107703
 40
10.0
  0
LINE
  5
10A
330
1F
100
AcDbEntity
  8
Engraving
100
AcDbLine
 10
260.0
 20
95.49441987885643
 30
0.0035385952106566
 11
300.0
 21
55.49441987885643
 31
0.0035385952106566
  0
LINE
  5
10B
330
1F
100
AcDbEntity
  8
Engraving
100
AcDbLine
 10
259.9999999999998
 20
175.4944198788564
 30
0.0035385952111113
 11
299.9999999999999
 21
135.4944198788564
 31
0.0035385952111113
  0
CIRCLE
  5
10C
330
1F
100
AcDbEntity
  8
Engraving
100
AcDbCircle
 10
279.9999999999997
 20
155.4944198788564
 30
0.0035385952109976
 40
10.00000000000006
  0
CIRCLE
  5
10D
330
1F
100
AcDbEntity
  8
Engraving
100
AcDbCircle
 10
279.9999999999997
 20
155.4944198788564
 30
0.0035385952111113
 40
19.99999999999994
  0
LINE
  5
10E
330
1F
100
AcDbEntity
  8
Engraving
100
AcDbLine
 10
299.9999999999998
 20
175.4944198788564
 30
0.0035385952111113
 11
259.9999999999999
 21
135.4944198788564
 31
0.0035385952111113
  0
CIRCLE
  5
10F
330
1F
100
AcDbEntity
  8
Engraving
100
AcDbCircle
 10
279.9999999999997
 20
155.4944198788564
 30
0.0035385952109976
 40
0.5
  0
CIRCLE
  5
110
330
1F
100
AcDbEntity
  8
Engraving
100
AcDbCircle
 10
269.9999999999999
 20
145.4944198788564
 30
0.0035385952111113
 40
0.5
  0
CIRCLE
  5
111
330
1F
100
AcDbEntity
  8
Engraving
100
AcDbCircle
 10
269.9999999999997
 20
165.4944198788564
 30
0.0035385952111113
 40
0.5
  0
CIRCLE
  5
112
330
1F
100
AcDbEntity
  8
Engraving
100
AcDbCircle
 10
289.9999999999997
 20
165.4944198788564
 30
0.0035385952111113
 40
0.5
  0
CIRCLE
  5
113
330
1F
100
AcDbEntity
  8
Engraving
100
AcDbCircle
 10
289.9999999999999
 20
145.4944198788564
 30
0.0035385952111113
 40
0.5
  0
LINE
  5
114
330
1F
100
AcDbEntity
  8
Engraving
100
AcDbLine
 10
219.9999999999998
 20
175.4944198788564
 30
0.0035385952111113
 11
259.9999999999999
 21
135.4944198788564
 31
0.0035385952111113
  0
CIRCLE
  5
115
330
1F
100
AcDbEntity
  8
Engraving
100
AcDbCircle
 10
239.9999999999998
 20
155.4944198788565
 30
0.0035385952109976
 40
9.999999999999972
  0
CIRCLE
  5
116
330
1F
100
AcDbEntity
  8
Engraving
100
AcDbCircle
 10
239.9999999999998
 20
155.4944198788564
 30
0.0035385952111113
 40
20.00000000000003
  0
LINE
  5
117
330
1F
100
AcDbEntity
  8
Engraving
100
AcDbLine
 10
259.9999999999998
 20
175.4944198788564
 30
0.0035385952111113
 11
219.9999999999999
 21
135.4944198788564
 31
0.0035385952111113
  0
CIRCLE
  5
118
330
1F
100
AcDbEntity
  8
Engraving
100
AcDbCircle
 10
239.9999999999998
 20
155.4944198788564
 30
0.0035385952109976
 40
0.4999999999999716
  0
CIRCLE
  5
119
330
1F
100
AcDbEntity
  8
Engraving
100
AcDbCircle
 10
229.9999999999999
 20
145.4944198788565
 30
0.0035385952111113
 40
0.5000000000000284
  0
CIRCLE
  5
11A
330
1F
100
AcDbEntity
  8
Engraving
100
AcDbCircle
 10
229.9999999999998
 20
165.4944198788564
 30
0.0035385952111113
 40
0.4999999999999716
  0
CIRCLE
  5
11B
330
1F
100
AcDbEntity
  8
Engraving
100
AcDbCircle
 10
249.9999999999998
 20
165.4944198788564
 30
0.0035385952111113
 40
0.4999999999999716
  0
CIRCLE
  5
11C
330
1F
100
AcDbEntity
  8
Engraving
100
AcDbCircle
 10
249.9999999999999
 20
145.4944198788565
 30
0.0035385952111113
 40
0.5000000000000284
  0
CIRCLE
  5
11D
330
1F
100
AcDbEntity
  8
Engraving
100
AcDbCircle
 10
209.9999999999999
 20
145.4944198788565
 30
0.0035385952111113
 40
0.5000000000000284
  0
CIRCLE
  5
11E
330
1F
100
AcDbEntity
  8
Engraving
100
AcDbCircle
 10
209.9999999999998
 20
165.4944198788564
 30
0.0035385952111113
 40
0.5
  0
CIRCLE
  5
11F
330
1F
100
AcDbEntity
  8
Engraving
100
AcDbCircle
 10
189.9999999999998
 20
165.4944198788564
 30
0.0035385952111113
 40
0.5
  0
CIRCLE
  5
120
330
1F
100
AcDbEntity
  8
Engraving
100
AcDbCircle
 10
189.9999999999999
 20
145.4944198788564
 30
0.0035385952111113
 40
0.5
  0
CIRCLE
  5
121
330
1F
100
AcDbEntity
  8
Engraving
100
AcDbCircle
 10
199.9999999999998
 20
155.4944198788564
 30
0.0035385952109976
 40
0.5
  0
LINE
  5
122
330
1F
100
AcDbEntity
  8
Engraving
100
AcDbLine
 10
219.9999999999998
 20
175.4944198788564
 30
0.0035385952111113
 11
179.9999999999999
 21
135.4944198788564
 31
0.0035385952111113
  0
CIRCLE
  5
123
330
1F
100
AcDbEntity
  8
Engraving
100
AcDbCircle
 10
199.9999999999998
 20
155.4944198788565
 30
0.0035385952109976
 40
20.00000000000003
  0
CIRCLE
  5
124
330
1F
100
AcDbEntity
  8
Engraving
100
AcDbCircle
 10
199.9999999999998
 20
155.4944198788564
 30
0.0035385952109976
 40
10.0
  0
LINE
  5
125
330
1F
100
AcDbEntity
  8
Engraving
100
AcDbLine
 10
179.9999999999998
 20
175.4944198788564
 30
0.003538595210884
 11
219.9999999999999
 21
135.4944198788564
 31
0.0035385952111113
  0
LINE
  5
126
330
1F
100
AcDbEntity
  8
Engraving
100
AcDbLine
 10
179.9999999999999
 20
135.4944198788564
 30
0.0035385952111113
 11
220.0
 21
95.49441987885643
 31
0.0035385952106566
  0
CIRCLE
  5
127
330
1F
100
AcDbEntity
  8
Engraving
100
AcDbCircle
 10
200.0
 20
115.4944198788564
 30
0.003538595210884
 40
10.0
  0
CIRCLE
  5
128
330
1F
100
AcDbEntity
  8
Engraving
100
AcDbCircle
 10
199.9999999999999
 20
115.4944198788564
 30
0.0035385952106566
 40
20.00000000000006
  0
LINE
  5
129
330
1F
100
AcDbEntity
  8
Engraving
100
AcDbLine
 10
219.9999999999999
 20
135.4944198788564
 30
0.0035385952111113
 11
180.0
 21
95.49441987885643
 31
0.0035385952106566
  0
CIRCLE
  5
12A
330
1F
100
AcDbEntity
  8
Engraving
100
AcDbCircle
 10
199.9999999999999
 20
115.4944198788564
 30
0.003538595210884
 40
0.4999999999999716
  0
CIRCLE
  5
12B
330
1F
100
AcDbEntity
  8
Engraving
100
AcDbCircle
 10
190.0
 20
105.4944198788563
 30
0.003538595210884
 40
0.4999999999998863
  0
CIRCLE
  5
12C
330
1F
100
AcDbEntity
  8
Engraving
100
AcDbCircle
 10
189.9999999999999
 20
125.4944198788564
 30
0.003538595210884
 40
0.5
  0
CIRCLE
  5
12D
330
1F
100
AcDbEntity
  8
Engraving
100
AcDbCircle
 10
210.0
 20
125.4944198788564
 30
0.003538595210884
 40
0.5000000000000142
  0
CIRCLE
  5
12E
330
1F
100
AcDbEntity
  8
Engraving
100
AcDbCircle
 10
210.0000000000001
 20
105.4944198788563
 30
0.003538595210884
 40
0.4999999999998863
  0
CIRCLE
  5
12F
330
1F
100
AcDbEntity
  8
Engraving
100
AcDbCircle
 10
250.0
 20
105.4944198788563
 30
0.003538595210884
 40
0.4999999999998579
  0
CIRCLE
  5
130
330
1F
100
AcDbEntity
  8
Engraving
100
AcDbCircle
 10
249.9999999999999
 20
125.4944198788565
 30
0.003538595210884
 40
0.5000000000000284
  0
CIRCLE
  5
131
330
1F
100
AcDbEntity
  8
Engraving
100
AcDbCircle
 10
229.9999999999999
 20
125.4944198788565
 30
0.003538595210884
 40
0.5000000000000284
  0
CIRCLE
  5
132
330
1F
100
AcDbEntity
  8
Engraving
100
AcDbCircle
 10
230.0
 20
105.4944198788563
 30
0.003538595210884
 40
0.4999999999998579
  0
CIRCLE
  5
133
330
1F
100
AcDbEntity
  8
Engraving
100
AcDbCircle
 10
239.9999999999999
 20
115.4944198788565
 30
0.003538595210884
 40
0.5000000000000284
  0
LINE
  5
134
330
1F
100
AcDbEntity
  8
Engraving
100
AcDbLine
 10
259.9999999999999
 20
135.4944198788564
 30
0.0035385952111113
 11
220.0
 21
95.49441987885643
 31
0.0035385952106566
  0
CIRCLE
  5
135
330
1F
100
AcDbEntity
  8
Engraving
100
AcDbCircle
 10
240.0
 20
115.4944198788565
 30
0.0035385952106566
 40
19.99999999999997
  0
CIRCLE
  5
136
330
1F
100
AcDbEntity
  8
Engraving
100
AcDbCircle
 10
239.9999999999999
 20
115.4944198788565
 30
0.003538595210884
 40
9.999999999999972
  0
LINE
  5
137
330
1F
100
AcDbEntity
  8
Engraving
100
AcDbLine
 10
219.9999999999999
 20
135.4944198788564
 30
0.0035385952111113
 11
260.0
 21
95.49441987885643
 31
0.0035385952106566
  0
CIRCLE
  5
138
330
1F
100
AcDbEntity
  8
Engraving
100
AcDbCircle
 10
290.0000000000001
 20
105.4944198788563
 30
0.003538595210884
 40
0.4999999999999147
  0
CIRCLE
  5
139
330
1F
100
AcDbEntity
  8
Engraving
100
AcDbCircle
 10
289.9999999999999
 20
125.4944198788564
 30
0.003538595210884
 40
0.5
  0
CIRCLE
  5
13A
330
1F
100
AcDbEntity
  8
Engraving
100
AcDbCircle
 10
269.9999999999999
 20
125.4944198788564
 30
0.003538595210884
 40
0.5
  0
CIRCLE
  5
13B
330
1F
100
AcDbEntity
  8
Engraving
100
AcDbCircle
 10
270.0
 20
105.4944198788563
 30
0.003538595210884
 40
0.4999999999998579
  0
CIRCLE
  5
13C
330
1F
100
AcDbEntity
  8
Engraving
100
AcDbCircle
 10
279.9999999999999
 20
115.4944198788564
 30
0.003538595210884
 40
0.5
  0
LINE
  5
13D
330
1F
100
AcDbEntity
  8
Engraving
100
AcDbLine
 10
299.9999999999999
 20
135.4944198788564
 30
0.0035385952111113
 11
260.0
 21
95.49441987885643
 31
0.0035385952106566
  0
CIRCLE
  5
13E
330
1F
100
AcDbEntity
  8
Engraving
100
AcDbCircle
 10
279.9999999999999
 20
115.4944198788565
 30
0.0035385952106566
 40
19.99999999999994
  0
CIRCLE
  5
13F
330
1F
100
AcDbEntity
  8
Engraving
100
AcDbCircle
 10
279.9999999999999
 20
115.4944198788564
 30
0.003538595210884
 40
10.0
  0
LINE
  5
140
330
1F
100
AcDbEntity
  8
Engraving
100
AcDbLine
 10
259.9999999999999
 20
135.4944198788564
 30
0.0035385952111113
 11
300.0
 21
95.49441987885643
 31
0.0035385952106566
  0
LINE
  5
141
330
1F
100
AcDbEntity
  8
Engraving
100
AcDbLine
 10
180.0
 20
95.49441987885643
 30
0.0035385952106566
 11
220.0
 21
55.49441987885643
 31
0.0035385952106566
  0
CIRCLE
  5
142
330
1F
100
AcDbEntity
  8
Engraving
100
AcDbCircle
 10
199.9999999999999
 20
75.49441987885643
 30
0.0035385952107703
 40
10.0
  0
CIRCLE
  5
143
330
1F
100
AcDbEntity
  8
Engraving
100
AcDbCircle
 10
200.0
 20
75.49441987885643
 30
0.0035385952106566
 40
20.0
  0
LINE
  5
144
330
1F
100
AcDbEntity
  8
Engraving
100
AcDbLine
 10
220.0
 20
95.49441987885643
 30
0.0035385952106566
 11
180.0
 21
55.49441987885643
 31
0.0035385952106566
  0
CIRCLE
  5
145
330
1F
100
AcDbEntity
  8
Engraving
100
AcDbCircle
 10
199.9999999999999
 20
75.49441987885643
 30
0.0035385952106566
 40
0.5
  0
CIRCLE
  5
146
330
1F
100
AcDbEntity
  8
Engraving
100
AcDbCircle
 10
190.0
 20
65.49441987885643
 30
0.0035385952106566
 40
0.5
  0
CIRCLE
  5
147
330
1F
100
AcDbEntity
  8
Engraving
100
AcDbCircle
 10
189.9999999999999
 20
85.49441987885643
 30
0.0035385952106566
 40
0.5
  0
CIRCLE
  5
148
330
1F
100
AcDbEntity
  8
Engraving
100
AcDbCircle
 10
210.0
 20
85.4944198788564
 30
0.0035385952106566
 40
0.4999999999999716
  0
CIRCLE
  5
149
330
1F
100
AcDbEntity
  8
Engraving
100
AcDbCircle
 10
209.9999999999999
 20
65.49441987885643
 30
0.0035385952106566
 40
0.5
  0
CIRCLE
  5
14A
330
1F
100
AcDbEntity
  8
Engraving
100
AcDbCircle
 10
250.0
 20
65.49441987885643
 30
0.0035385952106566
 40
0.5
  0
CIRCLE
  5
14B
330
1F
100
AcDbEntity
  8
Engraving
100
AcDbCircle
 10
249.9999999999999
 20
85.4944198788564
 30
0.0035385952106566
 40
0.4999999999999716
  0
CIRCLE
  5
14C
330
1F
100
AcDbEntity
  8
Engraving
100
AcDbCircle
 10
230.0
 20
85.49441987885643
 30
0.0035385952106566
 40
0.5
  0
CIRCLE
  5
14D
330
1F
100
AcDbEntity
  8
Engraving
100
AcDbCircle
 10
230.0
 20
65.4944198788564
 30
0.0035385952106566
 40
0.4999999999999716
  0
CIRCLE
  5
14E
330
1F
100
AcDbEntity
  8
Engraving
100
AcDbCircle
 10
240.0
 20
75.49441987885643
 30
0.0035385952106566
 40
0.5
  0
LINE
  5
14F
330
1F
100
AcDbEntity
  8
Engraving
100
AcDbLine
 10
260.0
 20
95.49441987885643
 30
0.0035385952106566
 11
220.0
 21
55.49441987885643
 31
0.0035385952106566
  0
CIRCLE
  5
150
330
1F
100
AcDbEntity
  8
Engraving
100
AcDbCircle
 10
240.0
 20
75.49441987885643
 30
0.0035385952106566
 40
20.0
  0
CIRCLE
  5
151
330
1F
100
AcDbEntity
  8
Engraving
100
AcDbCircle
 10
240.0
 20
75.49441987885643
 30
0.0035385952107703
 40
10.0
  0
LINE
  5
152
330
1F
100
AcDbEntity
  8
Engraving
100
AcDbLine
 10
220.0
 20
95.49441987885643
 30
0.0035385952106566
 11
260.0
 21
55.49441987885643
 31
0.0035385952106566
  0
CIRCLE
  5
153
330
1F
100
AcDbEntity
  8
Engraving
100
AcDbCircle
 10
50.00000000000011
 20
65.49441987885598
 30
0.0035385952106566
 40
0.5
  0
CIRCLE
  5
154
330
1F
100
AcDbEntity
  8
Engraving
100
AcDbCircle
 10
50.00000000000011
 20
85.49441987885598
 30
0.0035385952107703
 40
0.5
  0
CIRCLE
  5
155
330
1F
100
AcDbEntity
  8
Engraving
100
AcDbCircle
 10
30.00000000000011
 20
85.49441987885598
 30
0.0035385952107703
 40
0.5
  0
CIRCLE
  5
156
330
1F
100
AcDbEntity
  8
Engraving
100
AcDbCircle
 10
30.00000000000011
 20
65.49441987885596
 30
0.0035385952106566
 40
0.4999999999999858
  0
CIRCLE
  5
157
330
1F
100
AcDbEntity
  8
Engraving
100
AcDbCircle
 10
40.00000000000011
 20
75.49441987885598
 30
0.0035385952106566
 40
0.5
  0
LINE
  5
158
330
1F
100
AcDbEntity
  8
Engraving
100
AcDbLine
 10
60.00000000000011
 20
95.49441987885598
 30
0.003538595210884
 11
20.00000000000011
 21
55.49441987885598
 31
0.0035385952106566
  0
CIRCLE
  5
159
330
1F
100
AcDbEntity
  8
Engraving
100
AcDbCircle
 10
40.00000000000011
 20
75.49441987885598
 30
0.0035385952106566
 40
20.0
  0
CIRCLE
  5
15A
330
1F
100
AcDbEntity
  8
Engraving
100
AcDbCircle
 10
40.00000000000011
 20
75.49441987885598
 30
0.0035385952106566
 40
10.0
  0
LINE
  5
15B
330
1F
100
AcDbEntity
  8
Engraving
100
AcDbLine
 10
20.00000000000011
 20
95.49441987885598
 30
0.003538595210884
 11
60.00000000000011
 21
55.49441987885598
 31
0.0035385952106566
  0
LINE
  5
15C
330
1F
100
AcDbEntity
  8
Engraving
100
AcDbLine
 10
19.99999999999977
 20
175.494419878856
 30
0.0035385952111113
 11
60.00000000000011
 21
135.494419878856
 31
0.003538595210884
  0
CIRCLE
  5
15D
330
1F
100
AcDbEntity
  8
Engraving
100
AcDbCircle
 10
39.99999999999977
 20
155.494419878856
 30
0.0035385952111113
 40
10.0
  0
CIRCLE
  5
15E
330
1F
100
AcDbEntity
  8
Engraving
100
AcDbCircle
 10
39.99999999999989
 20
155.4944198788561
 30
0.003538595210884
 40
19.99999999999989
  0
LINE
  5
15F
330
1F
100
AcDbEntity
  8
Engraving
100
AcDbLine
 10
59.99999999999977
 20
175.494419878856
 30
0.0035385952111113
 11
20.00000000000011
 21
135.494419878856
 31
0.003538595210884
  0
CIRCLE
  5
160
330
1F
100
AcDbEntity
  8
Engraving
100
AcDbCircle
 10
39.99999999999977
 20
155.494419878856
 30
0.0035385952111113
 40
0.5
  0
CIRCLE
  5
161
330
1F
100
AcDbEntity
  8
Engraving
100
AcDbCircle
 10
29.99999999999977
 20
145.4944198788559
 30
0.0035385952109976
 40
0.5000000000001137
  0
CIRCLE
  5
162
330
1F
100
AcDbEntity
  8
Engraving
100
AcDbCircle
 10
29.99999999999968
 20
165.4944198788561
 30
0.0035385952111113
 40
0.5000000000001137
  0
CIRCLE
  5
163
330
1F
100
AcDbEntity
  8
Engraving
100
AcDbCircle
 10
49.99999999999989
 20
165.4944198788561
 30
0.0035385952111113
 40
0.5000000000001137
  0
CIRCLE
  5
164
330
1F
100
AcDbEntity
  8
Engraving
100
AcDbCircle
 10
49.99999999999997
 20
145.4944198788559
 30
0.0035385952109976
 40
0.5000000000001137
  0
CIRCLE
  5
165
330
1F
100
AcDbEntity
  8
Engraving
100
AcDbCircle
 10
0.0
 20
155.494419878856
 30
0.0035385952111113
 40
0.5
  0
CIRCLE
  5
166
330
1F
100
AcDbEntity
  8
Engraving
100
AcDbCircle
 10
9.999999999999662
 20
165.4944198788561
 30
0.0035385952111113
 40
0.5000000000001137
  0
CIRCLE
  5
167
330
1F
100
AcDbEntity
  8
Engraving
100
AcDbCircle
 10
9.999999999999993
 20
145.4944198788559
 30
0.0035385952109976
 40
0.5000000000001137
  0
CIRCLE
  5
168
330
1F
100
AcDbEntity
  8
Engraving
100
AcDbCircle
 10
10.00000000000012
 20
105.494419878856
 30
0.003538595210884
 40
0.5
  0
CIRCLE
  5
169
330
1F
100
AcDbEntity
  8
Engraving
100
AcDbCircle
 10
10.00000000000012
 20
125.494419878856
 30
0.003538595210884
 40
0.5000000000000142
  0
CIRCLE
  5
16A
330
1F
100
AcDbEntity
  8
Engraving
100
AcDbCircle
 10
0.0000000000001105
 20
115.494419878856
 30
0.003538595210884
 40
0.5
  0
CIRCLE
  5
16B
330
1F
100
AcDbEntity
  8
Engraving
100
AcDbCircle
 10
50.00000000000011
 20
105.494419878856
 30
0.003538595210884
 40
0.5
  0
CIRCLE
  5
16C
330
1F
100
AcDbEntity
  8
Engraving
100
AcDbCircle
 10
50.00000000000011
 20
125.494419878856
 30
0.003538595210884
 40
0.5
  0
CIRCLE
  5
16D
330
1F
100
AcDbEntity
  8
Engraving
100
AcDbCircle
 10
30.00000000000011
 20
125.494419878856
 30
0.003538595210884
 40
0.5
  0
CIRCLE
  5
16E
330
1F
100
AcDbEntity
  8
Engraving
100
AcDbCircle
 10
30.00000000000011
 20
105.494419878856
 30
0.003538595210884
 40
0.5
  0
CIRCLE
  5
16F
330
1F
100
AcDbEntity
  8
Engraving
100
AcDbCircle
 10
40.00000000000011
 20
115.494419878856
 30
0.003538595210884
 40
0.5
  0
LINE
  5
170
330
1F
100
AcDbEntity
  8
Engraving
100
AcDbLine
 10
60.00000000000011
 20
135.494419878856
 30
0.003538595210884
 11
20.00000000000011
 21
95.49441987885598
 31
0.003538595210884
  0
CIRCLE
  5
171
330
1F
100
AcDbEntity
  8
Engraving
100
AcDbCircle
 10
40.00000000000009
 20
115.494419878856
 30
0.003538595210884
 40
19.99999999999997
  0
CIRCLE
  5
172
330
1F
100
AcDbEntity
  8
Engraving
100
AcDbCircle
 10
40.00000000000012
 20
115.494419878856
 30
0.0035385952107703
 40
10.0
  0
LINE
  5
173
330
1F
100
AcDbEntity
  8
Engraving
100
AcDbLine
 10
20.00000000000011
 20
135.494419878856
 30
0.003538595210884
 11
60.00000000000011
 21
95.49441987885598
 31
0.003538595210884
  0
CIRCLE
  5
174
330
1F
100
AcDbEntity
  8
Engraving
100
AcDbCircle
 10
10.00000000000012
 20
65.49441987885598
 30
0.0035385952106566
 40
0.5
  0
CIRCLE
  5
175
330
1F
100
AcDbEntity
  8
Engraving
100
AcDbCircle
 10
10.00000000000012
 20
85.49441987885598
 30
0.0035385952107703
 40
0.5
  0
CIRCLE
  5
176
330
1F
100
AcDbEntity
  8
Engraving
100
AcDbCircle
 10
0.0000000000001156
 20
75.49441987885598
 30
0.0035385952106566
 40
0.5
  0
CIRCLE
  5
177
330
1F
100
AcDbEntity
  8
Engraving
100
AcDbCircle
 10
9.99999999999978
 20
185.494419878856
 30
0.0035385952111113
 40
0.5
  0
CIRCLE
  5
178
330
1F
100
AcDbEntity
  8
Engraving
100
AcDbCircle
 10
-0.0000000000002211
 20
195.494419878856
 30
0.003538595211225
 40
0.5
  0
CIRCLE
  5
179
330
1F
100
AcDbEntity
  8
Engraving
100
AcDbCircle
 10
50.0
 20
185.494419878856
 30
0.0035385952111113
 40
0.4999999999999716
  0
CIRCLE
  5
17A
330
1F
100
AcDbEntity
  8
Engraving
100
AcDbCircle
 10
29.99999999999979
 20
185.494419878856
 30
0.0035385952111113
 40
0.5
  0
CIRCLE
  5
17B
330
1F
100
AcDbEntity
  8
Engraving
100
AcDbCircle
 10
39.99999999999979
 20
195.494419878856
 30
0.003538595211225
 40
0.5
  0
CIRCLE
  5
17C
330
1F
100
AcDbEntity
  8
Engraving
100
AcDbCircle
 10
439.9999999999997
 20
195.4944198788569
 30
0.0035385952111113
 40
0.4999999999999716
  0
CIRCLE
  5
17D
330
1F
100
AcDbEntity
  8
Engraving
100
AcDbCircle
 10
449.9999999999997
 20
185.4944198788569
 30
0.0035385952111113
 40
0.5
  0
CIRCLE
  5
17E
330
1F
100
AcDbEntity
  8
Engraving
100
AcDbCircle
 10
429.9999999999997
 20
185.4944198788569
 30
0.0035385952111113
 40
0.5000000000000284
  0
CIRCLE
  5
17F
330
1F
100
AcDbEntity
  8
Engraving
100
AcDbCircle
 10
479.9999999999996
 20
195.4944198788568
 30
0.0035385952111113
 40
0.5000000000000568
  0
CIRCLE
  5
180
330
1F
100
AcDbEntity
  8
Engraving
100
AcDbCircle
 10
469.9999999999996
 20
185.4944198788569
 30
0.0035385952111113
 40
0.4999999999999432
  0
CIRCLE
  5
181
330
1F
100
AcDbEntity
  8
Engraving
100
AcDbCircle
 10
479.9999999999996
 20
75.49441987885695
 30
0.0035385952106566
 40
0.5000000000000568
  0
CIRCLE
  5
182
330
1F
100
AcDbEntity
  8
Engraving
100
AcDbCircle
 10
470.0
 20
85.49441987885683
 30
0.0035385952106566
 40
0.4999999999999432
  0
CIRCLE
  5
183
330
1F
100
AcDbEntity
  8
Engraving
100
AcDbCircle
 10
469.9999999999999
 20
65.49441987885676
 30
0.0035385952106566
 40
0.4999999999998721
  0
LINE
  5
184
330
1F
100
AcDbEntity
  8
Engraving
100
AcDbLine
 10
459.9999999999998
 20
135.4944198788569
 30
0.0035385952111113
 11
419.9999999999999
 21
95.49441987885689
 31
0.003538595210884
  0
CIRCLE
  5
185
330
1F
100
AcDbEntity
  8
Engraving
100
AcDbCircle
 10
439.9999999999998
 20
115.4944198788569
 30
0.0035385952107703
 40
10.0
  0
CIRCLE
  5
186
330
1F
100
AcDbEntity
  8
Engraving
100
AcDbCircle
 10
439.9999999999999
 20
115.4944198788569
 30
0.003538595210884
 40
20.0
  0
LINE
  5
187
330
1F
100
AcDbEntity
  8
Engraving
100
AcDbLine
 10
419.9999999999998
 20
135.4944198788569
 30
0.0035385952111113
 11
459.9999999999999
 21
95.49441987885689
 31
0.003538595210884
  0
CIRCLE
  5
188
330
1F
100
AcDbEntity
  8
Engraving
100
AcDbCircle
 10
439.9999999999999
 20
115.4944198788569
 30
0.003538595210884
 40
0.5
  0
CIRCLE
  5
189
330
1F
100
AcDbEntity
  8
Engraving
100
AcDbCircle
 10
450.0
 20
105.4944198788568
 30
0.003538595210884
 40
0.5000000000001137
  0
CIRCLE
  5
18A
330
1F
100
AcDbEntity
  8
Engraving
100
AcDbCircle
 10
449.9999999999998
 20
125.4944198788568
 30
0.003538595210884
 40
0.4999999999999574
  0
CIRCLE
  5
18B
330
1F
100
AcDbEntity
  8
Engraving
100
AcDbCircle
 10
429.9999999999998
 20
125.4944198788569
 30
0.003538595210884
 40
0.4999999999999858
  0
CIRCLE
  5
18C
330
1F
100
AcDbEntity
  8
Engraving
100
AcDbCircle
 10
430.0
 20
105.4944198788568
 30
0.003538595210884
 40
0.5000000000001137
  0
CIRCLE
  5
18D
330
1F
100
AcDbEntity
  8
Engraving
100
AcDbCircle
 10
479.9999999999996
 20
115.4944198788569
 30
0.003538595210884
 40
0.5000000000000568
  0
CIRCLE
  5
18E
330
1F
100
AcDbEntity
  8
Engraving
100
AcDbCircle
 10
469.9999999999995
 20
125.4944198788569
 30
0.003538595210884
 40
0.4999999999999716
  0
CIRCLE
  5
18F
330
1F
100
AcDbEntity
  8
Engraving
100
AcDbCircle
 10
470.0000000000001
 20
105.4944198788567
 30
0.003538595210884
 40
0.5000000000000568
  0
CIRCLE
  5
190
330
1F
100
AcDbEntity
  8
Engraving
100
AcDbCircle
 10
469.9999999999995
 20
145.4944198788568
 30
0.003538595210884
 40
0.4999999999999432
  0
CIRCLE
  5
191
330
1F
100
AcDbEntity
  8
Engraving
100
AcDbCircle
 10
469.9999999999994
 20
165.494419878857
 30
0.0035385952109976
 40
0.4999999999998579
  0
CIRCLE
  5
192
330
1F
100
AcDbEntity
  8
Engraving
100
AcDbCircle
 10
479.9999999999996
 20
155.4944198788569
 30
0.0035385952111113
 40
0.5000000000000568
  0
CIRCLE
  5
193
330
1F
100
AcDbEntity
  8
Engraving
100
AcDbCircle
 10
429.9999999999998
 20
145.4944198788569
 30
0.003538595210884
 40
0.5000000000000568
  0
CIRCLE
  5
194
330
1F
100
AcDbEntity
  8
Engraving
100
AcDbCircle
 10
429.9999999999997
 20
165.494419878857
 30
0.0035385952109976
 40
0.4999999999999147
  0
CIRCLE
  5
195
330
1F
100
AcDbEntity
  8
Engraving
100
AcDbCircle
 10
449.9999999999997
 20
165.494419878857
 30
0.0035385952109976
 40
0.4999999999998863
  0
CIRCLE
  5
196
330
1F
100
AcDbEntity
  8
Engraving
100
AcDbCircle
 10
449.9999999999998
 20
145.4944198788569
 30
0.003538595210884
 40
0.5000000000000568
  0
CIRCLE
  5
197
330
1F
100
AcDbEntity
  8
Engraving
100
AcDbCircle
 10
439.9999999999997
 20
155.4944198788568
 30
0.0035385952111113
 40
0.4999999999999432
  0
LINE
  5
198
330
1F
100
AcDbEntity
  8
Engraving
100
AcDbLine
 10
419.9999999999998
 20
175.4944198788569
 30
0.0035385952111113
 11
459.9999999999998
 21
135.4944198788569
 31
0.0035385952111113
  0
CIRCLE
  5
199
330
1F
100
AcDbEntity
  8
Engraving
100
AcDbCircle
 10
439.9999999999997
 20
155.4944198788569
 30
0.003538595210884
 40
20.00000000000006
  0
CIRCLE
  5
19A
330
1F
100
AcDbEntity
  8
Engraving
100
AcDbCircle
 10
439.9999999999997
 20
155.4944198788568
 30
0.0035385952111113
 40
10.00000000000006
  0
LINE
  5
19B
330
1F
100
AcDbEntity
  8
Engraving
100
AcDbLine
 10
459.9999999999998
 20
175.4944198788569
 30
0.0035385952111113
 11
419.9999999999998
 21
135.4944198788569
 31
0.0035385952111113
  0
LINE
  5
19C
330
1F
100
AcDbEntity
  8
Engraving
100
AcDbLine
 10
459.9999999999999
 20
95.49441987885689
 30
0.003538595210884
 11
420.0
 21
55.49441987885689
 31
0.0035385952106566
  0
CIRCLE
  5
19D
330
1F
100
AcDbEntity
  8
Engraving
100
AcDbCircle
 10
440.0000000000001
 20
75.49441987885695
 30
0.0035385952106566
 40
9.999999999999943
  0
CIRCLE
  5
19E
330
1F
100
AcDbEntity
  8
Engraving
100
AcDbCircle
 10
440.0
 20
75.494419878857
 30
0.0035385952106566
 40
19.99999999999989
  0
LINE
  5
19F
330
1F
100
AcDbEntity
  8
Engraving
100
AcDbLine
 10
419.9999999999999
 20
95.49441987885689
 30
0.003538595210884
 11
460.0
 21
55.49441987885689
 31
0.0035385952106566
  0
CIRCLE
  5
1A0
330
1F
100
AcDbEntity
  8
Engraving
100
AcDbCircle
 10
440.0000000000001
 20
75.49441987885695
 30
0.0035385952106566
 40
0.5000000000000568
  0
CIRCLE
  5
1A1
330
1F
100
AcDbEntity
  8
Engraving
100
AcDbCircle
 10
449.9999999999999
 20
65.49441987885676
 30
0.0035385952106566
 40
0.4999999999998721
  0
CIRCLE
  5
1A2
330
1F
100
AcDbEntity
  8
Engraving
100
AcDbCircle
 10
450.0
 20
85.49441987885689
 30
0.0035385952106566
 40
0.5
  0
CIRCLE
  5
1A3
330
1F
100
AcDbEntity
  8
Engraving
100
AcDbCircle
 10
430.0
 20
85.49441987885689
 30
0.0035385952106566
 40
0.5
  0
CIRCLE
  5
1A4
330
1F
100
AcDbEntity
  8
Engraving
100
AcDbCircle
 10
429.9999999999999
 20
65.49441987885676
 30
0.0035385952106566
 40
0.4999999999998721
  0
LINE
  5
1A5
330
1F
100
AcDbEntity
  8
Engraving
100
AcDbLine
 10
220.0000000000001
 20
15.49441987885621
 30
0.0035385952104292
 11
260.0
 21
55.49441987885643
 31
0.0035385952106566
  0
CIRCLE
  5
1A6
330
1F
100
AcDbEntity
  8
Engraving
100
AcDbCircle
 10
240.0000000000001
 20
35.49441987885643
 30
0.0035385952105429
 40
10.0
  0
CIRCLE
  5
1A7
330
1F
100
AcDbEntity
  8
Engraving
100
AcDbCircle
 10
240.0000000000001
 20
35.49441987885618
 30
0.0035385952106566
 40
20.0
  0
LINE
  5
1A8
330
1F
100
AcDbEntity
  8
Engraving
100
AcDbLine
 10
260.0000000000002
 20
15.49441987885621
 30
0.0035385952104292
 11
220.0
 21
55.49441987885643
 31
0.0035385952106566
  0
CIRCLE
  5
1A9
330
1F
100
AcDbEntity
  8
Engraving
100
AcDbCircle
 10
240.0000000000001
 20
35.49441987885643
 30
0.0035385952104292
 40
0.5
  0
CIRCLE
  5
1AA
330
1F
100
AcDbEntity
  8
Engraving
100
AcDbCircle
 10
230.0
 20
45.49441987885643
 30
0.0035385952106566
 40
0.5
  0
CIRCLE
  5
1AB
330
1F
100
AcDbEntity
  8
Engraving
100
AcDbCircle
 10
230.0000000000001
 20
25.49441987885643
 30
0.0035385952105429
 40
0.5
  0
CIRCLE
  5
1AC
330
1F
100
AcDbEntity
  8
Engraving
100
AcDbCircle
 10
250.0000000000001
 20
25.49441987885643
 30
0.0035385952105429
 40
0.5
  0
CIRCLE
  5
1AD
330
1F
100
AcDbEntity
  8
Engraving
100
AcDbCircle
 10
250.0
 20
45.49441987885643
 30
0.0035385952106566
 40
0.5
  0
CIRCLE
  5
1AE
330
1F
100
AcDbEntity
  8
Engraving
100
AcDbCircle
 10
210.0
 20
45.49441987885643
 30
0.0035385952106566
 40
0.5
  0
CIRCLE
  5
1AF
330
1F
100
AcDbEntity
  8
Engraving
100
AcDbCircle
 10
210.0000000000001
 20
25.49441987885643
 30
0.0035385952105429
 40
0.5
  0
CIRCLE
  5
1B0
330
1F
100
AcDbEntity
  8
Engraving
100
AcDbCircle
 10
190.0000000000002
 20
25.49441987885631
 30
0.0035385952104292
 40
0.4999999999998934
  0
CIRCLE
  5
1B1
330
1F
100
AcDbEntity
  8
Engraving
100
AcDbCircle
 10
190.0
 20
45.49441987885641
 30
0.0035385952106566
 40
0.5000000000000284
  0
CIRCLE
  5
1B2
330
1F
100
AcDbEntity
  8
Engraving
100
AcDbCircle
 10
200.0000000000001
 20
35.49441987885643
 30
0.0035385952104292
 40
0.5
  0
LINE
  5
1B3
330
1F
100
AcDbEntity
  8
Engraving
100
AcDbLine
 10
220.0000000000001
 20
15.49441987885621
 30
0.0035385952104292
 11
180.0
 21
55.49441987885643
 31
0.0035385952106566
  0
CIRCLE
  5
1B4
330
1F
100
AcDbEntity
  8
Engraving
100
AcDbCircle
 10
200.0000000000001
 20
35.49441987885618
 30
0.0035385952106566
 40
20.0
  0
CIRCLE
  5
1B5
330
1F
100
AcDbEntity
  8
Engraving
100
AcDbCircle
 10
200.0000000000001
 20
35.49441987885643
 30
0.0035385952105429
 40
10.0
  0
LINE
  5
1B6
330
1F
100
AcDbEntity
  8
Engraving
100
AcDbLine
 10
180.0000000000001
 20
15.49441987885621
 30
0.0035385952104292
 11
220.0
 21
55.49441987885643
 31
0.0035385952106566
  0
CIRCLE
  5
1B7
330
1F
100
AcDbEntity
  8
Engraving
100
AcDbCircle
 10
270.0000000000001
 20
5.494419878856434
 30
0.0035385952104292
 40
0.5
  0
CIRCLE
  5
1B8
330
1F
100
AcDbEntity
  8
Engraving
100
AcDbCircle
 10
290.0000000000001
 20
5.494419878856434
 30
0.0035385952104292
 40
0.5
  0
CIRCLE
  5
1B9
330
1F
100
AcDbEntity
  8
Engraving
100
AcDbCircle
 10
230.0000000000001
 20
5.494419878856434
 30
0.0035385952104292
 40
0.5
  0
CIRCLE
  5
1BA
330
1F
100
AcDbEntity
  8
Engraving
100
AcDbCircle
 10
250.0000000000002
 20
5.494419878856405
 30
0.0035385952104292
 40
0.5000000000000284
  0
CIRCLE
  5
1BB
330
1F
100
AcDbEntity
  8
Engraving
100
AcDbCircle
 10
210.0000000000001
 20
5.494419878856434
 30
0.0035385952104292
 40
0.5
  0
CIRCLE
  5
1BC
330
1F
100
AcDbEntity
  8
Engraving
100
AcDbCircle
 10
190.0000000000001
 20
5.494419878856434
 30
0.0035385952104292
 40
0.5
  0
LINE
  5
1BD
330
1F
100
AcDbEntity
  8
Engraving
100
AcDbLine
 10
260.0000000000002
 20
15.49441987885621
 30
0.0035385952104292
 11
300.0
 21
55.49441987885643
 31
0.0035385952106566
  0
CIRCLE
  5
1BE
330
1F
100
AcDbEntity
  8
Engraving
100
AcDbCircle
 10
280.0000000000001
 20
35.49441987885643
 30
0.0035385952105429
 40
10.0
  0
CIRCLE
  5
1BF
330
1F
100
AcDbEntity
  8
Engraving
100
AcDbCircle
 10
280.0000000000001
 20
35.49441987885618
 30
0.0035385952106566
 40
20.0
  0
LINE
  5
1C0
330
1F
100
AcDbEntity
  8
Engraving
100
AcDbLine
 10
300.0000000000001
 20
15.49441987885621
 30
0.0035385952104292
 11
260.0
 21
55.49441987885643
 31
0.0035385952106566
  0
CIRCLE
  5
1C1
330
1F
100
AcDbEntity
  8
Engraving
100
AcDbCircle
 10
280.0000000000001
 20
35.49441987885643
 30
0.0035385952104292
 40
0.5
  0
CIRCLE
  5
1C2
330
1F
100
AcDbEntity
  8
Engraving
100
AcDbCircle
 10
270.0
 20
45.49441987885643
 30
0.0035385952106566
 40
0.5
  0
CIRCLE
  5
1C3
330
1F
100
AcDbEntity
  8
Engraving
100
AcDbCircle
 10
270.0000000000001
 20
25.49441987885643
 30
0.0035385952105429
 40
0.5
  0
CIRCLE
  5
1C4
330
1F
100
AcDbEntity
  8
Engraving
100
AcDbCircle
 10
290.0000000000001
 20
25.49441987885643
 30
0.0035385952105429
 40
0.5
  0
CIRCLE
  5
1C5
330
1F
100
AcDbEntity
  8
Engraving
100
AcDbCircle
 10
290.0
 20
45.49441987885643
 30
0.0035385952106566
 40
0.5
  0
LINE
  5
1C6
330
1F
100
AcDbEntity
  8
Engraving
100
AcDbLine
 10
340.0000000000001
 20
15.49441987885621
 30
0.0035385952104292
 11
380.0
 21
55.49441987885666
 31
0.0035385952106566
  0
CIRCLE
  5
1C7
330
1F
100
AcDbEntity
  8
Engraving
100
AcDbCircle
 10
360.0000000000001
 20
35.49441987885666
 30
0.0035385952105429
 40
10.0
  0
CIRCLE
  5
1C8
330
1F
100
AcDbEntity
  8
Engraving
100
AcDbCircle
 10
360.0000000000001
 20
35.49441987885643
 30
0.0035385952106566
 40
20.0
  0
LINE
  5
1C9
330
1F
100
AcDbEntity
  8
Engraving
100
AcDbLine
 10
380.0000000000001
 20
15.49441987885643
 30
0.0035385952104292
 11
340.0
 21
55.49441987885643
 31
0.0035385952106566
  0
CIRCLE
  5
1CA
330
1F
100
AcDbEntity
  8
Engraving
100
AcDbCircle
 10
360.0000000000001
 20
35.49441987885666
 30
0.0035385952104292
 40
0.5
  0
CIRCLE
  5
1CB
330
1F
100
AcDbEntity
  8
Engraving
100
AcDbCircle
 10
349.9999999999999
 20
45.4944198788566
 30
0.0035385952106566
 40
0.5000000000000568
  0
CIRCLE
  5
1CC
330
1F
100
AcDbEntity
  8
Engraving
100
AcDbCircle
 10
350.0000000000001
 20
25.49441987885666
 30
0.0035385952105429
 40
0.5
  0
CIRCLE
  5
1CD
330
1F
100
AcDbEntity
  8
Engraving
100
AcDbCircle
 10
370.0000000000001
 20
25.49441987885672
 30
0.0035385952105429
 40
0.4999999999999432
  0
CIRCLE
  5
1CE
330
1F
100
AcDbEntity
  8
Engraving
100
AcDbCircle
 10
369.9999999999999
 20
45.4944198788566
 30
0.0035385952106566
 40
0.5000000000000568
  0
CIRCLE
  5
1CF
330
1F
100
AcDbEntity
  8
Engraving
100
AcDbCircle
 10
330.0000000000001
 20
45.49441987885649
 30
0.0035385952106566
 40
0.4999999999999432
  0
CIRCLE
  5
1D0
330
1F
100
AcDbEntity
  8
Engraving
100
AcDbCircle
 10
330.0000000000001
 20
25.49441987885643
 30
0.0035385952105429
 40
0.5
  0
CIRCLE
  5
1D1
330
1F
100
AcDbEntity
  8
Engraving
100
AcDbCircle
 10
310.0
 20
25.49441987885643
 30
0.0035385952105429
 40
0.5
  0
CIRCLE
  5
1D2
330
1F
100
AcDbEntity
  8
Engraving
100
AcDbCircle
 10
309.9999999999999
 20
45.49441987885643
 30
0.0035385952106566
 40
0.5
  0
CIRCLE
  5
1D3
330
1F
100
AcDbEntity
  8
Engraving
100
AcDbCircle
 10
320.0000000000001
 20
35.49441987885643
 30
0.0035385952104292
 40
0.5
  0
LINE
  5
1D4
330
1F
100
AcDbEntity
  8
Engraving
100
AcDbLine
 10
340.0000000000001
 20
15.49441987885621
 30
0.0035385952104292
 11
300.0
 21
55.49441987885643
 31
0.0035385952106566
  0
CIRCLE
  5
1D5
330
1F
100
AcDbEntity
  8
Engraving
100
AcDbCircle
 10
320.0000000000001
 20
35.49441987885615
 30
0.0035385952106566
 40
19.99999999999994
  0
CIRCLE
  5
1D6
330
1F
100
AcDbEntity
  8
Engraving
100
AcDbCircle
 10
320.0000000000001
 20
35.49441987885643
 30
0.0035385952105429
 40
10.0
  0
LINE
  5
1D7
330
1F
100
AcDbEntity
  8
Engraving
100
AcDbLine
 10
300.0000000000001
 20
15.49441987885621
 30
0.0035385952104292
 11
340.0
 21
55.49441987885643
 31
0.0035385952106566
  0
CIRCLE
  5
1D8
330
1F
100
AcDbEntity
  8
Engraving
100
AcDbCircle
 10
390.0000000000001
 20
5.494419878856718
 30
0.0035385952104292
 40
0.4999999999999432
  0
CIRCLE
  5
1D9
330
1F
100
AcDbEntity
  8
Engraving
100
AcDbCircle
 10
410.0000000000001
 20
5.494419878856888
 30
0.0035385952103155
 40
0.5
  0
CIRCLE
  5
1DA
330
1F
100
AcDbEntity
  8
Engraving
100
AcDbCircle
 10
350.0000000000001
 20
5.494419878856661
 30
0.0035385952104292
 40
0.5
  0
CIRCLE
  5
1DB
330
1F
100
AcDbEntity
  8
Engraving
100
AcDbCircle
 10
370.0000000000001
 20
5.494419878856718
 30
0.0035385952104292
 40
0.4999999999999432
  0
CIRCLE
  5
1DC
330
1F
100
AcDbEntity
  8
Engraving
100
AcDbCircle
 10
330.0000000000001
 20
5.494419878856377
 30
0.0035385952104292
 40
0.5000000000000568
  0
CIRCLE
  5
1DD
330
1F
100
AcDbEntity
  8
Engraving
100
AcDbCircle
 10
310.0000000000001
 20
5.494419878856434
 30
0.0035385952104292
 40
0.5
  0
LINE
  5
1DE
330
1F
100
AcDbEntity
  8
Engraving
100
AcDbLine
 10
380.0000000000001
 20
15.49441987885643
 30
0.0035385952104292
 11
420.0
 21
55.49441987885689
 31
0.0035385952106566
  0
CIRCLE
  5
1DF
330
1F
100
AcDbEntity
  8
Engraving
100
AcDbCircle
 10
399.9999999999999
 20
35.49441987885666
 30
0.0035385952105429
 40
10.0
  0
CIRCLE
  5
1E0
330
1F
100
AcDbEntity
  8
Engraving
100
AcDbCircle
 10
400.0000000000001
 20
35.49441987885632
 30
0.0035385952106566
 40
19.99999999999994
  0
LINE
  5
1E1
330
1F
100
AcDbEntity
  8
Engraving
100
AcDbLine
 10
420.0
 20
15.49441987885666
 30
0.0035385952104292
 11
380.0
 21
55.49441987885666
 31
0.0035385952106566
  0
CIRCLE
  5
1E2
330
1F
100
AcDbEntity
  8
Engraving
100
AcDbCircle
 10
400.0000000000002
 20
35.49441987885673
 30
0.0035385952104292
 40
0.4999999999999289
  0
CIRCLE
  5
1E3
330
1F
100
AcDbEntity
  8
Engraving
100
AcDbCircle
 10
389.9999999999999
 20
45.4944198788566
 30
0.0035385952106566
 40
0.5000000000000568
  0
CIRCLE
  5
1E4
330
1F
100
AcDbEntity
  8
Engraving
100
AcDbCircle
 10
389.9999999999999
 20
25.49441987885666
 30
0.0035385952105429
 40
0.5
  0
CIRCLE
  5
1E5
330
1F
100
AcDbEntity
  8
Engraving
100
AcDbCircle
 10
410.0000000000001
 20
25.49441987885683
 30
0.0035385952105429
 40
0.499999999999833
  0
CIRCLE
  5
1E6
330
1F
100
AcDbEntity
  8
Engraving
100
AcDbCircle
 10
409.9999999999999
 20
45.49441987885672
 30
0.0035385952106566
 40
0.5000000000001705
  0
CIRCLE
  5
1E7
330
1F
100
AcDbEntity
  8
Engraving
100
AcDbCircle
 10
70.00000000000013
 20
45.49441987885598
 30
0.0035385952106566
 40
0.5
  0
CIRCLE
  5
1E8
330
1F
100
AcDbEntity
  8
Engraving
100
AcDbCircle
 10
70.00000000000023
 20
25.49441987885598
 30
0.0035385952104292
 40
0.5
  0
CIRCLE
  5
1E9
330
1F
100
AcDbEntity
  8
Engraving
100
AcDbCircle
 10
90.00000000000023
 20
25.49441987885598
 30
0.0035385952104292
 40
0.5
  0
CIRCLE
  5
1EA
330
1F
100
AcDbEntity
  8
Engraving
100
AcDbCircle
 10
90.00000000000011
 20
45.49441987885598
 30
0.0035385952106566
 40
0.5
  0
CIRCLE
  5
1EB
330
1F
100
AcDbEntity
  8
Engraving
100
AcDbCircle
 10
80.00000000000023
 20
35.49441987885598
 30
0.0035385952105429
 40
0.5
  0
LINE
  5
1EC
330
1F
100
AcDbEntity
  8
Engraving
100
AcDbLine
 10
60.00000000000023
 20
15.49441987885575
 30
0.0035385952104292
 11
100.0
 21
55.49441987885598
 31
0.0035385952106566
  0
CIRCLE
  5
1ED
330
1F
100
AcDbEntity
  8
Engraving
100
AcDbCircle
 10
80.00000000000023
 20
35.49441987885575
 30
0.0035385952104292
 40
20.0
  0
CIRCLE
  5
1EE
330
1F
100
AcDbEntity
  8
Engraving
100
AcDbCircle
 10
80.00000000000023
 20
35.49441987885598
 30
0.0035385952106566
 40
10.0
  0
LINE
  5
1EF
330
1F
100
AcDbEntity
  8
Engraving
100
AcDbLine
 10
100.0000000000002
 20
15.49441987885575
 30
0.0035385952104292
 11
60.00000000000011
 21
55.49441987885598
 31
0.0035385952106566
  0
CIRCLE
  5
1F0
330
1F
100
AcDbEntity
  8
Engraving
100
AcDbCircle
 10
170.0000000000002
 20
5.494419878856434
 30
0.0035385952104292
 40
0.5
  0
CIRCLE
  5
1F1
330
1F
100
AcDbEntity
  8
Engraving
100
AcDbCircle
 10
150.0000000000001
 20
5.494419878856434
 30
0.0035385952104292
 40
0.5
  0
CIRCLE
  5
1F2
330
1F
100
AcDbEntity
  8
Engraving
100
AcDbCircle
 10
110.0000000000002
 20
5.494419878855965
 30
0.0035385952104292
 40
0.5000000000000142
  0
CIRCLE
  5
1F3
330
1F
100
AcDbEntity
  8
Engraving
100
AcDbCircle
 10
130.0000000000001
 20
5.494419878856206
 30
0.0035385952104292
 40
0.5
  0
CIRCLE
  5
1F4
330
1F
100
AcDbEntity
  8
Engraving
100
AcDbCircle
 10
70.00000000000023
 20
5.494419878855979
 30
0.0035385952104292
 40
0.5
  0
CIRCLE
  5
1F5
330
1F
100
AcDbEntity
  8
Engraving
100
AcDbCircle
 10
90.00000000000023
 20
5.494419878855979
 30
0.0035385952104292
 40
0.5
  0
LINE
  5
1F6
330
1F
100
AcDbEntity
  8
Engraving
100
AcDbLine
 10
180.0000000000001
 20
15.49441987885621
 30
0.0035385952104292
 11
140.0000000000001
 21
55.49441987885621
 31
0.0035385952106566
  0
CIRCLE
  5
1F7
330
1F
100
AcDbEntity
  8
Engraving
100
AcDbCircle
 10
160.0000000000001
 20
35.49441987885621
 30
0.0035385952106566
 40
10.0
  0
CIRCLE
  5
1F8
330
1F
100
AcDbEntity
  8
Engraving
100
AcDbCircle
 10
160.0000000000001
 20
35.49441987885621
 30
0.0035385952105429
 40
19.99999999999997
  0
LINE
  5
1F9
330
1F
100
AcDbEntity
  8
Engraving
100
AcDbLine
 10
140.0000000000002
 20
15.49441987885621
 30
0.0035385952104292
 11
180.0
 21
55.49441987885643
 31
0.0035385952106566
  0
CIRCLE
  5
1FA
330
1F
100
AcDbEntity
  8
Engraving
100
AcDbCircle
 10
160.0
 20
35.49441987885631
 30
0.0035385952105429
 40
0.4999999999998934
  0
CIRCLE
  5
1FB
330
1F
100
AcDbEntity
  8
Engraving
100
AcDbCircle
 10
170.0
 20
45.49441987885621
 30
0.0035385952106566
 40
0.5
  0
CIRCLE
  5
1FC
330
1F
100
AcDbEntity
  8
Engraving
100
AcDbCircle
 10
170.0
 20
25.49441987885633
 30
0.0035385952104292
 40
0.4999999999998757
  0
CIRCLE
  5
1FD
330
1F
100
AcDbEntity
  8
Engraving
100
AcDbCircle
 10
150.0000000000001
 20
25.49441987885621
 30
0.0035385952104292
 40
0.5
  0
CIRCLE
  5
1FE
330
1F
100
AcDbEntity
  8
Engraving
100
AcDbCircle
 10
150.0
 20
45.49441987885621
 30
0.0035385952106566
 40
0.5
  0
CIRCLE
  5
1FF
330
1F
100
AcDbEntity
  8
Engraving
100
AcDbCircle
 10
110.0000000000001
 20
45.49441987885598
 30
0.0035385952106566
 40
0.5
  0
CIRCLE
  5
200
330
1F
100
AcDbEntity
  8
Engraving
100
AcDbCircle
 10
110.0000000000002
 20
25.49441987885596
 30
0.0035385952104292
 40
0.5000000000000142
  0
CIRCLE
  5
201
330
1F
100
AcDbEntity
  8
Engraving
100
AcDbCircle
 10
130.0000000000001
 20
25.4944198788562
 30
0.0035385952104292
 40
0.5000000000000071
  0
CIRCLE
  5
202
330
1F
100
AcDbEntity
  8
Engraving
100
AcDbCircle
 10
130.0
 20
45.49441987885621
 30
0.0035385952106566
 40
0.5
  0
CIRCLE
  5
203
330
1F
100
AcDbEntity
  8
Engraving
100
AcDbCircle
 10
120.0000000000001
 20
35.49441987885598
 30
0.0035385952105429
 40
0.5
  0
LINE
  5
204
330
1F
100
AcDbEntity
  8
Engraving
100
AcDbLine
 10
100.0000000000002
 20
15.49441987885575
 30
0.0035385952104292
 11
140.0000000000001
 21
55.49441987885621
 31
0.0035385952106566
  0
CIRCLE
  5
205
330
1F
100
AcDbEntity
  8
Engraving
100
AcDbCircle
 10
120.0000000000002
 20
35.49441987885568
 30
0.0035385952104292
 40
19.99999999999993
  0
CIRCLE
  5
206
330
1F
100
AcDbEntity
  8
Engraving
100
AcDbCircle
 10
120.0000000000001
 20
35.49441987885599
 30
0.0035385952106566
 40
10.00000000000001
  0
LINE
  5
207
330
1F
100
AcDbEntity
  8
Engraving
100
AcDbLine
 10
140.0000000000002
 20
15.49441987885621
 30
0.0035385952104292
 11
100.0
 21
55.49441987885598
 31
0.0035385952106566
  0
CIRCLE
  5
208
330
1F
100
AcDbEntity
  8
Engraving
100
AcDbCircle
 10
0.0000000000002261
 20
35.49441987885598
 30
0.0035385952105429
 40
0.5
  0
CIRCLE
  5
209
330
1F
100
AcDbEntity
  8
Engraving
100
AcDbCircle
 10
10.00000000000023
 20
25.49441987885598
 30
0.0035385952104292
 40
0.5
  0
CIRCLE
  5
20A
330
1F
100
AcDbEntity
  8
Engraving
100
AcDbCircle
 10
10.00000000000011
 20
45.49441987885598
 30
0.0035385952106566
 40
0.5
  0
CIRCLE
  5
20B
330
1F
100
AcDbEntity
  8
Engraving
100
AcDbCircle
 10
30.00000000000022
 20
5.494419878855975
 30
0.0035385952104292
 40
0.5000000000000036
  0
CIRCLE
  5
20C
330
1F
100
AcDbEntity
  8
Engraving
100
AcDbCircle
 10
50.00000000000023
 20
5.494419878855979
 30
0.0035385952104292
 40
0.5
  0
CIRCLE
  5
20D
330
1F
100
AcDbEntity
  8
Engraving
100
AcDbCircle
 10
10.00000000000023
 20
5.494419878855981
 30
0.0035385952104292
 40
0.4999999999999982
  0
LINE
  5
20E
330
1F
100
AcDbEntity
  8
Engraving
100
AcDbLine
 10
20.00000000000023
 20
15.49441987885575
 30
0.0035385952104292
 11
60.00000000000011
 21
55.49441987885598
 31
0.0035385952106566
  0
CIRCLE
  5
20F
330
1F
100
AcDbEntity
  8
Engraving
100
AcDbCircle
 10
40.00000000000023
 20
35.49441987885598
 30
0.0035385952106566
 40
10.0
  0
CIRCLE
  5
210
330
1F
100
AcDbEntity
  8
Engraving
100
AcDbCircle
 10
40.00000000000023
 20
35.49441987885574
 30
0.0035385952104292
 40
20.0
  0
LINE
  5
211
330
1F
100
AcDbEntity
  8
Engraving
100
AcDbLine
 10
60.00000000000023
 20
15.49441987885575
 30
0.0035385952104292
 11
20.00000000000011
 21
55.49441987885598
 31
0.0035385952106566
  0
CIRCLE
  5
212
330
1F
100
AcDbEntity
  8
Engraving
100
AcDbCircle
 10
40.00000000000023
 20
35.49441987885598
 30
0.0035385952105429
 40
0.5
  0
CIRCLE
  5
213
330
1F
100
AcDbEntity
  8
Engraving
100
AcDbCircle
 10
30.0000000000001
 20
45.49441987885597
 30
0.0035385952106566
 40
0.5000000000000071
  0
CIRCLE
  5
214
330
1F
100
AcDbEntity
  8
Engraving
100
AcDbCircle
 10
30.00000000000022
 20
25.49441987885598
 30
0.0035385952104292
 40
0.5000000000000036
  0
CIRCLE
  5
215
330
1F
100
AcDbEntity
  8
Engraving
100
AcDbCircle
 10
50.00000000000023
 20
25.49441987885598
 30
0.0035385952104292
 40
0.5
  0
CIRCLE
  5
216
330
1F
100
AcDbEntity
  8
Engraving
100
AcDbCircle
 10
50.00000000000011
 20
45.49441987885598
 30
0.0035385952106566
 40
0.5
  0
CIRCLE
  5
217
330
1F
100
AcDbEntity
  8
Engraving
100
AcDbCircle
 10
430.0
 20
45.49441987885689
 30
0.0035385952106566
 40
0.5
  0
CIRCLE
  5
218
330
1F
100
AcDbEntity
  8
Engraving
100
AcDbCircle
 10
430.0
 20
25.49441987885689
 30
0.0035385952104292
 40
0.5
  0
CIRCLE
  5
219
330
1F
100
AcDbEntity
  8
Engraving
100
AcDbCircle
 10
450.0
 20
25.49441987885689
 30
0.0035385952104292
 40
0.5
  0
CIRCLE
  5
21A
330
1F
100
AcDbEntity
  8
Engraving
100
AcDbCircle
 10
450.0
 20
45.49441987885689
 30
0.0035385952106566
 40
0.5
  0
CIRCLE
  5
21B
330
1F
100
AcDbEntity
  8
Engraving
100
AcDbCircle
 10
439.9999999999999
 20
35.49441987885673
 30
0.0035385952105429
 40
0.4999999999999289
  0
LINE
  5
21C
330
1F
100
AcDbEntity
  8
Engraving
100
AcDbLine
 10
420.0
 20
15.49441987885666
 30
0.0035385952104292
 11
460.0
 21
55.49441987885689
 31
0.0035385952106566
  0
CIRCLE
  5
21D
330
1F
100
AcDbEntity
  8
Engraving
100
AcDbCircle
 10
439.9999999999999
 20
35.49441987885677
 30
0.0035385952105429
 40
20.00000000000006
  0
CIRCLE
  5
21E
330
1F
100
AcDbEntity
  8
Engraving
100
AcDbCircle
 10
440.0000000000001
 20
35.49441987885683
 30
0.0035385952105429
 40
9.999999999999943
  0
LINE
  5
21F
330
1F
100
AcDbEntity
  8
Engraving
100
AcDbLine
 10
460.0
 20
15.49441987885666
 30
0.0035385952104292
 11
420.0
 21
55.49441987885689
 31
0.0035385952106566
  0
CIRCLE
  5
220
330
1F
100
AcDbEntity
  8
Engraving
100
AcDbCircle
 10
470.0
 20
5.494419878856888
 30
0.0035385952103155
 40
0.5
  0
CIRCLE
  5
221
330
1F
100
AcDbEntity
  8
Engraving
100
AcDbCircle
 10
430.0000000000001
 20
5.49441987885688
 30
0.0035385952103155
 40
0.500000000000008
  0
CIRCLE
  5
222
330
1F
100
AcDbEntity
  8
Engraving
100
AcDbCircle
 10
450.0000000000001
 20
5.494419878856831
 30
0.0035385952103155
 40
0.5000000000000568
  0
CIRCLE
  5
223
330
1F
100
AcDbEntity
  8
Engraving
100
AcDbCircle
 10
470.0
 20
45.49441987885689
 30
0.0035385952106566
 40
0.5
  0
CIRCLE
  5
224
330
1F
100
AcDbEntity
  8
Engraving
100
AcDbCircle
 10
470.0
 20
25.49441987885689
 30
0.0035385952104292
 40
0.5
  0
CIRCLE
  5
225
330
1F
100
AcDbEntity
  8
Engraving
100
AcDbCircle
 10
479.9999999999999
 20
35.49441987885673
 30
0.0035385952105429
 40
0.4999999999999289
  0
LINE
  5
226
330
1F
100
AcDbEntity
  8
Engraving
100
AcDbLine
 10
19.99999999999977
 20
175.494419878856
 30
0.0035385952111113
 11
0.0000005136605523
 21
195.4944193651952
 31
0.0035385952111113
  0
ARC
  5
227
330
1F
100
AcDbEntity
  8
Engraving
100
AcDbCircle
 10
0.0000000000002914
 20
155.494419878856
 30
0.0035385952107719
 40
19.99999999999969
100
AcDbArc
 50
270.0000014715283
 51
89.9999985284719
  0
LINE
  5
228
330
1F
100
AcDbEntity
  8
Engraving
100
AcDbLine
 10
0.0000005136605523
 20
155.4944193651954
 30
0.0035385952111113
 11
20.00000000000011
 21
135.494419878856
 31
0.003538595210884
  0
ARC
  5
229
330
1F
100
AcDbEntity
  8
Engraving
100
AcDbCircle
 10
0.0000000000001507
 20
155.4944198788561
 30
0.0035385952110932
 40
9.99999999999987
100
AcDbArc
 50
270.0000029430583
 51
90.00000000000217
  0
LINE
  5
22A
330
1F
100
AcDbEntity
  8
Engraving
100
AcDbLine
 10
19.99999999999977
 20
175.494419878856
 30
0.0035385952111113
 11
0.0000005136605523
 21
155.4944203925165
 31
0.0035385952111113
  0
LINE
  5
22B
330
1F
100
AcDbEntity
  8
Engraving
100
AcDbLine
 10
0.000000513660666
 20
115.4944193651954
 30
0.003538595210884
 11
20.00000000000011
 21
95.49441987885598
 31
0.003538595210884
  0
ARC
  5
22C
330
1F
100
AcDbEntity
  8
Engraving
100
AcDbCircle
 10
-0.0000000000002613
 20
115.4944198788558
 30
0.0035385952108607
 40
20.00000000000039
100
AcDbArc
 50
270.0000014715309
 51
89.99999852847016
  0
ARC
  5
22D
330
1F
100
AcDbEntity
  8
Engraving
100
AcDbCircle
 10
0.0000000000003316
 20
115.4944198788562
 30
0.0035385952108658
 40
9.999999999999785
100
AcDbArc
 50
270.0000029430573
 51
90.00000000000126
  0
LINE
  5
22E
330
1F
100
AcDbEntity
  8
Engraving
100
AcDbLine
 10
20.00000000000011
 20
135.494419878856
 30
0.003538595210884
 11
0.0000005136605523
 21
115.4944203925165
 31
0.003538595210884
  0
ARC
  5
22F
330
1F
100
AcDbEntity
  8
Engraving
100
AcDbCircle
 10
0.0000000000002512
 20
75.49441987885548
 30
0.0035385952107974
 40
19.99999999999986
100
AcDbArc
 50
270.0000014715287
 51
89.99999852847097
  0
LINE
  5
230
330
1F
100
AcDbEntity
  8
Engraving
100
AcDbLine
 10
0.000000513660666
 20
75.49441936519543
 30
0.0035385952106566
 11
20.00000000000011
 21
55.49441987885598
 31
0.0035385952106566
  0
ARC
  5
231
330
1F
100
AcDbEntity
  8
Engraving
100
AcDbCircle
 10
0.0000000000001105
 20
75.49441987885598
 30
0.0035385952107019
 40
9.999999999999998
100
AcDbArc
 50
270.000002943057
 51
89.99999999999999
  0
LINE
  5
232
330
1F
100
AcDbEntity
  8
Engraving
100
AcDbLine
 10
20.00000000000011
 20
95.49441987885598
 30
0.003538595210884
 11
0.0000005136605523
 21
75.49442039251653
 31
0.0035385952106566
  0
LINE
  5
233
330
1F
100
AcDbEntity
  8
Engraving
100
AcDbLine
 10
20.00000000000023
 20
15.49441987885575
 30
0.0035385952104292
 11
0.000000513660666
 21
35.49441936519565
 31
0.0035385952106566
  0
ARC
  5
234
330
1F
100
AcDbEntity
  8
Engraving
100
AcDbCircle
 10
-0.0000000000000377
 20
35.49441987885516
 30
0.0035385952106887
 40
20.00000000000026
100
AcDbArc
 50
270.0000014715305
 51
89.99999852847046
  0
ARC
  5
235
330
1F
100
AcDbEntity
  8
Engraving
100
AcDbCircle
 10
0.00000000000001
 20
35.49441987885619
 30
0.0035385952107472
 40
10.00000000000022
100
AcDbArc
 50
270.0000000000013
 51
89.99999705694182
  0
LINE
  5
236
330
1F
100
AcDbEntity
  8
Engraving
100
AcDbLine
 10
0.0000005136607797
 20
35.4944203925163
 30
0.0035385952104292
 11
20.00000000000011
 21
55.49441987885598
 31
0.0035385952106566
  0
LINE
  5
237
330
1F
100
AcDbEntity
  8
Engraving
100
AcDbLine
 10
459.9999999999998
 20
175.4944198788569
 30
0.0035385952111113
 11
479.9999994863388
 21
195.4944193651963
 31
0.0035385952111113
  0
LINE
  5
238
330
1F
100
AcDbEntity
  8
Engraving
100
AcDbLine
 10
479.9999994863388
 20
155.4944193651961
 30
0.0035385952111113
 11
459.9999999999998
 21
135.4944198788569
 31
0.0035385952111113
  0
ARC
  5
239
330
1F
100
AcDbEntity
  8
Engraving
100
AcDbCircle
 10
479.9999999999995
 20
155.4944198788566
 30
0.0035385952109738
 40
19.99999999999992
100
AcDbArc
 50
90.00000147152778
 51
269.9999985284714
  0
ARC
  5
23A
330
1F
100
AcDbEntity
  8
Engraving
100
AcDbCircle
 10
479.9999999999994
 20
155.4944198788571
 30
0.0035385952110711
 40
9.999999999999927
100
AcDbArc
 50
89.99999999999902
 51
269.9999970569431
  0
LINE
  5
23B
330
1F
100
AcDbEntity
  8
Engraving
100
AcDbLine
 10
479.9999994863388
 20
115.4944193651961
 30
0.003538595210884
 11
459.9999999999999
 21
95.49441987885689
 31
0.003538595210884
  0
LINE
  5
23C
330
1F
100
AcDbEntity
  8
Engraving
100
AcDbLine
 10
459.9999999999998
 20
175.4944198788569
 30
0.0035385952111113
 11
479.9999994863388
 21
155.4944203925177
 31
0.0035385952111113
  0
ARC
  5
23D
330
1F
100
AcDbEntity
  8
Engraving
100
AcDbCircle
 10
480.0000000000001
 20
115.4944198788566
 30
0.0035385952107934
 40
20.00000000000017
100
AcDbArc
 50
90.00000147153021
 51
269.9999985284701
  0
ARC
  5
23E
330
1F
100
AcDbEntity
  8
Engraving
100
AcDbCircle
 10
480.0000000000004
 20
115.4944198788567
 30
0.0035385952109615
 40
10.00000000000021
100
AcDbArc
 50
90.00000000000487
 51
269.9999970569386
  0
LINE
  5
23F
330
1F
100
AcDbEntity
  8
Engraving
100
AcDbLine
 10
459.9999999999998
 20
135.4944198788569
 30
0.0035385952111113
 11
479.9999994863388
 21
115.4944203925177
 31
0.003538595210884
  0
LINE
  5
240
330
1F
100
AcDbEntity
  8
Engraving
100
AcDbLine
 10
479.9999994863388
 20
75.49441936519611
 30
0.0035385952106566
 11
460.0
 21
55.49441987885689
 31
0.0035385952106566
  0
ARC
  5
241
330
1F
100
AcDbEntity
  8
Engraving
100
AcDbCircle
 10
479.9999999999998
 20
75.49441987885695
 30
0.0035385952105553
 40
20.00000000000002
100
AcDbArc
 50
90.00000147152957
 51
269.9999985284706
  0
LINE
  5
242
330
1F
100
AcDbEntity
  8
Engraving
100
AcDbLine
 10
459.9999999999999
 20
95.49441987885689
 30
0.003538595210884
 11
479.9999994863388
 21
75.49442039251767
 31
0.0035385952106566
  0
ARC
  5
243
330
1F
100
AcDbEntity
  8
Engraving
100
AcDbCircle
 10
480.0000000000003
 20
75.49441987885689
 30
0.0035385952107366
 40
10.0000000000001
100
AcDbArc
 50
90.00000000000423
 51
269.9999970569369
  0
LINE
  5
244
330
1F
100
AcDbEntity
  8
Engraving
100
AcDbLine
 10
460.0
 20
15.49441987885666
 30
0.0035385952104292
 11
479.9999994863392
 21
35.49441936519588
 31
0.0035385952104292
  0
ARC
  5
245
330
1F
100
AcDbEntity
  8
Engraving
100
AcDbCircle
 10
480.0000000000001
 20
35.49441987885683
 30
0.0035385952104944
 40
20.00000000000007
100
AcDbArc
 50
90.0000014715304
 51
269.9999985284696
  0
LINE
  5
246
330
1F
100
AcDbEntity
  8
Engraving
100
AcDbLine
 10
479.9999994863392
 20
35.49442039251767
 30
0.0035385952104292
 11
460.0
 21
55.49441987885689
 31
0.0035385952106566
  0
ARC
  5
247
330
1F
100
AcDbEntity
  8
Engraving
100
AcDbCircle
 10
480.0000000000002
 20
35.494419878857
 30
0.0035385952106368
 40
10.0000000000002
100
AcDbArc
 50
90.00000294306045
 51
269.999999999999
  0
ARC
  5
248
330
1F
100
AcDbEntity
  8
Engraving
100
AcDbCircle
 10
0.0000000000015943
 20
-4.505580121143228
 30
0.0035385952107653
 40
19.9999999999986
100
AcDbArc
 50
13.0192853226445
 51
89.9999985284748
  0
LINE
  5
249
330
1F
100
AcDbEntity
  8
Engraving
100
AcDbLine
 10
44.5055801426297
 20
0.0000000214854481
 30
0.0035385952104292
 11
60.00000000000023
 21
15.49441987885575
 31
0.0035385952104292
  0
ARC
  5
24A
330
1F
100
AcDbEntity
  8
Engraving
100
AcDbCircle
 10
40.00000000000015
 20
-4.505580121144134
 30
0.0035385952103601
 40
19.99999999999989
100
AcDbArc
 50
13.01928532264612
 51
166.980714677353
  0
LINE
  5
24B
330
1F
100
AcDbEntity
  8
Engraving
100
AcDbLine
 10
35.49441985737076
 20
0.0000000214854481
 30
0.0035385952104292
 11
20.00000000000023
 21
15.49441987885575
 31
0.0035385952104292
  0
ARC
  5
24C
330
1F
100
AcDbEntity
  8
Engraving
100
AcDbCircle
 10
40.00000000000026
 20
-4.505580121143729
 30
0.0035385952102661
 40
9.999999999999705
100
AcDbArc
 50
26.77949120326371
 51
153.2205087967347
  0
ARC
  5
24D
330
1F
100
AcDbEntity
  8
Engraving
100
AcDbCircle
 10
-0.0000000000005596
 20
-4.505580121144048
 30
0.0035385952109255
 40
10.00000000000047
100
AcDbArc
 50
26.77949120326686
 51
89.99999705693855
  0
LINE
  5
24E
330
1F
100
AcDbEntity
  8
Engraving
100
AcDbLine
 10
84.50558014262958
 20
0.0000000214854481
 30
0.0035385952104292
 11
100.0000000000002
 21
15.49441987885575
 31
0.0035385952104292
  0
ARC
  5
24F
330
1F
100
AcDbEntity
  8
Engraving
100
AcDbCircle
 10
80.0000000000003
 20
-4.505580121144471
 30
0.0035385952102024
 40
20.00000000000022
100
AcDbArc
 50
13.01928532264851
 51
166.9807146773535
  0
ARC
  5
250
330
1F
100
AcDbEntity
  8
Engraving
100
AcDbCircle
 10
80.00000000000031
 20
-4.505580121143739
 30
0.0035385952103816
 40
9.999999999999732
100
AcDbArc
 50
26.7794912032641
 51
153.2205087967363
  0
LINE
  5
251
330
1F
100
AcDbEntity
  8
Engraving
100
AcDbLine
 10
75.49441985737076
 20
0.0000000214854481
 30
0.0035385952104292
 11
60.00000000000023
 21
15.49441987885575
 31
0.0035385952104292
  0
ARC
  5
252
330
1F
100
AcDbEntity
  8
Engraving
100
AcDbCircle
 10
120.0000000000004
 20
-4.505580121144723
 30
0.0035385952102266
 40
20.00000000000049
100
AcDbArc
 50
13.01928532264893
 51
166.9807146773509
  0
LINE
  5
253
330
1F
100
AcDbEntity
  8
Engraving
100
AcDbLine
 10
124.5055801426295
 20
0.0000000214854481
 30
0.0035385952104292
 11
140.0000000000002
 21
15.49441987885621
 31
0.0035385952104292
  0
LINE
  5
254
330
1F
100
AcDbEntity
  8
Engraving
100
AcDbLine
 10
115.4944198573709
 20
0.0000000214854481
 30
0.0035385952102018
 11
100.0000000000002
 21
15.49441987885575
 31
0.0035385952104292
  0
LINE
  5
255
330
1F
100
AcDbEntity
  8
Engraving
100
AcDbLine
 10
164.5055801426294
 20
0.0000000214856755
 30
0.0035385952102018
 11
180.0000000000001
 21
15.49441987885621
 31
0.0035385952104292
  0
ARC
  5
256
330
1F
100
AcDbEntity
  8
Engraving
100
AcDbCircle
 10
160.0000000000005
 20
-4.505580121143983
 30
0.0035385952102542
 40
20.00000000000017
100
AcDbArc
 50
13.01928532264693
 51
166.9807146773531
  0
LINE
  5
257
330
1F
100
AcDbEntity
  8
Engraving
100
AcDbLine
 10
155.494419857371
 20
0.0000000214856755
 30
0.0035385952102018
 11
140.0000000000002
 21
15.49441987885621
 31
0.0035385952104292
  0
LINE
  5
258
330
1F
100
AcDbEntity
  8
Engraving
100
AcDbLine
 10
204.5055801426294
 20
0.0000000214856755
 30
0.0035385952102018
 11
220.0000000000001
 21
15.49441987885621
 31
0.0035385952104292
  0
ARC
  5
259
330
1F
100
AcDbEntity
  8
Engraving
100
AcDbCircle
 10
200.0000000000003
 20
-4.505580121143655
 30
0.0035385952104096
 40
19.99999999999984
100
AcDbArc
 50
13.01928532264655
 51
166.9807146773538
  0
LINE
  5
25A
330
1F
100
AcDbEntity
  8
Engraving
100
AcDbLine
 10
195.4944198573709
 20
0.0000000214856755
 30
0.0035385952102018
 11
180.0000000000001
 21
15.49441987885621
 31
0.0035385952104292
  0
LINE
  5
25B
330
1F
100
AcDbEntity
  8
Engraving
100
AcDbLine
 10
244.5055801426294
 20
0.0000000214856755
 30
0.0035385952102018
 11
260.0000000000002
 21
15.49441987885621
 31
0.0035385952104292
  0
ARC
  5
25C
330
1F
100
AcDbEntity
  8
Engraving
100
AcDbCircle
 10
240.0000000000003
 20
-4.505580121143963
 30
0.0035385952104843
 40
20.00000000000019
100
AcDbArc
 50
13.01928532264723
 51
166.9807146773541
  0
LINE
  5
25D
330
1F
100
AcDbEntity
  8
Engraving
100
AcDbLine
 10
235.4944198573709
 20
0.0000000214856755
 30
0.0035385952102018
 11
220.0000000000001
 21
15.49441987885621
 31
0.0035385952104292
  0
LINE
  5
25E
330
1F
100
AcDbEntity
  8
Engraving
100
AcDbLine
 10
284.5055801426294
 20
0.0000000214856755
 30
0.0035385952102018
 11
300.0000000000001
 21
15.49441987885621
 31
0.0035385952104292
  0
ARC
  5
25F
330
1F
100
AcDbEntity
  8
Engraving
100
AcDbCircle
 10
280.0000000000003
 20
-4.505580121143779
 30
0.0035385952101782
 40
20.00000000000002
100
AcDbArc
 50
13.01928532264517
 51
166.9807146773536
  0
LINE
  5
260
330
1F
100
AcDbEntity
  8
Engraving
100
AcDbLine
 10
275.494419857371
 20
0.0000000214856755
 30
0.0035385952102018
 11
260.0000000000002
 21
15.49441987885621
 31
0.0035385952104292
  0
LINE
  5
261
330
1F
100
AcDbEntity
  8
Engraving
100
AcDbLine
 10
324.5055801426294
 20
0.0000000214856755
 30
0.0035385952102018
 11
340.0000000000001
 21
15.49441987885621
 31
0.0035385952104292
  0
ARC
  5
262
330
1F
100
AcDbEntity
  8
Engraving
100
AcDbCircle
 10
320.0000000000001
 20
-4.505580121144244
 30
0.0035385952104913
 40
20.00000000000047
100
AcDbArc
 50
13.01928532264769
 51
166.9807146773534
  0
LINE
  5
263
330
1F
100
AcDbEntity
  8
Engraving
100
AcDbLine
 10
315.4944198573709
 20
0.0000000214856755
 30
0.0035385952102018
 11
300.0000000000001
 21
15.49441987885621
 31
0.0035385952104292
  0
LINE
  5
264
330
1F
100
AcDbEntity
  8
Engraving
100
AcDbLine
 10
364.5055801426294
 20
0.0000000214859028
 30
0.0035385952102018
 11
380.0000000000001
 21
15.49441987885643
 31
0.0035385952104292
  0
ARC
  5
265
330
1F
100
AcDbEntity
  8
Engraving
100
AcDbCircle
 10
360.0000000000002
 20
-4.505580121143527
 30
0.0035385952104165
 40
19.99999999999997
100
AcDbArc
 50
13.01928532264592
 51
166.9807146773535
  0
LINE
  5
266
330
1F
100
AcDbEntity
  8
Engraving
100
AcDbLine
 10
355.4944198573709
 20
0.0000000214859028
 30
0.0035385952102018
 11
340.0000000000001
 21
15.49441987885621
 31
0.0035385952104292
  0
ARC
  5
267
330
1F
100
AcDbEntity
  8
Engraving
100
AcDbCircle
 10
400.0000000000003
 20
-4.505580121143932
 30
0.0035385952101251
 40
20.00000000000028
100
AcDbArc
 50
13.01928532264834
 51
166.9807146773532
  0
LINE
  5
268
330
1F
100
AcDbEntity
  8
Engraving
100
AcDbLine
 10
404.5055801426291
 20
0.0000000214856755
 30
0.0035385952104292
 11
420.0
 21
15.49441987885666
 31
0.0035385952104292
  0
LINE
  5
269
330
1F
100
AcDbEntity
  8
Engraving
100
AcDbLine
 10
395.494419857371
 20
0.0000000214859028
 30
0.0035385952104292
 11
380.0000000000001
 21
15.49441987885643
 31
0.0035385952104292
  0
LINE
  5
26A
330
1F
100
AcDbEntity
  8
Engraving
100
AcDbLine
 10
444.505580142629
 20
0.0000000214859028
 30
0.0035385952104292
 11
460.0
 21
15.49441987885666
 31
0.0035385952104292
  0
ARC
  5
26B
330
1F
100
AcDbEntity
  8
Engraving
100
AcDbCircle
 10
440.0000000000001
 20
-4.505580121143491
 30
0.0035385952102999
 40
20.00000000000017
100
AcDbArc
 50
13.01928532264656
 51
166.9807146773538
  0
LINE
  5
26C
330
1F
100
AcDbEntity
  8
Engraving
100
AcDbLine
 10
435.4944198573711
 20
0.0000000214859028
 30
0.0035385952104292
 11
420.0
 21
15.49441987885666
 31
0.0035385952104292
  0
ARC
  5
26D
330
1F
100
AcDbEntity
  8
Engraving
100
AcDbCircle
 10
479.9999999999995
 20
-4.50558012114283
 30
0.0035385952097056
 40
19.99999999999995
100
AcDbArc
 50
90.0000014715286
 51
166.980714677355
  0
ARC
  5
26E
330
1F
100
AcDbEntity
  8
Engraving
100
AcDbCircle
 10
479.9999999999997
 20
-4.505580121142992
 30
0.0035385952107602
 40
9.999999999999844
100
AcDbArc
 50
90.00000294305622
 51
153.2205087967356
  0
ARC
  5
26F
330
1F
100
AcDbEntity
  8
Engraving
100
AcDbCircle
 10
440.0000000000001
 20
-4.505580121143442
 30
0.0035385952101853
 40
10.00000000000034
100
AcDbArc
 50
26.77949120326919
 51
153.2205087967305
  0
ARC
  5
270
330
1F
100
AcDbEntity
  8
Engraving
100
AcDbCircle
 10
400.0000000000002
 20
-4.505580121143026
 30
0.0035385952102555
 40
9.999999999999973
100
AcDbArc
 50
26.77949120326423
 51
153.2205087967378
  0
ARC
  5
271
330
1F
100
AcDbEntity
  8
Engraving
100
AcDbCircle
 10
359.9999999999999
 20
-4.50558012114328
 30
0.0035385952104175
 40
10.00000000000002
100
AcDbArc
 50
26.77949120326286
 51
153.2205087967351
  0
ARC
  5
272
330
1F
100
AcDbEntity
  8
Engraving
100
AcDbCircle
 10
320.0000000000002
 20
-4.505580121143432
 30
0.003538595210645
 40
9.999999999999872
100
AcDbArc
 50
26.77949120326611
 51
153.2205087967383
  0
ARC
  5
273
330
1F
100
AcDbEntity
  8
Engraving
100
AcDbCircle
 10
280.0000000000001
 20
-4.505580121143441
 30
0.0035385952102966
 40
9.999999999999842
100
AcDbArc
 50
26.77949120326423
 51
153.2205087967336
  0
ARC
  5
274
330
1F
100
AcDbEntity
  8
Engraving
100
AcDbCircle
 10
240.0000000000002
 20
-4.505580121143042
 30
0.0035385952103
 40
9.999999999999462
100
AcDbArc
 50
26.77949120326242
 51
153.2205087967375
  0
ARC
  5
275
330
1F
100
AcDbEntity
  8
Engraving
100
AcDbCircle
 10
200.0000000000002
 20
-4.505580121143504
 30
0.0035385952107437
 40
9.999999999999915
100
AcDbArc
 50
26.77949120326609
 51
153.2205087967367
  0
ARC
  5
276
330
1F
100
AcDbEntity
  8
Engraving
100
AcDbCircle
 10
120.0000000000001
 20
-4.505580121143852
 30
0.0035385952105264
 40
9.999999999999826
100
AcDbArc
 50
26.77949120326247
 51
153.2205087967326
  0
ARC
  5
277
330
1F
100
AcDbEntity
  8
Engraving
100
AcDbCircle
 10
160.0000000000003
 20
-4.505580121142988
 30
0.0035385952107438
 40
9.999999999999416
100
AcDbArc
 50
26.77949120325978
 51
153.2205087967401
  0
LINE
  5
278
330
1F
100
AcDbEntity
  8
Engraving
100
AcDbLine
 10
460.0
 20
15.49441987885666
 30
0.0035385952104292
 11
470.0
 21
5.494419878856888
 31
0.0035385952102018
  0
LINE
  5
279
330
1F
100
AcDbEntity
  8
Engraving
100
AcDbLine
 10
19.99999999999989
 20
15.49441987885621
 30
0.0035385952104292
 11
9.999999999999886
 21
5.494419878856434
 31
0.0035385952102018
  0
LINE
  5
27A
330
1F
100
AcDbEntity
  8
Engraving
100
AcDbLine
 10
19.99999999999977
 20
175.494419878856
 30
0.0035385952111113
 11
49.8211130998335
 21
205.3155329786896
 31
0.0035385952113387
  0
LINE
  5
27B
330
1F
100
AcDbEntity
  8
Engraving
100
AcDbLine
 10
379.9999999999998
 20
175.4944198788567
 30
0.0035385952111113
 11
409.821113099833
 21
205.31553297869
 31
0.0035385952113387
  0
LINE
  5
27C
330
1F
100
AcDbEntity
  8
Engraving
100
AcDbLine
 10
479.9999994863388
 20
195.4944203925177
 30
0.0035385952111113
 11
470.1788869001662
 21
205.31553297869
 31
0.0035385952111113
  0
LINE
  5
27D
330
1F
100
AcDbEntity
  8
Engraving
100
AcDbLine
 10
419.9999999999998
 20
175.4944198788569
 30
0.0035385952111113
 11
449.8211130998329
 21
205.31553297869
 31
0.0035385952113387
  0
LINE
  5
27E
330
1F
100
AcDbEntity
  8
Engraving
100
AcDbLine
 10
459.9999999999998
 20
175.4944198788569
 30
0.0035385952111113
 11
430.1788869001664
 21
205.31553297869
 31
0.0035385952113387
  0
LINE
  5
27F
330
1F
100
AcDbEntity
  8
Engraving
100
AcDbLine
 10
179.9999999999998
 20
175.4944198788564
 30
0.003538595210884
 11
150.178886900166
 21
205.3155329786898
 31
0.0035385952111113
  0
LINE
  5
280
330
1F
100
AcDbEntity
  8
Engraving
100
AcDbLine
 10
0.0000005136605523
 20
195.4944203925168
 30
0.0035385952111113
 11
9.821113099833497
 21
205.3155329786896
 31
0.0035385952111113
  0
LINE
  5
281
330
1F
100
AcDbEntity
  8
Engraving
100
AcDbLine
 10
99.99999999999977
 20
175.494419878856
 30
0.0035385952111113
 11
129.8211130998335
 21
205.3155329786898
 31
0.0035385952111113
  0
LINE
  5
282
330
1F
100
AcDbEntity
  8
Engraving
100
AcDbLine
 10
139.9999999999998
 20
175.4944198788562
 30
0.0035385952111113
 11
110.178886900166
 21
205.3155329786896
 31
0.0035385952111113
  0
LINE
  5
283
330
1F
100
AcDbEntity
  8
Engraving
100
AcDbLine
 10
59.99999999999977
 20
175.494419878856
 30
0.0035385952111113
 11
89.8211130998335
 21
205.3155329786896
 31
0.0035385952111113
  0
LINE
  5
284
330
1F
100
AcDbEntity
  8
Engraving
100
AcDbLine
 10
99.99999999999977
 20
175.494419878856
 30
0.0035385952111113
 11
70.17888690016605
 21
205.3155329786896
 31
0.0035385952111113
  0
LINE
  5
285
330
1F
100
AcDbEntity
  8
Engraving
100
AcDbLine
 10
59.99999999999977
 20
175.494419878856
 30
0.0035385952111113
 11
30.17888690016605
 21
205.3155329786896
 31
0.0035385952111113
  0
LINE
  5
286
330
1F
100
AcDbEntity
  8
Engraving
100
AcDbLine
 10
419.9999999999998
 20
175.4944198788569
 30
0.0035385952111113
 11
390.1788869001663
 21
205.31553297869
 31
0.0035385952111113
  0
LINE
  5
287
330
1F
100
AcDbEntity
  8
Engraving
100
AcDbLine
 10
339.9999999999998
 20
175.4944198788564
 30
0.0035385952111113
 11
369.8211130998332
 21
205.31553297869
 31
0.0035385952111113
  0
LINE
  5
288
330
1F
100
AcDbEntity
  8
Engraving
100
AcDbLine
 10
379.9999999999998
 20
175.4944198788567
 30
0.0035385952111113
 11
350.1788869001663
 21
205.31553297869
 31
0.0035385952111113
  0
LINE
  5
289
330
1F
100
AcDbEntity
  8
Engraving
100
AcDbLine
 10
299.9999999999998
 20
175.4944198788564
 30
0.0035385952111113
 11
329.8211130998333
 21
205.3155329786898
 31
0.0035385952111113
  0
LINE
  5
28A
330
1F
100
AcDbEntity
  8
Engraving
100
AcDbLine
 10
339.9999999999998
 20
175.4944198788564
 30
0.0035385952111113
 11
310.1788869001663
 21
205.3155329786898
 31
0.0035385952111113
  0
LINE
  5
28B
330
1F
100
AcDbEntity
  8
Engraving
100
AcDbLine
 10
259.9999999999998
 20
175.4944198788564
 30
0.0035385952111113
 11
289.8211130998333
 21
205.3155329786898
 31
0.0035385952111113
  0
LINE
  5
28C
330
1F
100
AcDbEntity
  8
Engraving
100
AcDbLine
 10
299.9999999999998
 20
175.4944198788564
 30
0.0035385952111113
 11
270.1788869001663
 21
205.3155329786898
 31
0.0035385952111113
  0
LINE
  5
28D
330
1F
100
AcDbEntity
  8
Engraving
100
AcDbLine
 10
219.9999999999998
 20
175.4944198788564
 30
0.0035385952111113
 11
249.8211130998333
 21
205.3155329786898
 31
0.0035385952111113
  0
LINE
  5
28E
330
1F
100
AcDbEntity
  8
Engraving
100
AcDbLine
 10
259.9999999999998
 20
175.4944198788564
 30
0.0035385952111113
 11
230.1788869001663
 21
205.3155329786898
 31
0.0035385952111113
  0
LINE
  5
28F
330
1F
100
AcDbEntity
  8
Engraving
100
AcDbLine
 10
179.9999999999998
 20
175.4944198788564
 30
0.003538595210884
 11
209.8211130998333
 21
205.3155329786898
 31
0.0035385952111113
  0
LINE
  5
290
330
1F
100
AcDbEntity
  8
Engraving
100
AcDbLine
 10
219.9999999999998
 20
175.4944198788564
 30
0.0035385952111113
 11
190.1788869001663
 21
205.3155329786898
 31
0.0035385952111113
  0
LINE
  5
291
330
1F
100
AcDbEntity
  8
Engraving
100
AcDbLine
 10
139.9999999999998
 20
175.4944198788562
 30
0.0035385952111113
 11
169.8211130998333
 21
205.3155329786898
 31
0.0035385952111113
  0
ARC
  5
292
330
1F
100
AcDbEntity
  8
Engraving
100
AcDbCircle
 10
479.9999999999997
 20
195.4944198788569
 30
0.0035385952112268
 40
20.00000000000017
100
AcDbArc
 50
150.5900096448461
 51
269.9999985284703
  0
ARC
  5
293
330
1F
100
AcDbEntity
  8
Engraving
100
AcDbCircle
 10
-0.0000000000001671
 20
195.4944198788559
 30
0.0035385952109977
 40
19.99999999999992
100
AcDbArc
 50
270.0000014715286
 51
0.0000000000001628
  0
ARC
  5
294
330
1F
100
AcDbEntity
  8
Engraving
100
AcDbCircle
 10
439.9999999999997
 20
195.4944198788568
 30
0.0035385952111113
 40
19.99999999999994
100
AcDbArc
 50
179.9999999999998
 51
0.0000000000001628
  0
ARC
  5
295
330
1F
100
AcDbEntity
  8
Engraving
100
AcDbCircle
 10
399.9999999999998
 20
195.4944198788569
 30
0.0035385952111113
 40
20.0
100
AcDbArc
 50
180.0000000000007
 51
359.9999999999999
  0
ARC
  5
296
330
1F
100
AcDbEntity
  8
Engraving
100
AcDbCircle
 10
359.9999999999998
 20
195.4944198788567
 30
0.0035385952111113
 40
20.0
100
AcDbArc
 50
180.0000000000007
 51
359.9999999999999
  0
ARC
  5
297
330
1F
100
AcDbEntity
  8
Engraving
100
AcDbCircle
 10
239.9999999999998
 20
195.4944198788565
 30
0.0035385952111113
 40
20.00000000000003
100
AcDbArc
 50
180.0000000000001
 51
359.9999999999999
  0
ARC
  5
298
330
1F
100
AcDbEntity
  8
Engraving
100
AcDbCircle
 10
319.9999999999997
 20
195.4944198788564
 30
0.0035385952111113
 40
19.99999999999994
100
AcDbArc
 50
179.9999999999999
 51
0.0000000000000814
  0
ARC
  5
299
330
1F
100
AcDbEntity
  8
Engraving
100
AcDbCircle
 10
279.9999999999997
 20
195.4944198788564
 30
0.0035385952111113
 40
19.99999999999994
100
AcDbArc
 50
179.9999999999999
 51
0.0000000000000814
  0
ARC
  5
29A
330
1F
100
AcDbEntity
  8
Engraving
100
AcDbCircle
 10
199.9999999999998
 20
195.4944198788563
 30
0.0035385952110298
 40
20.00000000000007
100
AcDbArc
 50
150.5900096448443
 51
0.0000000000004071
  0
ARC
  5
29B
330
1F
100
AcDbEntity
  8
Engraving
100
AcDbCircle
 10
79.99999999999977
 20
195.494419878856
 30
0.0035385952111113
 40
20.0
100
AcDbArc
 50
180.0
 51
0.0
  0
ARC
  5
29C
330
1F
100
AcDbEntity
  8
Engraving
100
AcDbCircle
 10
39.99999999999977
 20
195.494419878856
 30
0.0035385952111113
 40
19.99999999999999
100
AcDbArc
 50
180.0000000000001
 51
359.9999999999999
  0
ARC
  5
29D
330
1F
100
AcDbEntity
  8
Engraving
100
AcDbCircle
 10
119.9999999999997
 20
195.494419878856
 30
0.0035385952111113
 40
20.00000000000004
100
AcDbArc
 50
180.0
 51
0.0000000000006514
  0
ARC
  5
29E
330
1F
100
AcDbEntity
  8
Engraving
100
AcDbCircle
 10
159.9999999999998
 20
195.4944198788562
 30
0.0035385952111113
 40
20.0
100
AcDbArc
 50
180.0
 51
0.0000000000006514
  0
ARC
  5
29F
330
1F
100
AcDbEntity
  8
Engraving
100
AcDbCircle
 10
479.9999999999991
 20
195.4944198788567
 30
0.0035385952110862
 40
9.999999999999645
100
AcDbArc
 50
135.0000017240022
 51
270.0000000000023
  0
ARC
  5
2A0
330
1F
100
AcDbEntity
  8
Engraving
100
AcDbCircle
 10
439.9999999999996
 20
195.4944198788572
 30
0.0035385952111916
 40
9.999999999999961
100
AcDbArc
 50
135.0000000000002
 51
44.99999999999942
  0
ARC
  5
2A1
330
1F
100
AcDbEntity
  8
Engraving
100
AcDbCircle
 10
279.9999999999998
 20
195.4944198788565
 30
0.0035385952110356
 40
10.00000000000022
100
AcDbArc
 50
134.9999999999986
 51
45.00000000000127
  0
ARC
  5
2A2
330
1F
100
AcDbEntity
  8
Engraving
100
AcDbCircle
 10
239.9999999999999
 20
195.4944198788565
 30
0.0035385952110746
 40
10.00000000000008
100
AcDbArc
 50
134.9999999999998
 51
45.00000000000024
  0
ARC
  5
2A3
330
1F
100
AcDbEntity
  8
Engraving
100
AcDbCircle
 10
199.9999999999999
 20
195.4944198788565
 30
0.0035385952110746
 40
10.00000000000004
100
AcDbArc
 50
135.0000000000002
 51
45.00000000000023
  0
ARC
  5
2A4
330
1F
100
AcDbEntity
  8
Engraving
100
AcDbCircle
 10
159.9999999999999
 20
195.4944198788565
 30
0.0035385952110356
 40
10.0000000000001
100
AcDbArc
 50
134.9999999999999
 51
45.00000000000035
  0
ARC
  5
2A5
330
1F
100
AcDbEntity
  8
Engraving
100
AcDbCircle
 10
120.0
 20
195.4944198788561
 30
0.0035385952110356
 40
10.00000000000013
100
AcDbArc
 50
134.9999999999991
 51
45.00000000000041
  0
ARC
  5
2A6
330
1F
100
AcDbEntity
  8
Engraving
100
AcDbCircle
 10
79.9999999999999
 20
195.4944198788561
 30
0.0035385952110356
 40
10.00000000000009
100
AcDbArc
 50
134.9999999999989
 51
45.00000000000081
  0
ARC
  5
2A7
330
1F
100
AcDbEntity
  8
Engraving
100
AcDbCircle
 10
399.9999999999998
 20
195.4944198788569
 30
0.0035385952111916
 40
10.00000000000016
100
AcDbArc
 50
134.9999999999992
 51
45.00000000000092
  0
ARC
  5
2A8
330
1F
100
AcDbEntity
  8
Engraving
100
AcDbCircle
 10
359.9999999999997
 20
195.4944198788569
 30
0.0035385952111916
 40
10.00000000000016
100
AcDbArc
 50
134.9999999999987
 51
45.00000000000092
  0
ARC
  5
2A9
330
1F
100
AcDbEntity
  8
Engraving
100
AcDbCircle
 10
319.9999999999998
 20
195.4944198788568
 30
0.0035385952111916
 40
10.00000000000022
100
AcDbArc
 50
134.9999999999989
 51
45.00000000000173
  0
ARC
  5
2AA
330
1F
100
AcDbEntity
  8
Engraving
100
AcDbCircle
 10
39.9999999999998
 20
195.4944198788561
 30
0.0035385952110356
 40
10.00000000000014
100
AcDbArc
 50
134.9999999999989
 51
45.00000000000107
  0
ARC
  5
2AB
330
1F
100
AcDbEntity
  8
Engraving
100
AcDbCircle
 10
-0.0000000000002561
 20
195.4944198788561
 30
0.0035385952113331
 40
10.00000000000019
100
AcDbArc
 50
270.0000000000002
 51
44.99999827599466
  0
ENDSEC
  0
SECTION
  2
OBJECTS
  0
DICTIONARY
  5
C
330
0
100
AcDbDictionary
281
     1
  3
ACAD_GROUP
350
D
  3
ACAD_LAYOUT
350
1A
  3
ACAD_MATERIAL
350
3B
  3
ACAD_MLEADERSTYLE
350
2D3
  3
ACAD_MLINESTYLE
350
17
  3
ACAD_PLOTSETTINGS
350
19
  3
ACAD_PLOTSTYLENAME
350
E
  3
ACAD_TABLESTYLE
350
2D2
  3
ACAD_VISUALSTYLE
350
2A
  0
DICTIONARY
  5
D
102
{ACAD_REACTORS
330
C
102
}
330
C
100
AcDbDictionary
281
     1
  0
DICTIONARY
  5
1A
102
{ACAD_REACTORS
330
C
102
}
330
C
100
AcDbDictionary
281
     1
  3
Layout1
350
1E
  3
Layout2
350
26
  3
Model
350
22
  0
DICTIONARY
  5
3B
102
{ACAD_REACTORS
330
C
102
}
330
C
100
AcDbDictionary
281
     1
  3
ByBlock
350
3D
  3
ByLayer
350
3C
  3
Global
350
3E
  0
DICTIONARY
  5
2D3
102
{ACAD_REACTORS
330
C
102
}
330
C
100
AcDbDictionary
281
     1
  0
DICTIONARY
  5
17
102
{ACAD_REACTORS
330
C
102
}
330
C
100
AcDbDictionary
281
     1
  3
Standard
350
18
  0
DICTIONARY
  5
19
102
{ACAD_REACTORS
330
C
102
}
330
C
100
AcDbDictionary
281
     1
  0
ACDBDICTIONARYWDFLT
  5
E
102
{ACAD_REACTORS
330
C
102
}
330
C
100
AcDbDictionary
281
     1
  3
Normal
350
F
100
AcDbDictionaryWithDefault
340
F
  0
DICTIONARY
  5
2D2
102
{ACAD_REACTORS
330
C
102
}
330
C
100
AcDbDictionary
281
     1
  0
DICTIONARY
  5
2A
102
{ACAD_REACTORS
330
C
102
}
330
C
100
AcDbDictionary
281
     1
  3
2dWireframe
350
2F
  3
3D Hidden
350
31
  3
3dWireframe
350
30
  3
Basic
350
32
  3
Brighten
350
36
  3
ColorChange
350
3A
  3
Conceptual
350
34
  3
Dim
350
35
  3
Facepattern
350
39
  3
Flat
350
2B
  3
FlatWithEdges
350
2C
  3
Gouraud
350
2D
  3
GouraudWithEdges
350
2E
  3
Linepattern
350
38
  3
Realistic
350
33
  3
Thicken
350
37
  0
LAYOUT
  5
1E
102
{ACAD_REACTORS
330
1A
102
}
330
1A
100
AcDbPlotSettings
  1

  2
none_device
  4

  6

 40
0.0
 41
0.0
 42
0.0
 43
0.0
 44
0.0
 45
0.0
 46
0.0
 47
0.0
 48
0.0
 49
0.0
140
0.0
141
0.0
142
1.0
143
1.0
 70
   688
 72
     0
 73
     0
 74
     5
  7

 75
    16
 76
     0
 77
     2
 78
   300
147
1.0
148
0.0
149
0.0
100
AcDbLayout
  1
Layout1
 70
     1
 71
     1
 10
0.0
 20
0.0
 11
12.0
 21
9.0
 12
0.0
 22
0.0
 32
0.0
 14
1.000000000000000E+20
 24
1.000000000000000E+20
 34
1.000000000000000E+20
 15
-1.000000000000000E+20
 25
-1.000000000000000E+20
 35
-1.000000000000000E+20
146
0.0
 13
0.0
 23
0.0
 33
0.0
 16
1.0
 26
0.0
 36
0.0
 17
0.0
 27
1.0
 37
0.0
 76
     0
330
1B
  0
LAYOUT
  5
26
102
{ACAD_REACTORS
330
1A
102
}
330
1A
100
AcDbPlotSettings
  1

  2
none_device
  4

  6

 40
0.0
 41
0.0
 42
0.0
 43
0.0
 44
0.0
 45
0.0
 46
0.0
 47
0.0
 48
0.0
 49
0.0
140
0.0
141
0.0
142
1.0
143
1.0
 70
   688
 72
     0
 73
     0
 74
     5
  7

 75
    16
 76
     0
 77
     2
 78
   300
147
1.0
148
0.0
149
0.0
100
AcDbLayout
  1
Layout2
 70
     1
 71
     2
 10
0.0
 20
0.0
 11
0.0
 21
0.0
 12
0.0
 22
0.0
 32
0.0
 14
0.0
 24
0.0
 34
0.0
 15
0.0
 25
0.0
 35
0.0
146
0.0
 13
0.0
 23
0.0
 33
0.0
 16
1.0
 26
0.0
 36
0.0
 17
0.0
 27
1.0
 37
0.0
 76
     0
330
23
  0
LAYOUT
  5
22
102
{ACAD_REACTORS
330
1A
102
}
330
1A
100
AcDbPlotSettings
  1

  2
none_device
  4

  6

 40
0.0
 41
0.0
 42
0.0
 43
0.0
 44
0.0
 45
0.0
 46
0.0
 47
0.0
 48
0.0
 49
0.0
140
0.0
141
0.0
142
1.0
143
1.0
 70
  1712
 72
     0
 73
     0
 74
     0
  7

 75
     0
 76
     0
 77
     2
 78
   300
147
1.0
148
0.0
149
0.0
100
AcDbLayout
  1
Model
 70
     1
 71
     0
 10
0.0
 20
0.0
 11
12.0
 21
9.0
 12
0.0
 22
0.0
 32
0.0
 14
-0.500000000000221
 24
0.0000000000000001
 34
0.0
 15
480.4999999999999
 25
209.9998052437932
 35
0.0035385952114519
146
0.0
 13
0.0
 23
0.0
 33
0.0
 16
1.0
 26
0.0
 36
0.0
 17
0.0
 27
1.0
 37
0.0
 76
     0
330
1F
331
29
  0
MATERIAL
  5
3D
102
{ACAD_REACTORS
330
3B
102
}
102
{ACAD_XDICTIONARY
360
2CE
102
}
330
3B
100
AcDbMaterial
  1
ByBlock
  0
MATERIAL
  5
3C
102
{ACAD_REACTORS
330
3B
102
}
102
{ACAD_XDICTIONARY
360
2CC
102
}
330
3B
100
AcDbMaterial
  1
ByLayer
  0
MATERIAL
  5
3E
102
{ACAD_REACTORS
330
3B
102
}
102
{ACAD_XDICTIONARY
360
2D0
102
}
330
3B
100
AcDbMaterial
  1
Global
  0
MLINESTYLE
  5
18
102
{ACAD_REACTORS
330
17
102
}
330
17
100
AcDbMlineStyle
  2
Standard
 70
     0
  3

 62
   256
 51
90.0
 52
90.0
 71
     2
 49
0.5
 62
   256
  6
BYLAYER
 49
-0.5
 62
   256
  6
BYLAYER
  0
ACDBPLACEHOLDER
  5
F
102
{ACAD_REACTORS
330
E
102
}
330
E
  0
VISUALSTYLE
  5
2F
102
{ACAD_REACTORS
330
2A
102
}
102
{ACAD_XDICTIONARY
360
2B4
102
}
330
2A
100
AcDbVisualStyle
  2
2dWireframe
 70
     4
 71
     0
 72
     2
 73
     0
 90
        0
 40
-0.6
 41
-30.0
 62
     5
 63
     7
421
 16777215
 74
     1
 91
        4
 64
     7
 65
   257
 75
     1
175
     1
 42
1.0
 92
        0
 66
   257
 43
1.0
 76
     1
 77
     6
 78
     2
 67
     7
 79
     5
170
     0
171
     0
290
     0
174
     0
 93
        1
 44
0.0
173
     0
291
     0
 45
0.0
1001
ACAD
1000
AcDbSavedByObjectVersion
1070
     0
  0
VISUALSTYLE
  5
31
102
{ACAD_REACTORS
330
2A
102
}
102
{ACAD_XDICTIONARY
360
2B8
102
}
330
2A
100
AcDbVisualStyle
  2
3D Hidden
 70
     6
 71
     1
 72
     2
 73
     2
 90
        0
 40
-0.6
 41
-30.0
 62
     5
 63
     7
421
 16777215
 74
     2
 91
        2
 64
     7
 65
   257
 75
     2
175
     1
 42
40.0
 92
        0
 66
   257
 43
1.0
 76
     1
 77
     6
 78
     2
 67
     7
 79
     3
170
     0
171
     0
290
     0
174
     0
 93
        1
 44
0.0
173
     0
291
     0
 45
0.0
1001
ACAD
1000
AcDbSavedByObjectVersion
1070
     0
  0
VISUALSTYLE
  5
30
102
{ACAD_REACTORS
330
2A
102
}
102
{ACAD_XDICTIONARY
360
2B6
102
}
330
2A
100
AcDbVisualStyle
  2
3dWireframe
 70
     5
 71
     0
 72
     2
 73
     0
 90
        0
 40
-0.6
 41
-30.0
 62
     5
 63
     7
421
 16777215
 74
     1
 91
        4
 64
     7
 65
   257
 75
     1
175
     1
 42
1.0
 92
        0
 66
   257
 43
1.0
 76
     1
 77
     6
 78
     2
 67
     7
 79
     5
170
     0
171
     0
290
     0
174
     0
 93
        1
 44
0.0
173
     0
291
     0
 45
0.0
1001
ACAD
1000
AcDbSavedByObjectVersion
1070
     0
  0
VISUALSTYLE
  5
32
102
{ACAD_REACTORS
330
2A
102
}
102
{ACAD_XDICTIONARY
360
2BA
102
}
330
2A
100
AcDbVisualStyle
  2
Basic
 70
     7
 71
     1
 72
     0
 73
     1
 90
        0
 40
-0.6
 41
-30.0
 62
     5
 63
     7
421
 16777215
 74
     0
 91
        4
 64
     7
 65
   257
 75
     1
175
     1
 42
1.0
 92
        8
 66
     7
 43
1.0
 76
     1
 77
     6
 78
     2
 67
     7
 79
     5
170
     0
171
     0
290
     0
174
     0
 93
        1
 44
0.0
173
     0
291
     1
 45
0.0
1001
ACAD
1000
AcDbSavedByObjectVersion
1070
     0
  0
VISUALSTYLE
  5
36
102
{ACAD_REACTORS
330
2A
102
}
102
{ACAD_XDICTIONARY
360
2C2
102
}
330
2A
100
AcDbVisualStyle
  2
Brighten
 70
    12
 71
     2
 72
     2
 73
     0
 90
        0
 40
-0.6
 41
-30.0
 62
     5
 63
     7
421
 16777215
 74
     1
 91
        4
 64
     7
 65
   257
 75
     1
175
     1
 42
1.0
 92
        8
 66
     7
 43
1.0
 76
     1
 77
     6
 78
     2
 67
     7
 79
     5
170
     0
171
     0
290
     0
174
     0
 93
        1
 44
50.0
173
     0
291
     1
 45
0.0
1001
ACAD
1000
AcDbSavedByObjectVersion
1070
     0
  0
VISUALSTYLE
  5
3A
102
{ACAD_REACTORS
330
2A
102
}
102
{ACAD_XDICTIONARY
360
2CA
102
}
330
2A
100
AcDbVisualStyle
  2
ColorChange
 70
    16
 71
     2
 72
     2
 73
     3
 90
        0
 40
-0.6
 41
-30.0
 62
     5
 63
     8
421
  8421504
 74
     1
 91
        4
 64
     7
 65
   257
 75
     1
175
     1
 42
1.0
 92
        8
 66
     8
424
  8421504
 43
1.0
 76
     1
 77
     6
 78
     2
 67
     7
 79
     5
170
     0
171
     0
290
     0
174
     0
 93
        1
 44
0.0
173
     0
291
     1
 45
0.0
1001
ACAD
1000
AcDbSavedByObjectVersion
1070
     0
  0
VISUALSTYLE
  5
34
102
{ACAD_REACTORS
330
2A
102
}
102
{ACAD_XDICTIONARY
360
2BE
102
}
330
2A
100
AcDbVisualStyle
  2
Conceptual
 70
     9
 71
     3
 72
     2
 73
     0
 90
        0
 40
-0.6
 41
-30.0
 62
     5
 63
     7
421
 16777215
 74
     2
 91
        2
 64
     7
 65
   257
 75
     1
175
     1
 42
40.0
 92
        8
 66
     7
 43
1.0
 76
     1
 77
     6
 78
     2
 67
     7
 79
     3
170
     0
171
     0
290
     0
174
     0
 93
        1
 44
0.0
173
     0
291
     0
 45
0.0
1001
ACAD
1000
AcDbSavedByObjectVersion
1070
     0
  0
VISUALSTYLE
  5
35
102
{ACAD_REACTORS
330
2A
102
}
102
{ACAD_XDICTIONARY
360
2C0
102
}
330
2A
100
AcDbVisualStyle
  2
Dim
 70
    11
 71
     2
 72
     2
 73
     0
 90
        0
 40
-0.6
 41
-30.0
 62
     5
 63
     7
421
 16777215
 74
     1
 91
        4
 64
     7
 65
   257
 75
     1
175
     1
 42
1.0
 92
        8
 66
     7
 43
1.0
 76
     1
 77
     6
 78
     2
 67
     7
 79
     5
170
     0
171
     0
290
     0
174
     0
 93
        1
 44
-50.0
173
     0
291
     1
 45
0.0
1001
ACAD
1000
AcDbSavedByObjectVersion
1070
     0
  0
VISUALSTYLE
  5
39
102
{ACAD_REACTORS
330
2A
102
}
102
{ACAD_XDICTIONARY
360
2C8
102
}
330
2A
100
AcDbVisualStyle
  2
Facepattern
 70
    15
 71
     2
 72
     2
 73
     0
 90
        0
 40
-0.6
 41
-30.0
 62
     5
 63
     7
421
 16777215
 74
     1
 91
        4
 64
     7
 65
   257
 75
     1
175
     1
 42
1.0
 92
        8
 66
     7
 43
1.0
 76
     1
 77
     6
 78
     2
 67
     7
 79
     5
170
     0
171
     0
290
     0
174
     0
 93
        1
 44
0.0
173
     0
291
     1
 45
0.0
1001
ACAD
1000
AcDbSavedByObjectVersion
1070
     0
  0
VISUALSTYLE
  5
2B
102
{ACAD_REACTORS
330
2A
102
}
102
{ACAD_XDICTIONARY
360
2AC
102
}
330
2A
100
AcDbVisualStyle
  2
Flat
 70
     0
 71
     2
 72
     1
 73
     1
 90
        2
 40
-0.6
 41
30.0
 62
     5
 63
     7
421
 16777215
 74
     0
 91
        4
 64
     7
 65
   257
 75
     1
175
     1
 42
1.0
 92
        8
 66
     7
 43
1.0
 76
     1
 77
     6
 78
     2
 67
     7
 79
     5
170
     0
171
     0
290
     0
174
     0
 93
       13
 44
0.0
173
     0
291
     1
 45
0.0
1001
ACAD
1000
AcDbSavedByObjectVersion
1070
     0
  0
VISUALSTYLE
  5
2C
102
{ACAD_REACTORS
330
2A
102
}
102
{ACAD_XDICTIONARY
360
2AE
102
}
330
2A
100
AcDbVisualStyle
  2
FlatWithEdges
 70
     1
 71
     2
 72
     1
 73
     1
 90
        2
 40
-0.6
 41
30.0
 62
     5
 63
     7
421
 16777215
 74
     1
 91
        4
 64
     7
 65
   257
 75
     1
175
     1
 42
1.0
 92
        0
 66
   257
 43
1.0
 76
     1
 77
     6
 78
     2
 67
     7
 79
     5
170
     0
171
     0
290
     0
174
     0
 93
       13
 44
0.0
173
     0
291
     1
 45
0.0
1001
ACAD
1000
AcDbSavedByObjectVersion
1070
     0
  0
VISUALSTYLE
  5
2D
102
{ACAD_REACTORS
330
2A
102
}
102
{ACAD_XDICTIONARY
360
2B0
102
}
330
2A
100
AcDbVisualStyle
  2
Gouraud
 70
     2
 71
     2
 72
     2
 73
     1
 90
        2
 40
-0.6
 41
30.0
 62
     5
 63
     7
421
 16777215
 74
     0
 91
        4
 64
     7
 65
   257
 75
     1
175
     1
 42
1.0
 92
        0
 66
     7
 43
1.0
 76
     1
 77
     6
 78
     2
 67
     7
 79
     5
170
     0
171
     0
290
     0
174
     0
 93
       13
 44
0.0
173
     0
291
     1
 45
0.0
1001
ACAD
1000
AcDbSavedByObjectVersion
1070
     0
  0
VISUALSTYLE
  5
2E
102
{ACAD_REACTORS
330
2A
102
}
102
{ACAD_XDICTIONARY
360
2B2
102
}
330
2A
100
AcDbVisualStyle
  2
GouraudWithEdges
 70
     3
 71
     2
 72
     2
 73
     1
 90
        2
 40
-0.6
 41
30.0
 62
     5
 63
     7
421
 16777215
 74
     1
 91
        4
 64
     7
 65
   257
 75
     1
175
     1
 42
1.0
 92
        0
 66
   257
 43
1.0
 76
     1
 77
     6
 78
     2
 67
     7
 79
     5
170
     0
171
     0
290
     0
174
     0
 93
       13
 44
0.0
173
     0
291
     1
 45
0.0
1001
ACAD
1000
AcDbSavedByObjectVersion
1070
     0
  0
VISUALSTYLE
  5
38
102
{ACAD_REACTORS
330
2A
102
}
102
{ACAD_XDICTIONARY
360
2C6
102
}
330
2A
100
AcDbVisualStyle
  2
Linepattern
 70
    14
 71
     2
 72
     2
 73
     0
 90
        0
 40
-0.6
 41
-30.0
 62
     5
 63
     7
421
 16777215
 74
     1
 91
        4
 64
     7
 65
   257
 75
     7
175
     7
 42
1.0
 92
        8
 66
     7
 43
1.0
 76
     1
 77
     6
 78
     2
 67
     7
 79
     5
170
     0
171
     0
290
     0
174
     0
 93
        1
 44
0.0
173
     0
291
     1
 45
0.0
1001
ACAD
1000
AcDbSavedByObjectVersion
1070
     0
  0
VISUALSTYLE
  5
33
102
{ACAD_REACTORS
330
2A
102
}
102
{ACAD_XDICTIONARY
360
2BC
102
}
330
2A
100
AcDbVisualStyle
  2
Realistic
 70
     8
 71
     2
 72
     2
 73
     0
 90
        0
 40
-0.6
 41
-30.0
 62
     5
 63
     7
421
 16777215
 74
     1
 91
        0
 64
     7
 65
   257
 75
     1
175
     1
 42
1.0
 92
        8
 66
     8
424
  7895160
 43
1.0
 76
     1
 77
     6
 78
     2
 67
     7
 79
     5
170
     0
171
     0
290
     0
174
     0
 93
       13
 44
0.0
173
     0
291
     0
 45
0.0
1001
ACAD
1000
AcDbSavedByObjectVersion
1070
     0
  0
VISUALSTYLE
  5
37
102
{ACAD_REACTORS
330
2A
102
}
102
{ACAD_XDICTIONARY
360
2C4
102
}
330
2A
100
AcDbVisualStyle
  2
Thicken
 70
    13
 71
     2
 72
     2
 73
     0
 90
        0
 40
-0.6
 41
-30.0
 62
     5
 63
     7
421
 16777215
 74
     1
 91
        4
 64
     7
 65
   257
 75
     1
175
     1
 42
1.0
 92
       12
 66
     7
 43
1.0
 76
     1
 77
     6
 78
     2
 67
     7
 79
     5
170
     0
171
     0
290
     0
174
     0
 93
        1
 44
0.0
173
     0
291
     1
 45
0.0
1001
ACAD
1000
AcDbSavedByObjectVersion
1070
     0
  0
DICTIONARY
  5
2CE
330
3D
100
AcDbDictionary
280
     1
281
     1
  3
ACAD_XREC_ROUNDTRIP
360
2CF
  0
DICTIONARY
  5
2CC
330
3C
100
AcDbDictionary
280
     1
281
     1
  3
ACAD_XREC_ROUNDTRIP
360
2CD
  0
DICTIONARY
  5
2D0
330
3E
100
AcDbDictionary
280
     1
281
     1
  3
ACAD_XREC_ROUNDTRIP
360
2D1
  0
DICTIONARY
  5
2B4
330
2F
100
AcDbDictionary
280
     1
281
     1
  3
ACAD_XREC_ROUNDTRIP
360
2B5
  0
DICTIONARY
  5
2B8
330
31
100
AcDbDictionary
280
     1
281
     1
  3
ACAD_XREC_ROUNDTRIP
360
2B9
  0
DICTIONARY
  5
2B6
330
30
100
AcDbDictionary
280
     1
281
     1
  3
ACAD_XREC_ROUNDTRIP
360
2B7
  0
DICTIONARY
  5
2BA
330
32
100
AcDbDictionary
280
     1
281
     1
  3
ACAD_XREC_ROUNDTRIP
360
2BB
  0
DICTIONARY
  5
2C2
330
36
100
AcDbDictionary
280
     1
281
     1
  3
ACAD_XREC_ROUNDTRIP
360
2C3
  0
DICTIONARY
  5
2CA
330
3A
100
AcDbDictionary
280
     1
281
     1
  3
ACAD_XREC_ROUNDTRIP
360
2CB
  0
DICTIONARY
  5
2BE
330
34
100
AcDbDictionary
280
     1
281
     1
  3
ACAD_XREC_ROUNDTRIP
360
2BF
  0
DICTIONARY
  5
2C0
330
35
100
AcDbDictionary
280
     1
281
     1
  3
ACAD_XREC_ROUNDTRIP
360
2C1
  0
DICTIONARY
  5
2C8
330
39
100
AcDbDictionary
280
     1
281
     1
  3
ACAD_XREC_ROUNDTRIP
360
2C9
  0
DICTIONARY
  5
2AC
330
2B
100
AcDbDictionary
280
     1
281
     1
  3
ACAD_XREC_ROUNDTRIP
360
2AD
  0
DICTIONARY
  5
2AE
330
2C
100
AcDbDictionary
280
     1
281
     1
  3
ACAD_XREC_ROUNDTRIP
360
2AF
  0
DICTIONARY
  5
2B0
330
2D
100
AcDbDictionary
280
     1
281
     1
  3
ACAD_XREC_ROUNDTRIP
360
2B1
  0
DICTIONARY
  5
2B2
330
2E
100
AcDbDictionary
280
     1
281
     1
  3
ACAD_XREC_ROUNDTRIP
360
2B3
  0
DICTIONARY
  5
2C6
330
38
100
AcDbDictionary
280
     1
281
     1
  3
ACAD_XREC_ROUNDTRIP
360
2C7
  0
DICTIONARY
  5
2BC
330
33
100
AcDbDictionary
280
     1
281
     1
  3
ACAD_XREC_ROUNDTRIP
360
2BD
  0
DICTIONARY
  5
2C4
330
37
100
AcDbDictionary
280
     1
281
     1
  3
ACAD_XREC_ROUNDTRIP
360
2C5
  0
XRECORD
  5
2CF
102
{ACAD_REACTORS
330
2CE
102
}
330
2CE
100
AcDbXrecord
280
     1
102
MATERIAL
148
0.0
149
0.0
149
0.0
 93
        0
 94
      127
282
     0
 72
     1
 77
     1
171
     1
175
     1
179
     1
273
     0
  0
XRECORD
  5
2CD
102
{ACAD_REACTORS
330
2CC
102
}
330
2CC
100
AcDbXrecord
280
     1
102
MATERIAL
148
0.0
149
0.0
149
0.0
 93
        0
 94
      127
282
     0
 72
     1
 77
     1
171
     1
175
     1
179
     1
273
     0
  0
XRECORD
  5
2D1
102
{ACAD_REACTORS
330
2D0
102
}
330
2D0
100
AcDbXrecord
280
     1
102
MATERIAL
148
0.0
149
0.0
149
0.0
 93
        0
 94
      127
282
     0
 72
     1
 77
     1
171
     1
175
     1
179
     1
273
     0
  0
XRECORD
  5
2B5
102
{ACAD_REACTORS
330
2B4
102
}
330
2B4
100
AcDbXrecord
280
     1
102
RTVSPropertyOp0
 70
     1
102
RTVSPropertyOp1
 70
     1
102
RTVSPropertyOp2
 70
     1
102
RTVSPropertyOp3
 70
     1
102
RTVSPropertyOp4
 70
     1
102
RTVSPropertyOp5
 70
     1
102
RTVSPropertyOp6
 70
     1
102
RTVSPropertyOp7
 70
     1
102
RTVSPropertyOp8
 70
     1
102
RTVSPropertyOp9
 70
     1
102
RTVSPropertyOp10
 70
     1
102
RTVSPropertyOp11
 70
     1
102
RTVSPropertyOp12
 70
     1
102
RTVSPropertyOp13
 70
     1
102
RTVSPropertyOp14
 70
     1
102
RTVSPropertyOp15
 70
     1
102
RTVSPropertyOp16
 70
     1
102
RTVSPropertyOp17
 70
     1
102
RTVSPropertyOp18
 70
     1
102
RTVSPropertyOp19
 70
     1
102
RTVSPropertyOp20
 70
     1
102
RTVSPropertyOp21
 70
     1
102
RTVSPropertyOp22
 70
     1
102
RTVSPropertyOp23
 70
     1
102
RTVSPropertyOp24
 70
     1
102
RTVSPropertyOp25
 70
     1
102
RTVSPropertyOp26
 70
     1
102
RTVSPropertyOp27
 70
     1
102
RTVSPropertyOp28
 70
     1
102
RTVSPropertyOp29
 70
     1
102
RTVSPropertyOp30
 70
     1
102
RTVSPropertyOp31
 70
     1
102
RTVSPropertyOp32
 70
     1
  0
XRECORD
  5
2B9
102
{ACAD_REACTORS
330
2B8
102
}
330
2B8
100
AcDbXrecord
280
     1
102
RTVSPropertyOp0
 70
     1
102
RTVSPropertyOp1
 70
     1
102
RTVSPropertyOp2
 70
     1
102
RTVSPropertyOp3
 70
     1
102
RTVSPropertyOp4
 70
     1
102
RTVSPropertyOp5
 70
     1
102
RTVSPropertyOp6
 70
     1
102
RTVSPropertyOp7
 70
     1
102
RTVSPropertyOp8
 70
     1
102
RTVSPropertyOp9
 70
     1
102
RTVSPropertyOp10
 70
     1
102
RTVSPropertyOp11
 70
     1
102
RTVSPropertyOp12
 70
     1
102
RTVSPropertyOp13
 70
     1
102
RTVSPropertyOp14
 70
     1
102
RTVSPropertyOp15
 70
     1
102
RTVSPropertyOp16
 70
     1
102
RTVSPropertyOp17
 70
     1
102
RTVSPropertyOp18
 70
     1
102
RTVSPropertyOp19
 70
     1
102
RTVSPropertyOp20
 70
     1
102
RTVSPropertyOp21
 70
     1
102
RTVSPropertyOp22
 70
     1
102
RTVSPropertyOp23
 70
     1
102
RTVSPropertyOp24
 70
     1
102
RTVSPropertyOp25
 70
     1
102
RTVSPropertyOp26
 70
     1
102
RTVSPropertyOp27
 70
     1
102
RTVSPropertyOp28
 70
     1
102
RTVSPropertyOp29
 70
     1
102
RTVSPropertyOp30
 70
     1
102
RTVSPropertyOp31
 70
     1
102
RTVSPropertyOp32
 70
     1
  0
XRECORD
  5
2B7
102
{ACAD_REACTORS
330
2B6
102
}
330
2B6
100
AcDbXrecord
280
     1
102
RTVSPropertyOp0
 70
     1
102
RTVSPropertyOp1
 70
     1
102
RTVSPropertyOp2
 70
     1
102
RTVSPropertyOp3
 70
     1
102
RTVSPropertyOp4
 70
     1
102
RTVSPropertyOp5
 70
     1
102
RTVSPropertyOp6
 70
     1
102
RTVSPropertyOp7
 70
     1
102
RTVSPropertyOp8
 70
     1
102
RTVSPropertyOp9
 70
     1
102
RTVSPropertyOp10
 70
     1
102
RTVSPropertyOp11
 70
     1
102
RTVSPropertyOp12
 70
     1
102
RTVSPropertyOp13
 70
     1
102
RTVSPropertyOp14
 70
     1
102
RTVSPropertyOp15
 70
     1
102
RTVSPropertyOp16
 70
     1
102
RTVSPropertyOp17
 70
     1
102
RTVSPropertyOp18
 70
     1
102
RTVSPropertyOp19
 70
     1
102
RTVSPropertyOp20
 70
     1
102
RTVSPropertyOp21
 70
     1
102
RTVSPropertyOp22
 70
     1
102
RTVSPropertyOp23
 70
     1
102
RTVSPropertyOp24
 70
     1
102
RTVSPropertyOp25
 70
     1
102
RTVSPropertyOp26
 70
     1
102
RTVSPropertyOp27
 70
     1
102
RTVSPropertyOp28
 70
     1
102
RTVSPropertyOp29
 70
     1
102
RTVSPropertyOp30
 70
     1
102
RTVSPropertyOp31
 70
     1
102
RTVSPropertyOp32
 70
     1
  0
XRECORD
  5
2BB
102
{ACAD_REACTORS
330
2BA
102
}
330
2BA
100
AcDbXrecord
280
     1
102
RTVSPropertyOp0
 70
     1
102
RTVSPropertyOp1
 70
     1
102
RTVSPropertyOp2
 70
     1
102
RTVSPropertyOp3
 70
     1
102
RTVSPropertyOp4
 70
     1
102
RTVSPropertyOp5
 70
     1
102
RTVSPropertyOp6
 70
     1
102
RTVSPropertyOp7
 70
     1
102
RTVSPropertyOp8
 70
     1
102
RTVSPropertyOp9
 70
     1
102
RTVSPropertyOp10
 70
     1
102
RTVSPropertyOp11
 70
     1
102
RTVSPropertyOp12
 70
     1
102
RTVSPropertyOp13
 70
     1
102
RTVSPropertyOp14
 70
     1
102
RTVSPropertyOp15
 70
     1
102
RTVSPropertyOp16
 70
     1
102
RTVSPropertyOp17
 70
     1
102
RTVSPropertyOp18
 70
     1
102
RTVSPropertyOp19
 70
     1
102
RTVSPropertyOp20
 70
     1
102
RTVSPropertyOp21
 70
     1
102
RTVSPropertyOp22
 70
     1
102
RTVSPropertyOp23
 70
     1
102
RTVSPropertyOp24
 70
     1
102
RTVSPropertyOp25
 70
     1
102
RTVSPropertyOp26
 70
     1
102
RTVSPropertyOp27
 70
     1
102
RTVSPropertyOp28
 70
     1
102
RTVSPropertyOp29
 70
     1
102
RTVSPropertyOp30
 70
     1
102
RTVSPropertyOp31
 70
     1
102
RTVSPropertyOp32
 70
     1
  0
XRECORD
  5
2C3
102
{ACAD_REACTORS
330
2C2
102
}
330
2C2
100
AcDbXrecord
280
     1
102
RTVSPropertyOp0
 70
     1
102
RTVSPropertyOp1
 70
     1
102
RTVSPropertyOp2
 70
     1
102
RTVSPropertyOp3
 70
     1
102
RTVSPropertyOp4
 70
     1
102
RTVSPropertyOp5
 70
     1
102
RTVSPropertyOp6
 70
     1
102
RTVSPropertyOp7
 70
     1
102
RTVSPropertyOp8
 70
     1
102
RTVSPropertyOp9
 70
     1
102
RTVSPropertyOp10
 70
     1
102
RTVSPropertyOp11
 70
     1
102
RTVSPropertyOp12
 70
     1
102
RTVSPropertyOp13
 70
     1
102
RTVSPropertyOp14
 70
     1
102
RTVSPropertyOp15
 70
     1
102
RTVSPropertyOp16
 70
     1
102
RTVSPropertyOp17
 70
     1
102
RTVSPropertyOp18
 70
     1
102
RTVSPropertyOp19
 70
     1
102
RTVSPropertyOp20
 70
     1
102
RTVSPropertyOp21
 70
     1
102
RTVSPropertyOp22
 70
     1
102
RTVSPropertyOp23
 70
     1
102
RTVSPropertyOp24
 70
     1
102
RTVSPropertyOp25
 70
     1
102
RTVSPropertyOp26
 70
     1
102
RTVSPropertyOp27
 70
     1
102
RTVSPropertyOp28
 70
     1
102
RTVSPropertyOp29
 70
     1
102
RTVSPropertyOp30
 70
     1
102
RTVSPropertyOp31
 70
     1
102
RTVSPropertyOp32
 70
     1
  0
XRECORD
  5
2CB
102
{ACAD_REACTORS
330
2CA
102
}
330
2CA
100
AcDbXrecord
280
     1
102
RTVSPropertyOp0
 70
     1
102
RTVSPropertyOp1
 70
     1
102
RTVSPropertyOp2
 70
     1
102
RTVSPropertyOp3
 70
     1
102
RTVSPropertyOp4
 70
     1
102
RTVSPropertyOp5
 70
     1
102
RTVSPropertyOp6
 70
     1
102
RTVSPropertyOp7
 70
     1
102
RTVSPropertyOp8
 70
     1
102
RTVSPropertyOp9
 70
     1
102
RTVSPropertyOp10
 70
     1
102
RTVSPropertyOp11
 70
     1
102
RTVSPropertyOp12
 70
     1
102
RTVSPropertyOp13
 70
     1
102
RTVSPropertyOp14
 70
     1
102
RTVSPropertyOp15
 70
     1
102
RTVSPropertyOp16
 70
     1
102
RTVSPropertyOp17
 70
     1
102
RTVSPropertyOp18
 70
     1
102
RTVSPropertyOp19
 70
     1
102
RTVSPropertyOp20
 70
     1
102
RTVSPropertyOp21
 70
     1
102
RTVSPropertyOp22
 70
     1
102
RTVSPropertyOp23
 70
     1
102
RTVSPropertyOp24
 70
     1
102
RTVSPropertyOp25
 70
     1
102
RTVSPropertyOp26
 70
     1
102
RTVSPropertyOp27
 70
     1
102
RTVSPropertyOp28
 70
     1
102
RTVSPropertyOp29
 70
     1
102
RTVSPropertyOp30
 70
     1
102
RTVSPropertyOp31
 70
     1
102
RTVSPropertyOp32
 70
     1
  0
XRECORD
  5
2BF
102
{ACAD_REACTORS
330
2BE
102
}
330
2BE
100
AcDbXrecord
280
     1
102
RTVSPropertyOp0
 70
     1
102
RTVSPropertyOp1
 70
     1
102
RTVSPropertyOp2
 70
     1
102
RTVSPropertyOp3
 70
     1
102
RTVSPropertyOp4
 70
     1
102
RTVSPropertyOp5
 70
     1
102
RTVSPropertyOp6
 70
     1
102
RTVSPropertyOp7
 70
     1
102
RTVSPropertyOp8
 70
     1
102
RTVSPropertyOp9
 70
     1
102
RTVSPropertyOp10
 70
     1
102
RTVSPropertyOp11
 70
     1
102
RTVSPropertyOp12
 70
     1
102
RTVSPropertyOp13
 70
     1
102
RTVSPropertyOp14
 70
     1
102
RTVSPropertyOp15
 70
     1
102
RTVSPropertyOp16
 70
     1
102
RTVSPropertyOp17
 70
     1
102
RTVSPropertyOp18
 70
     1
102
RTVSPropertyOp19
 70
     1
102
RTVSPropertyOp20
 70
     1
102
RTVSPropertyOp21
 70
     1
102
RTVSPropertyOp22
 70
     1
102
RTVSPropertyOp23
 70
     1
102
RTVSPropertyOp24
 70
     1
102
RTVSPropertyOp25
 70
     1
102
RTVSPropertyOp26
 70
     1
102
RTVSPropertyOp27
 70
     1
102
RTVSPropertyOp28
 70
     1
102
RTVSPropertyOp29
 70
     1
102
RTVSPropertyOp30
 70
     1
102
RTVSPropertyOp31
 70
     1
102
RTVSPropertyOp32
 70
     1
  0
XRECORD
  5
2C1
102
{ACAD_REACTORS
330
2C0
102
}
330
2C0
100
AcDbXrecord
280
     1
102
RTVSPropertyOp0
 70
     1
102
RTVSPropertyOp1
 70
     1
102
RTVSPropertyOp2
 70
     1
102
RTVSPropertyOp3
 70
     1
102
RTVSPropertyOp4
 70
     1
102
RTVSPropertyOp5
 70
     1
102
RTVSPropertyOp6
 70
     1
102
RTVSPropertyOp7
 70
     1
102
RTVSPropertyOp8
 70
     1
102
RTVSPropertyOp9
 70
     1
102
RTVSPropertyOp10
 70
     1
102
RTVSPropertyOp11
 70
     1
102
RTVSPropertyOp12
 70
     1
102
RTVSPropertyOp13
 70
     1
102
RTVSPropertyOp14
 70
     1
102
RTVSPropertyOp15
 70
     1
102
RTVSPropertyOp16
 70
     1
102
RTVSPropertyOp17
 70
     1
102
RTVSPropertyOp18
 70
     1
102
RTVSPropertyOp19
 70
     1
102
RTVSPropertyOp20
 70
     1
102
RTVSPropertyOp21
 70
     1
102
RTVSPropertyOp22
 70
     1
102
RTVSPropertyOp23
 70
     1
102
RTVSPropertyOp24
 70
     1
102
RTVSPropertyOp25
 70
     1
102
RTVSPropertyOp26
 70
     1
102
RTVSPropertyOp27
 70
     1
102
RTVSPropertyOp28
 70
     1
102
RTVSPropertyOp29
 70
     1
102
RTVSPropertyOp30
 70
     1
102
RTVSPropertyOp31
 70
     1
102
RTVSPropertyOp32
 70
     1
  0
XRECORD
  5
2C9
102
{ACAD_REACTORS
330
2C8
102
}
330
2C8
100
AcDbXrecord
280
     1
102
RTVSPropertyOp0
 70
     1
102
RTVSPropertyOp1
 70
     1
102
RTVSPropertyOp2
 70
     1
102
RTVSPropertyOp3
 70
     1
102
RTVSPropertyOp4
 70
     1
102
RTVSPropertyOp5
 70
     1
102
RTVSPropertyOp6
 70
     1
102
RTVSPropertyOp7
 70
     1
102
RTVSPropertyOp8
 70
     1
102
RTVSPropertyOp9
 70
     1
102
RTVSPropertyOp10
 70
     1
102
RTVSPropertyOp11
 70
     1
102
RTVSPropertyOp12
 70
     1
102
RTVSPropertyOp13
 70
     1
102
RTVSPropertyOp14
 70
     1
102
RTVSPropertyOp15
 70
     1
102
RTVSPropertyOp16
 70
     1
102
RTVSPropertyOp17
 70
     1
102
RTVSPropertyOp18
 70
     1
102
RTVSPropertyOp19
 70
     1
102
RTVSPropertyOp20
 70
     1
102
RTVSPropertyOp21
 70
     1
102
RTVSPropertyOp22
 70
     1
102
RTVSPropertyOp23
 70
     1
102
RTVSPropertyOp24
 70
     1
102
RTVSPropertyOp25
 70
     1
102
RTVSPropertyOp26
 70
     1
102
RTVSPropertyOp27
 70
     1
102
RTVSPropertyOp28
 70
     1
102
RTVSPropertyOp29
 70
     1
102
RTVSPropertyOp30
 70
     1
102
RTVSPropertyOp31
 70
     1
102
RTVSPropertyOp32
 70
     1
  0
XRECORD
  5
2AD
102
{ACAD_REACTORS
330
2AC
102
}
330
2AC
100
AcDbXrecord
280
     1
102
RTVSPropertyOp0
 70
     1
102
RTVSPropertyOp1
 70
     1
102
RTVSPropertyOp2
 70
     1
102
RTVSPropertyOp3
 70
     1
102
RTVSPropertyOp4
 70
     1
102
RTVSPropertyOp5
 70
     1
102
RTVSPropertyOp6
 70
     1
102
RTVSPropertyOp7
 70
     1
102
RTVSPropertyOp8
 70
     1
102
RTVSPropertyOp9
 70
     1
102
RTVSPropertyOp10
 70
     1
102
RTVSPropertyOp11
 70
     1
102
RTVSPropertyOp12
 70
     1
102
RTVSPropertyOp13
 70
     1
102
RTVSPropertyOp14
 70
     1
102
RTVSPropertyOp15
 70
     1
102
RTVSPropertyOp16
 70
     1
102
RTVSPropertyOp17
 70
     1
102
RTVSPropertyOp18
 70
     1
102
RTVSPropertyOp19
 70
     1
102
RTVSPropertyOp20
 70
     1
102
RTVSPropertyOp21
 70
     1
102
RTVSPropertyOp22
 70
     1
102
RTVSPropertyOp23
 70
     1
102
RTVSPropertyOp24
 70
     1
102
RTVSPropertyOp25
 70
     1
102
RTVSPropertyOp26
 70
     1
102
RTVSPropertyOp27
 70
     1
102
RTVSPropertyOp28
 70
     1
102
RTVSPropertyOp29
 70
     1
102
RTVSPropertyOp30
 70
     1
102
RTVSPropertyOp31
 70
     1
102
RTVSPropertyOp32
 70
     1
  0
XRECORD
  5
2AF
102
{ACAD_REACTORS
330
2AE
102
}
330
2AE
100
AcDbXrecord
280
     1
102
RTVSPropertyOp0
 70
     1
102
RTVSPropertyOp1
 70
     1
102
RTVSPropertyOp2
 70
     1
102
RTVSPropertyOp3
 70
     1
102
RTVSPropertyOp4
 70
     1
102
RTVSPropertyOp5
 70
     1
102
RTVSPropertyOp6
 70
     1
102
RTVSPropertyOp7
 70
     1
102
RTVSPropertyOp8
 70
     1
102
RTVSPropertyOp9
 70
     1
102
RTVSPropertyOp10
 70
     1
102
RTVSPropertyOp11
 70
     1
102
RTVSPropertyOp12
 70
     1
102
RTVSPropertyOp13
 70
     1
102
RTVSPropertyOp14
 70
     1
102
RTVSPropertyOp15
 70
     1
102
RTVSPropertyOp16
 70
     1
102
RTVSPropertyOp17
 70
     1
102
RTVSPropertyOp18
 70
     1
102
RTVSPropertyOp19
 70
     1
102
RTVSPropertyOp20
 70
     1
102
RTVSPropertyOp21
 70
     1
102
RTVSPropertyOp22
 70
     1
102
RTVSPropertyOp23
 70
     1
102
RTVSPropertyOp24
 70
     1
102
RTVSPropertyOp25
 70
     1
102
RTVSPropertyOp26
 70
     1
102
RTVSPropertyOp27
 70
     1
102
RTVSPropertyOp28
 70
     1
102
RTVSPropertyOp29
 70
     1
102
RTVSPropertyOp30
 70
     1
102
RTVSPropertyOp31
 70
     1
102
RTVSPropertyOp32
 70
     1
  0
XRECORD
  5
2B1
102
{ACAD_REACTORS
330
2B0
102
}
330
2B0
100
AcDbXrecord
280
     1
102
RTVSPropertyOp0
 70
     1
102
RTVSPropertyOp1
 70
     1
102
RTVSPropertyOp2
 70
     1
102
RTVSPropertyOp3
 70
     1
102
RTVSPropertyOp4
 70
     1
102
RTVSPropertyOp5
 70
     1
102
RTVSPropertyOp6
 70
     1
102
RTVSPropertyOp7
 70
     1
102
RTVSPropertyOp8
 70
     1
102
RTVSPropertyOp9
 70
     1
102
RTVSPropertyOp10
 70
     1
102
RTVSPropertyOp11
 70
     1
102
RTVSPropertyOp12
 70
     1
102
RTVSPropertyOp13
 70
     1
102
RTVSPropertyOp14
 70
     1
102
RTVSPropertyOp15
 70
     1
102
RTVSPropertyOp16
 70
     1
102
RTVSPropertyOp17
 70
     1
102
RTVSPropertyOp18
 70
     1
102
RTVSPropertyOp19
 70
     1
102
RTVSPropertyOp20
 70
     1
102
RTVSPropertyOp21
 70
     1
102
RTVSPropertyOp22
 70
     1
102
RTVSPropertyOp23
 70
     1
102
RTVSPropertyOp24
 70
     1
102
RTVSPropertyOp25
 70
     1
102
RTVSPropertyOp26
 70
     1
102
RTVSPropertyOp27
 70
     1
102
RTVSPropertyOp28
 70
     1
102
RTVSPropertyOp29
 70
     1
102
RTVSPropertyOp30
 70
     1
102
RTVSPropertyOp31
 70
     1
102
RTVSPropertyOp32
 70
     1
  0
XRECORD
  5
2B3
102
{ACAD_REACTORS
330
2B2
102
}
330
2B2
100
AcDbXrecord
280
     1
102
RTVSPropertyOp0
 70
     1
102
RTVSPropertyOp1
 70
     1
102
RTVSPropertyOp2
 70
     1
102
RTVSPropertyOp3
 70
     1
102
RTVSPropertyOp4
 70
     1
102
RTVSPropertyOp5
 70
     1
102
RTVSPropertyOp6
 70
     1
102
RTVSPropertyOp7
 70
     1
102
RTVSPropertyOp8
 70
     1
102
RTVSPropertyOp9
 70
     1
102
RTVSPropertyOp10
 70
     1
102
RTVSPropertyOp11
 70
     1
102
RTVSPropertyOp12
 70
     1
102
RTVSPropertyOp13
 70
     1
102
RTVSPropertyOp14
 70
     1
102
RTVSPropertyOp15
 70
     1
102
RTVSPropertyOp16
 70
     1
102
RTVSPropertyOp17
 70
     1
102
RTVSPropertyOp18
 70
     1
102
RTVSPropertyOp19
 70
     1
102
RTVSPropertyOp20
 70
     1
102
RTVSPropertyOp21
 70
     1
102
RTVSPropertyOp22
 70
     1
102
RTVSPropertyOp23
 70
     1
102
RTVSPropertyOp24
 70
     1
102
RTVSPropertyOp25
 70
     1
102
RTVSPropertyOp26
 70
     1
102
RTVSPropertyOp27
 70
     1
102
RTVSPropertyOp28
 70
     1
102
RTVSPropertyOp29
 70
     1
102
RTVSPropertyOp30
 70
     1
102
RTVSPropertyOp31
 70
     1
102
RTVSPropertyOp32
 70
     1
  0
XRECORD
  5
2C7
102
{ACAD_REACTORS
330
2C6
102
}
330
2C6
100
AcDbXrecord
280
     1
102
RTVSPropertyOp0
 70
     1
102
RTVSPropertyOp1
 70
     1
102
RTVSPropertyOp2
 70
     1
102
RTVSPropertyOp3
 70
     1
102
RTVSPropertyOp4
 70
     1
102
RTVSPropertyOp5
 70
     1
102
RTVSPropertyOp6
 70
     1
102
RTVSPropertyOp7
 70
     1
102
RTVSPropertyOp8
 70
     1
102
RTVSPropertyOp9
 70
     1
102
RTVSPropertyOp10
 70
     1
102
RTVSPropertyOp11
 70
     1
102
RTVSPropertyOp12
 70
     1
102
RTVSPropertyOp13
 70
     1
102
RTVSPropertyOp14
 70
     1
102
RTVSPropertyOp15
 70
     1
102
RTVSPropertyOp16
 70
     1
102
RTVSPropertyOp17
 70
     1
102
RTVSPropertyOp18
 70
     1
102
RTVSPropertyOp19
 70
     1
102
RTVSPropertyOp20
 70
     1
102
RTVSPropertyOp21
 70
     1
102
RTVSPropertyOp22
 70
     1
102
RTVSPropertyOp23
 70
     1
102
RTVSPropertyOp24
 70
     1
102
RTVSPropertyOp25
 70
     1
102
RTVSPropertyOp26
 70
     1
102
RTVSPropertyOp27
 70
     1
102
RTVSPropertyOp28
 70
     1
102
RTVSPropertyOp29
 70
     1
102
RTVSPropertyOp30
 70
     1
102
RTVSPropertyOp31
 70
     1
102
RTVSPropertyOp32
 70
     1
  0
XRECORD
  5
2BD
102
{ACAD_REACTORS
330
2BC
102
}
330
2BC
100
AcDbXrecord
280
     1
102
RTVSPropertyOp0
 70
     1
102
RTVSPropertyOp1
 70
     1
102
RTVSPropertyOp2
 70
     1
102
RTVSPropertyOp3
 70
     1
102
RTVSPropertyOp4
 70
     1
102
RTVSPropertyOp5
 70
     1
102
RTVSPropertyOp6
 70
     1
102
RTVSPropertyOp7
 70
     1
102
RTVSPropertyOp8
 70
     1
102
RTVSPropertyOp9
 70
     1
102
RTVSPropertyOp10
 70
     1
102
RTVSPropertyOp11
 70
     1
102
RTVSPropertyOp12
 70
     1
102
RTVSPropertyOp13
 70
     1
102
RTVSPropertyOp14
 70
     1
102
RTVSPropertyOp15
 70
     1
102
RTVSPropertyOp16
 70
     1
102
RTVSPropertyOp17
 70
     1
102
RTVSPropertyOp18
 70
     1
102
RTVSPropertyOp19
 70
     1
102
RTVSPropertyOp20
 70
     1
102
RTVSPropertyOp21
 70
     1
102
RTVSPropertyOp22
 70
     1
102
RTVSPropertyOp23
 70
     1
102
RTVSPropertyOp24
 70
     1
102
RTVSPropertyOp25
 70
     1
102
RTVSPropertyOp26
 70
     1
102
RTVSPropertyOp27
 70
     1
102
RTVSPropertyOp28
 70
     1
102
RTVSPropertyOp29
 70
     1
102
RTVSPropertyOp30
 70
     1
102
RTVSPropertyOp31
 70
     1
102
RTVSPropertyOp32
 70
     1
  0
XRECORD
  5
2C5
102
{ACAD_REACTORS
330
2C4
102
}
330
2C4
100
AcDbXrecord
280
     1
102
RTVSPropertyOp0
 70
     1
102
RTVSPropertyOp1
 70
     1
102
RTVSPropertyOp2
 70
     1
102
RTVSPropertyOp3
 70
     1
102
RTVSPropertyOp4
 70
     1
102
RTVSPropertyOp5
 70
     1
102
RTVSPropertyOp6
 70
     1
102
RTVSPropertyOp7
 70
     1
102
RTVSPropertyOp8
 70
     1
102
RTVSPropertyOp9
 70
     1
102
RTVSPropertyOp10
 70
     1
102
RTVSPropertyOp11
 70
     1
102
RTVSPropertyOp12
 70
     1
102
RTVSPropertyOp13
 70
     1
102
RTVSPropertyOp14
 70
     1
102
RTVSPropertyOp15
 70
     1
102
RTVSPropertyOp16
 70
     1
102
RTVSPropertyOp17
 70
     1
102
RTVSPropertyOp18
 70
     1
102
RTVSPropertyOp19
 70
     1
102
RTVSPropertyOp20
 70
     1
102
RTVSPropertyOp21
 70
     1
102
RTVSPropertyOp22
 70
     1
102
RTVSPropertyOp23
 70
     1
102
RTVSPropertyOp24
 70
     1
102
RTVSPropertyOp25
 70
     1
102
RTVSPropertyOp26
 70
     1
102
RTVSPropertyOp27
 70
     1
102
RTVSPropertyOp28
 70
     1
102
RTVSPropertyOp29
 70
     1
102
RTVSPropertyOp30
 70
     1
102
RTVSPropertyOp31
 70
     1
102
RTVSPropertyOp32
 70
     1
  0
ENDSEC
  0
EOF
