  0
SECTION
  2
HEADER
  9
$ACADVER
  1
AC1018
  9
$ACADMAINTVER
 70
     0
  9
$DWGCODEPAGE
  3
ANSI_1252
  9
$INSBASE
 10
0.0
 20
0.0
 30
0.0
  9
$EXTMIN
 10
-0.5000000000002321
 20
-0.000000000001819
 30
0.0
  9
$EXTMAX
 10
340.5000000000005
 20
200.0000000000001
 30
0.0000000000008959
  9
$LIMMIN
 10
0.0
 20
0.0
  9
$LIMMAX
 10
12.0
 20
9.0
  9
$ORTHOMODE
 70
     0
  9
$REGENMODE
 70
     1
  9
$FILLMODE
 70
     1
  9
$QTEXTMODE
 70
     0
  9
$MIRRTEXT
 70
     1
  9
$LTSCALE
 40
1.0
  9
$ATTMODE
 70
     1
  9
$TEXTSIZE
 40
0.2
  9
$TRACEWID
 40
0.05
  9
$TEXTSTYLE
  7
Standard
  9
$CLAYER
  8
0
  9
$CELTYPE
  6
ByLayer
  9
$CECOLOR
 62
   256
  9
$CELTSCALE
 40
1.0
  9
$DISPSILH
 70
     0
  9
$DIMSCALE
 40
1.0
  9
$DIMASZ
 40
0.18
  9
$DIMEXO
 40
0.0625
  9
$DIMDLI
 40
0.38
  9
$DIMRND
 40
0.0
  9
$DIMDLE
 40
0.0
  9
$DIMEXE
 40
0.18
  9
$DIMTP
 40
0.0
  9
$DIMTM
 40
0.0
  9
$DIMTXT
 40
0.18
  9
$DIMCEN
 40
0.09
  9
$DIMTSZ
 40
0.0
  9
$DIMTOL
 70
     0
  9
$DIMLIM
 70
     0
  9
$DIMTIH
 70
     1
  9
$DIMTOH
 70
     1
  9
$DIMSE1
 70
     0
  9
$DIMSE2
 70
     0
  9
$DIMTAD
 70
     0
  9
$DIMZIN
 70
     0
  9
$DIMBLK
  1

  9
$DIMASO
 70
     1
  9
$DIMSHO
 70
     1
  9
$DIMPOST
  1

  9
$DIMAPOST
  1

  9
$DIMALT
 70
     0
  9
$DIMALTD
 70
     2
  9
$DIMALTF
 40
25.4
  9
$DIMLFAC
 40
1.0
  9
$DIMTOFL
 70
     0
  9
$DIMTVP
 40
0.0
  9
$DIMTIX
 70
     0
  9
$DIMSOXD
 70
     0
  9
$DIMSAH
 70
     0
  9
$DIMBLK1
  1

  9
$DIMBLK2
  1

  9
$DIMSTYLE
  2
Standard
  9
$DIMCLRD
 70
     0
  9
$DIMCLRE
 70
     0
  9
$DIMCLRT
 70
     0
  9
$DIMTFAC
 40
1.0
  9
$DIMGAP
 40
0.09
  9
$DIMJUST
 70
     0
  9
$DIMSD1
 70
     0
  9
$DIMSD2
 70
     0
  9
$DIMTOLJ
 70
     1
  9
$DIMTZIN
 70
     0
  9
$DIMALTZ
 70
     0
  9
$DIMALTTZ
 70
     0
  9
$DIMUPT
 70
     0
  9
$DIMDEC
 70
     4
  9
$DIMTDEC
 70
     4
  9
$DIMALTU
 70
     2
  9
$DIMALTTD
 70
     2
  9
$DIMTXSTY
  7
Standard
  9
$DIMAUNIT
 70
     0
  9
$DIMADEC
 70
     0
  9
$DIMALTRND
 40
0.0
  9
$DIMAZIN
 70
     0
  9
$DIMDSEP
 70
    46
  9
$DIMATFIT
 70
     3
  9
$DIMFRAC
 70
     0
  9
$DIMLDRBLK
  1

  9
$DIMLUNIT
 70
     2
  9
$DIMLWD
 70
    -2
  9
$DIMLWE
 70
    -2
  9
$DIMTMOVE
 70
     2
  9
$LUNITS
 70
     2
  9
$LUPREC
 70
     0
  9
$SKETCHINC
 40
0.1
  9
$FILLETRAD
 40
0.5
  9
$AUNITS
 70
     0
  9
$AUPREC
 70
     0
  9
$MENU
  1
.
  9
$ELEVATION
 40
0.0
  9
$PELEVATION
 40
0.0
  9
$THICKNESS
 40
0.0
  9
$LIMCHECK
 70
     0
  9
$CHAMFERA
 40
0.5
  9
$CHAMFERB
 40
0.5
  9
$CHAMFERC
 40
1.0
  9
$CHAMFERD
 40
0.0
  9
$SKPOLY
 70
     0
  9
$TDCREATE
 40
2456394.676313762
  9
$TDUCREATE
 40
2456394.592980428
  9
$TDUPDATE
 40
2456394.676339271
  9
$TDUUPDATE
 40
2456394.593005938
  9
$TDINDWG
 40
0.0000000116
  9
$TDUSRTIMER
 40
0.0000000116
  9
$USRTIMER
 70
     1
  9
$ANGBASE
 50
0.0
  9
$ANGDIR
 70
     0
  9
$PDMODE
 70
     0
  9
$PDSIZE
 40
0.0
  9
$PLINEWID
 40
0.0
  9
$SPLFRAME
 70
     0
  9
$SPLINETYPE
 70
     6
  9
$SPLINESEGS
 70
     8
  9
$HANDSEED
  5
203
  9
$SURFTAB1
 70
     6
  9
$SURFTAB2
 70
     6
  9
$SURFTYPE
 70
     6
  9
$SURFU
 70
     6
  9
$SURFV
 70
     6
  9
$UCSBASE
  2

  9
$UCSNAME
  2

  9
$UCSORG
 10
0.0
 20
0.0
 30
0.0
  9
$UCSXDIR
 10
1.0
 20
0.0
 30
0.0
  9
$UCSYDIR
 10
0.0
 20
1.0
 30
0.0
  9
$UCSORTHOREF
  2

  9
$UCSORTHOVIEW
 70
     0
  9
$UCSORGTOP
 10
0.0
 20
0.0
 30
0.0
  9
$UCSORGBOTTOM
 10
0.0
 20
0.0
 30
0.0
  9
$UCSORGLEFT
 10
0.0
 20
0.0
 30
0.0
  9
$UCSORGRIGHT
 10
0.0
 20
0.0
 30
0.0
  9
$UCSORGFRONT
 10
0.0
 20
0.0
 30
0.0
  9
$UCSORGBACK
 10
0.0
 20
0.0
 30
0.0
  9
$PUCSBASE
  2

  9
$PUCSNAME
  2

  9
$PUCSORG
 10
0.0
 20
0.0
 30
0.0
  9
$PUCSXDIR
 10
1.0
 20
0.0
 30
0.0
  9
$PUCSYDIR
 10
0.0
 20
1.0
 30
0.0
  9
$PUCSORTHOREF
  2

  9
$PUCSORTHOVIEW
 70
     0
  9
$PUCSORGTOP
 10
0.0
 20
0.0
 30
0.0
  9
$PUCSORGBOTTOM
 10
0.0
 20
0.0
 30
0.0
  9
$PUCSORGLEFT
 10
0.0
 20
0.0
 30
0.0
  9
$PUCSORGRIGHT
 10
0.0
 20
0.0
 30
0.0
  9
$PUCSORGFRONT
 10
0.0
 20
0.0
 30
0.0
  9
$PUCSORGBACK
 10
0.0
 20
0.0
 30
0.0
  9
$USERI1
 70
     0
  9
$USERI2
 70
     0
  9
$USERI3
 70
     0
  9
$USERI4
 70
     0
  9
$USERI5
 70
     0
  9
$USERR1
 40
0.0
  9
$USERR2
 40
0.0
  9
$USERR3
 40
0.0
  9
$USERR4
 40
0.0
  9
$USERR5
 40
0.0
  9
$WORLDVIEW
 70
     1
  9
$SHADEDGE
 70
     3
  9
$SHADEDIF
 70
    70
  9
$TILEMODE
 70
     1
  9
$MAXACTVP
 70
    64
  9
$PINSBASE
 10
0.0
 20
0.0
 30
0.0
  9
$PLIMCHECK
 70
     0
  9
$PEXTMIN
 10
1.000000000000000E+20
 20
1.000000000000000E+20
 30
1.000000000000000E+20
  9
$PEXTMAX
 10
-1.000000000000000E+20
 20
-1.000000000000000E+20
 30
-1.000000000000000E+20
  9
$PLIMMIN
 10
0.0
 20
0.0
  9
$PLIMMAX
 10
12.0
 20
9.0
  9
$UNITMODE
 70
     0
  9
$VISRETAIN
 70
     1
  9
$PLINEGEN
 70
     0
  9
$PSLTSCALE
 70
     1
  9
$TREEDEPTH
 70
  3020
  9
$CMLSTYLE
  2
Standard
  9
$CMLJUST
 70
     0
  9
$CMLSCALE
 40
1.0
  9
$PROXYGRAPHICS
 70
     1
  9
$MEASUREMENT
 70
     0
  9
$CELWEIGHT
370
    -1
  9
$ENDCAPS
280
     0
  9
$JOINSTYLE
280
     0
  9
$LWDISPLAY
290
     0
  9
$INSUNITS
 70
     4
  9
$HYPERLINKBASE
  1

  9
$STYLESHEET
  1

  9
$XEDIT
290
     1
  9
$CEPSNTYPE
380
     0
  9
$PSTYLEMODE
290
     1
  9
$FINGERPRINTGUID
  2
{100B85CD-7BA5-47F3-84C0-71390D8E751D}
  9
$VERSIONGUID
  2
{FAEB1C32-E019-11D5-929B-00C0DF256EC4}
  9
$EXTNAMES
290
     1
  9
$PSVPSCALE
 40
0.0
  9
$OLESTARTUP
290
     0
  9
$SORTENTS
280
   127
  9
$INDEXCTL
280
     0
  9
$HIDETEXT
280
     1
  9
$XCLIPFRAME
290
     0
  9
$HALOGAP
280
     0
  9
$OBSCOLOR
 70
   257
  9
$OBSLTYPE
280
     0
  9
$INTERSECTIONDISPLAY
280
     0
  9
$INTERSECTIONCOLOR
 70
   257
  9
$DIMASSOC
280
     2
  9
$PROJECTNAME
  1

  0
ENDSEC
  0
SECTION
  2
CLASSES
  0
CLASS
  1
ACDBDICTIONARYWDFLT
  2
AcDbDictionaryWithDefault
  3
ObjectDBX Classes
 90
        0
 91
        4
280
     0
281
     0
  0
CLASS
  1
VISUALSTYLE
  2
AcDbVisualStyle
  3
ObjectDBX Classes
 90
     4095
 91
        4
280
     0
281
     0
  0
CLASS
  1
MATERIAL
  2
AcDbMaterial
  3
ObjectDBX Classes
 90
     1153
 91
        4
280
     0
281
     0
  0
CLASS
  1
SUN
  2
AcDbSun
  3
SCENEOE
 90
     1024
 91
        4
280
     0
281
     0
  0
ENDSEC
  0
SECTION
  2
TABLES
  0
TABLE
  2
VPORT
  5
8
330
0
100
AcDbSymbolTable
 70
     1
  0
VPORT
  5
29
330
8
100
AcDbSymbolTableRecord
100
AcDbViewportTableRecord
  2
*Active
 70
     0
 10
0.0
 20
0.0
 11
1.0
 21
1.0
 12
170.0000000000001
 22
99.99999999999916
 13
0.0
 23
0.0
 14
0.5
 24
0.5
 15
0.5
 25
0.5
 16
0.0
 26
0.0
 36
1.0
 17
0.0
 27
0.0
 37
0.0
 40
204.000000000002
 41
1.704999999999987
 42
50.0
 43
0.0
 44
0.0
 50
0.0
 51
0.0
 71
     0
 72
   100
 73
     1
 74
     3
 75
     0
 76
     0
 77
     0
 78
     0
281
     0
 65
     1
110
0.0
120
0.0
130
0.0
111
1.0
121
0.0
131
0.0
112
0.0
122
1.0
132
0.0
 79
     0
146
0.0
  0
ENDTAB
  0
TABLE
  2
LTYPE
  5
5
330
0
100
AcDbSymbolTable
 70
     1
  0
LTYPE
  5
14
330
5
100
AcDbSymbolTableRecord
100
AcDbLinetypeTableRecord
  2
ByBlock
 70
     0
  3

 72
    65
 73
     0
 40
0.0
  0
LTYPE
  5
15
330
5
100
AcDbSymbolTableRecord
100
AcDbLinetypeTableRecord
  2
ByLayer
 70
     0
  3

 72
    65
 73
     0
 40
0.0
  0
LTYPE
  5
16
330
5
100
AcDbSymbolTableRecord
100
AcDbLinetypeTableRecord
  2
Continuous
 70
     0
  3
Solid line
 72
    65
 73
     0
 40
0.0
  0
ENDTAB
  0
TABLE
  2
LAYER
  5
2
330
0
100
AcDbSymbolTable
 70
     3
  0
LAYER
  5
10
330
2
100
AcDbSymbolTableRecord
100
AcDbLayerTableRecord
  2
0
 70
     0
 62
     7
  6
Continuous
370
    -3
390
F
  0
LAYER
  5
40
330
2
100
AcDbSymbolTableRecord
100
AcDbLayerTableRecord
  2
20mm Cutouts
 70
     0
 62
     1
420
 16711680
  6
Continuous
370
    -3
390
F
  0
LAYER
  5
45
330
2
100
AcDbSymbolTableRecord
100
AcDbLayerTableRecord
  2
Engraving
 70
     0
 62
     6
420
 16711935
  6
Continuous
370
    -3
390
F
  0
ENDTAB
  0
TABLE
  2
STYLE
  5
3
330
0
100
AcDbSymbolTable
 70
     1
  0
STYLE
  5
11
330
3
100
AcDbSymbolTableRecord
100
AcDbTextStyleTableRecord
  2
Standard
 70
     0
 40
0.0
 41
1.0
 50
0.0
 71
     0
 42
0.2
  3
txt
  4

  0
ENDTAB
  0
TABLE
  2
VIEW
  5
6
330
0
100
AcDbSymbolTable
 70
     0
  0
ENDTAB
  0
TABLE
  2
UCS
  5
7
330
0
100
AcDbSymbolTable
 70
     0
  0
ENDTAB
  0
TABLE
  2
APPID
  5
9
330
0
100
AcDbSymbolTable
 70
     1
  0
APPID
  5
12
330
9
100
AcDbSymbolTableRecord
100
AcDbRegAppTableRecord
  2
ACAD
 70
     0
  0
ENDTAB
  0
TABLE
  2
DIMSTYLE
  5
A
330
0
100
AcDbSymbolTable
 70
     1
100
AcDbDimStyleTable
  0
DIMSTYLE
105
27
330
A
100
AcDbSymbolTableRecord
100
AcDbDimStyleTableRecord
  2
Standard
 70
     0
178
     0
340
11
  0
ENDTAB
  0
TABLE
  2
BLOCK_RECORD
  5
1
330
0
100
AcDbSymbolTable
 70
     1
  0
BLOCK_RECORD
  5
1F
330
1
100
AcDbSymbolTableRecord
100
AcDbBlockTableRecord
  2
*Model_Space
340
22
  0
BLOCK_RECORD
  5
1B
330
1
100
AcDbSymbolTableRecord
100
AcDbBlockTableRecord
  2
*Paper_Space
340
1E
  0
BLOCK_RECORD
  5
23
330
1
100
AcDbSymbolTableRecord
100
AcDbBlockTableRecord
  2
*Paper_Space0
340
26
  0
ENDTAB
  0
ENDSEC
  0
SECTION
  2
BLOCKS
  0
BLOCK
  5
20
330
1F
100
AcDbEntity
  8
0
100
AcDbBlockBegin
  2
*Model_Space
 70
     0
 10
0.0
 20
0.0
 30
0.0
  3
*Model_Space
  1

  0
ENDBLK
  5
21
330
1F
100
AcDbEntity
  8
0
100
AcDbBlockEnd
  0
BLOCK
  5
1C
330
1B
100
AcDbEntity
 67
     1
  8
0
100
AcDbBlockBegin
  2
*Paper_Space
 70
     0
 10
0.0
 20
0.0
 30
0.0
  3
*Paper_Space
  1

  0
ENDBLK
  5
1D
330
1B
100
AcDbEntity
 67
     1
  8
0
100
AcDbBlockEnd
  0
BLOCK
  5
24
330
23
100
AcDbEntity
  8
0
100
AcDbBlockBegin
  2
*Paper_Space0
 70
     0
 10
0.0
 20
0.0
 30
0.0
  3
*Paper_Space0
  1

  0
ENDBLK
  5
25
330
23
100
AcDbEntity
  8
0
100
AcDbBlockEnd
  0
ENDSEC
  0
SECTION
  2
ENTITIES
  0
LINE
  5
41
330
1F
100
AcDbEntity
  8
20mm Cutouts
100
AcDbLine
 10
340.0000000000001
 20
-0.000000000001819
 30
0.0
 11
0.0
 21
0.0
 31
0.0
  0
LINE
  5
42
330
1F
100
AcDbEntity
  8
20mm Cutouts
100
AcDbLine
 10
0.0
 20
0.0
 30
0.0
 11
0.0000000000011369
 21
200.0
 31
0.0
  0
LINE
  5
43
330
1F
100
AcDbEntity
  8
20mm Cutouts
100
AcDbLine
 10
0.0000000000011369
 20
200.0
 30
0.0
 11
340.000000000001
 21
199.9999999999982
 31
0.0
  0
LINE
  5
44
330
1F
100
AcDbEntity
  8
20mm Cutouts
100
AcDbLine
 10
340.000000000001
 20
199.9999999999982
 30
0.0
 11
340.0000000000001
 21
-0.000000000001819
 31
0.0
  0
LINE
  5
46
330
1F
100
AcDbEntity
  8
Engraving
100
AcDbLine
 10
190.0
 20
79.9999999999992
 30
0.0000000000008527
 11
150.0000000000002
 21
119.9999999999994
 31
0.0000000000008527
  0
CIRCLE
  5
47
330
1F
100
AcDbEntity
  8
Engraving
100
AcDbCircle
 10
170.0
 20
99.99999999999946
 30
0.0000000000008527
 40
10.00000000000003
  0
CIRCLE
  5
48
330
1F
100
AcDbEntity
  8
Engraving
100
AcDbCircle
 10
170.0
 20
99.99999999999943
 30
0.0000000000008527
 40
20.0
  0
LINE
  5
49
330
1F
100
AcDbEntity
  8
Engraving
100
AcDbLine
 10
150.0
 20
79.99999999999943
 30
0.0000000000008527
 11
190.0000000000002
 21
119.9999999999992
 31
0.0000000000008527
  0
CIRCLE
  5
4A
330
1F
100
AcDbEntity
  8
Engraving
100
AcDbCircle
 10
170.0
 20
99.99999999999943
 30
0.0000000000008527
 40
0.5
  0
CIRCLE
  5
4B
330
1F
100
AcDbEntity
  8
Engraving
100
AcDbCircle
 10
180.0
 20
109.9999999999992
 30
0.0000000000008527
 40
0.4999999999999716
  0
CIRCLE
  5
4C
330
1F
100
AcDbEntity
  8
Engraving
100
AcDbCircle
 10
180.0
 20
89.99999999999923
 30
0.0000000000008527
 40
0.4999999999999716
  0
CIRCLE
  5
4D
330
1F
100
AcDbEntity
  8
Engraving
100
AcDbCircle
 10
160.0
 20
89.99999999999943
 30
0.0000000000008527
 40
0.5
  0
CIRCLE
  5
4E
330
1F
100
AcDbEntity
  8
Engraving
100
AcDbCircle
 10
160.0
 20
109.9999999999994
 30
0.0000000000008527
 40
0.5
  0
CIRCLE
  5
4F
330
1F
100
AcDbEntity
  8
Engraving
100
AcDbCircle
 10
200.0
 20
109.9999999999992
 30
0.0000000000008527
 40
0.4999999999999716
  0
CIRCLE
  5
50
330
1F
100
AcDbEntity
  8
Engraving
100
AcDbCircle
 10
200.0000000000002
 20
89.99999999999923
 30
0.0000000000008527
 40
0.4999999999999716
  0
CIRCLE
  5
51
330
1F
100
AcDbEntity
  8
Engraving
100
AcDbCircle
 10
220.0000000000003
 20
89.99999999999895
 30
0.0000000000008527
 40
0.5000000000000284
  0
CIRCLE
  5
52
330
1F
100
AcDbEntity
  8
Engraving
100
AcDbCircle
 10
220.0
 20
109.999999999999
 30
0.0000000000008527
 40
0.5
  0
CIRCLE
  5
53
330
1F
100
AcDbEntity
  8
Engraving
100
AcDbCircle
 10
210.0000000000003
 20
99.9999999999992
 30
0.0000000000008527
 40
0.5
  0
LINE
  5
54
330
1F
100
AcDbEntity
  8
Engraving
100
AcDbLine
 10
190.0
 20
79.9999999999992
 30
0.0000000000008527
 11
230.0000000000002
 21
119.999999999999
 31
0.0000000000008527
  0
CIRCLE
  5
55
330
1F
100
AcDbEntity
  8
Engraving
100
AcDbCircle
 10
210.0
 20
99.9999999999992
 30
0.0000000000008527
 40
20.0
  0
CIRCLE
  5
56
330
1F
100
AcDbEntity
  8
Engraving
100
AcDbCircle
 10
210.0
 20
99.9999999999992
 30
0.0000000000008527
 40
10.0
  0
LINE
  5
57
330
1F
100
AcDbEntity
  8
Engraving
100
AcDbLine
 10
230.0
 20
79.99999999999898
 30
0.0000000000008527
 11
190.0000000000002
 21
119.9999999999992
 31
0.0000000000008527
  0
LINE
  5
58
330
1F
100
AcDbEntity
  8
Engraving
100
AcDbLine
 10
149.9999999999998
 20
39.99999999999943
 30
0.0000000000008527
 11
110.0
 21
79.99999999999966
 31
0.0000000000008527
  0
CIRCLE
  5
59
330
1F
100
AcDbEntity
  8
Engraving
100
AcDbCircle
 10
130.0
 20
59.99999999999967
 30
0.0000000000008527
 40
10.00000000000001
  0
CIRCLE
  5
5A
330
1F
100
AcDbEntity
  8
Engraving
100
AcDbCircle
 10
129.9999999999998
 20
59.99999999999967
 30
0.0000000000008527
 40
20.0
  0
LINE
  5
5B
330
1F
100
AcDbEntity
  8
Engraving
100
AcDbLine
 10
110.0
 20
39.99999999999966
 30
0.0000000000008527
 11
150.0
 21
79.99999999999943
 31
0.0000000000008527
  0
CIRCLE
  5
5C
330
1F
100
AcDbEntity
  8
Engraving
100
AcDbCircle
 10
130.0
 20
59.99999999999966
 30
0.0000000000008527
 40
0.5
  0
CIRCLE
  5
5D
330
1F
100
AcDbEntity
  8
Engraving
100
AcDbCircle
 10
140.0
 20
69.99999999999943
 30
0.0000000000008527
 40
0.5
  0
CIRCLE
  5
5E
330
1F
100
AcDbEntity
  8
Engraving
100
AcDbCircle
 10
140.0
 20
49.9999999999994
 30
0.0000000000008527
 40
0.5000000000000284
  0
CIRCLE
  5
5F
330
1F
100
AcDbEntity
  8
Engraving
100
AcDbCircle
 10
120.0
 20
49.99999999999966
 30
0.0000000000008527
 40
0.5
  0
CIRCLE
  5
60
330
1F
100
AcDbEntity
  8
Engraving
100
AcDbCircle
 10
120.0
 20
69.99999999999966
 30
0.0000000000008527
 40
0.5
  0
LINE
  5
61
330
1F
100
AcDbEntity
  8
Engraving
100
AcDbLine
 10
189.9999999999998
 20
39.9999999999992
 30
0.0000000000008527
 11
150.0
 21
79.99999999999943
 31
0.0000000000008527
  0
CIRCLE
  5
62
330
1F
100
AcDbEntity
  8
Engraving
100
AcDbCircle
 10
170.0
 20
59.99999999999944
 30
0.0000000000008527
 40
10.00000000000001
  0
CIRCLE
  5
63
330
1F
100
AcDbEntity
  8
Engraving
100
AcDbCircle
 10
169.9999999999999
 20
59.99999999999956
 30
0.0000000000008527
 40
20.00000000000011
  0
LINE
  5
64
330
1F
100
AcDbEntity
  8
Engraving
100
AcDbLine
 10
149.9999999999998
 20
39.99999999999943
 30
0.0000000000008527
 11
190.0
 21
79.9999999999992
 31
0.0000000000008527
  0
CIRCLE
  5
65
330
1F
100
AcDbEntity
  8
Engraving
100
AcDbCircle
 10
170.0
 20
59.99999999999943
 30
0.0000000000008527
 40
0.5
  0
CIRCLE
  5
66
330
1F
100
AcDbEntity
  8
Engraving
100
AcDbCircle
 10
180.0
 20
69.9999999999992
 30
0.0000000000008527
 40
0.5
  0
CIRCLE
  5
67
330
1F
100
AcDbEntity
  8
Engraving
100
AcDbCircle
 10
180.0
 20
49.9999999999992
 30
0.0000000000008527
 40
0.5
  0
CIRCLE
  5
68
330
1F
100
AcDbEntity
  8
Engraving
100
AcDbCircle
 10
160.0
 20
49.99999999999943
 30
0.0000000000008527
 40
0.5
  0
CIRCLE
  5
69
330
1F
100
AcDbEntity
  8
Engraving
100
AcDbCircle
 10
159.9999999999998
 20
69.99999999999945
 30
0.0000000000008527
 40
0.4999999999999858
  0
CIRCLE
  5
6A
330
1F
100
AcDbEntity
  8
Engraving
100
AcDbCircle
 10
200.0
 20
69.99999999999926
 30
0.0000000000008527
 40
0.4999999999999432
  0
CIRCLE
  5
6B
330
1F
100
AcDbEntity
  8
Engraving
100
AcDbCircle
 10
200.0
 20
49.9999999999992
 30
0.0000000000008527
 40
0.5
  0
CIRCLE
  5
6C
330
1F
100
AcDbEntity
  8
Engraving
100
AcDbCircle
 10
220.0
 20
49.99999999999898
 30
0.0000000000008527
 40
0.5
  0
CIRCLE
  5
6D
330
1F
100
AcDbEntity
  8
Engraving
100
AcDbCircle
 10
220.0
 20
69.99999999999898
 30
0.0000000000008527
 40
0.5
  0
CIRCLE
  5
6E
330
1F
100
AcDbEntity
  8
Engraving
100
AcDbCircle
 10
210.0
 20
59.9999999999992
 30
0.0000000000008527
 40
0.5
  0
LINE
  5
6F
330
1F
100
AcDbEntity
  8
Engraving
100
AcDbLine
 10
189.9999999999998
 20
39.9999999999992
 30
0.0000000000008527
 11
230.0
 21
79.99999999999898
 31
0.0000000000008527
  0
CIRCLE
  5
70
330
1F
100
AcDbEntity
  8
Engraving
100
AcDbCircle
 10
209.9999999999999
 20
59.99999999999906
 30
0.0000000000008527
 40
19.99999999999991
  0
CIRCLE
  5
71
330
1F
100
AcDbEntity
  8
Engraving
100
AcDbCircle
 10
209.9999999999997
 20
59.99999999999915
 30
0.0000000000008527
 40
9.999999999999943
  0
LINE
  5
72
330
1F
100
AcDbEntity
  8
Engraving
100
AcDbLine
 10
229.9999999999998
 20
39.99999999999898
 30
0.0000000000008527
 11
190.0
 21
79.9999999999992
 31
0.0000000000008527
  0
LINE
  5
73
330
1F
100
AcDbEntity
  8
Engraving
100
AcDbLine
 10
229.9999999999998
 20
-0.0000000000010232
 30
0.0000000000008527
 11
189.9999999999998
 21
39.9999999999992
 31
0.0000000000008527
  0
CIRCLE
  5
74
330
1F
100
AcDbEntity
  8
Engraving
100
AcDbCircle
 10
209.9999999999995
 20
19.99999999999918
 30
0.0000000000008527
 40
9.999999999999972
  0
CIRCLE
  5
75
330
1F
100
AcDbEntity
  8
Engraving
100
AcDbCircle
 10
209.9999999999997
 20
19.99999999999909
 30
0.0000000000008527
 40
19.99999999999989
  0
LINE
  5
76
330
1F
100
AcDbEntity
  8
Engraving
100
AcDbLine
 10
189.9999999999998
 20
-0.0000000000007958
 30
0.0000000000008527
 11
229.9999999999998
 21
39.99999999999898
 31
0.0000000000008527
  0
CIRCLE
  5
77
330
1F
100
AcDbEntity
  8
Engraving
100
AcDbCircle
 10
209.9999999999998
 20
19.9999999999992
 30
0.0000000000008527
 40
0.5
  0
CIRCLE
  5
78
330
1F
100
AcDbEntity
  8
Engraving
100
AcDbCircle
 10
219.9999999999998
 20
29.99999999999901
 30
0.0000000000008527
 40
0.4999999999999716
  0
CIRCLE
  5
79
330
1F
100
AcDbEntity
  8
Engraving
100
AcDbCircle
 10
219.9999999999998
 20
9.999999999998977
 30
0.0000000000008527
 40
0.5
  0
CIRCLE
  5
7A
330
1F
100
AcDbEntity
  8
Engraving
100
AcDbCircle
 10
199.9999999999998
 20
9.999999999999204
 30
0.0000000000008527
 40
0.5
  0
CIRCLE
  5
7B
330
1F
100
AcDbEntity
  8
Engraving
100
AcDbCircle
 10
199.9999999999997
 20
29.99999999999923
 30
0.0000000000008527
 40
0.4999999999999716
  0
CIRCLE
  5
7C
330
1F
100
AcDbEntity
  8
Engraving
100
AcDbCircle
 10
159.9999999999998
 20
29.99999999999943
 30
0.0000000000008527
 40
0.5
  0
CIRCLE
  5
7D
330
1F
100
AcDbEntity
  8
Engraving
100
AcDbCircle
 10
159.9999999999998
 20
9.999999999999432
 30
0.0000000000008527
 40
0.5
  0
CIRCLE
  5
7E
330
1F
100
AcDbEntity
  8
Engraving
100
AcDbCircle
 10
179.9999999999998
 20
9.999999999999204
 30
0.0000000000008527
 40
0.5
  0
CIRCLE
  5
7F
330
1F
100
AcDbEntity
  8
Engraving
100
AcDbCircle
 10
179.9999999999998
 20
29.9999999999992
 30
0.0000000000008527
 40
0.5
  0
CIRCLE
  5
80
330
1F
100
AcDbEntity
  8
Engraving
100
AcDbCircle
 10
169.9999999999998
 20
19.99999999999943
 30
0.0000000000008527
 40
0.5
  0
LINE
  5
81
330
1F
100
AcDbEntity
  8
Engraving
100
AcDbLine
 10
149.9999999999998
 20
-0.0000000000005684
 30
0.0000000000008527
 11
189.9999999999998
 21
39.9999999999992
 31
0.0000000000008527
  0
CIRCLE
  5
82
330
1F
100
AcDbEntity
  8
Engraving
100
AcDbCircle
 10
169.9999999999998
 20
19.99999999999943
 30
0.0000000000008527
 40
20.0
  0
CIRCLE
  5
83
330
1F
100
AcDbEntity
  8
Engraving
100
AcDbCircle
 10
169.9999999999998
 20
19.99999999999941
 30
0.0000000000008527
 40
9.999999999999982
  0
LINE
  5
84
330
1F
100
AcDbEntity
  8
Engraving
100
AcDbLine
 10
189.9999999999998
 20
-0.0000000000007958
 30
0.0000000000008527
 11
149.9999999999998
 21
39.99999999999943
 31
0.0000000000008527
  0
CIRCLE
  5
85
330
1F
100
AcDbEntity
  8
Engraving
100
AcDbCircle
 10
119.9999999999998
 20
29.99999999999966
 30
0.0000000000008527
 40
0.5
  0
CIRCLE
  5
86
330
1F
100
AcDbEntity
  8
Engraving
100
AcDbCircle
 10
119.9999999999998
 20
9.999999999999659
 30
0.0000000000008527
 40
0.5
  0
CIRCLE
  5
87
330
1F
100
AcDbEntity
  8
Engraving
100
AcDbCircle
 10
139.9999999999998
 20
9.999999999999432
 30
0.0000000000008527
 40
0.5
  0
CIRCLE
  5
88
330
1F
100
AcDbEntity
  8
Engraving
100
AcDbCircle
 10
139.9999999999998
 20
29.99999999999943
 30
0.0000000000008527
 40
0.5
  0
CIRCLE
  5
89
330
1F
100
AcDbEntity
  8
Engraving
100
AcDbCircle
 10
129.9999999999998
 20
19.99999999999966
 30
0.0000000000008527
 40
0.5
  0
LINE
  5
8A
330
1F
100
AcDbEntity
  8
Engraving
100
AcDbLine
 10
109.9999999999998
 20
-0.0000000000003411
 30
0.0000000000008527
 11
149.9999999999998
 21
39.99999999999943
 31
0.0000000000008527
  0
CIRCLE
  5
8B
330
1F
100
AcDbEntity
  8
Engraving
100
AcDbCircle
 10
129.9999999999998
 20
19.99999999999965
 30
0.0000000000008527
 40
20.0
  0
CIRCLE
  5
8C
330
1F
100
AcDbEntity
  8
Engraving
100
AcDbCircle
 10
129.9999999999998
 20
19.99999999999967
 30
0.0000000000008527
 40
10.00000000000001
  0
LINE
  5
8D
330
1F
100
AcDbEntity
  8
Engraving
100
AcDbLine
 10
149.9999999999998
 20
-0.0000000000005684
 30
0.0000000000008527
 11
110.0
 21
39.99999999999966
 31
0.0000000000008527
  0
LINE
  5
8E
330
1F
100
AcDbEntity
  8
Engraving
100
AcDbLine
 10
150.0
 20
79.99999999999943
 30
0.0000000000008527
 11
110.0000000000002
 21
119.9999999999997
 31
0.0000000000008527
  0
CIRCLE
  5
8F
330
1F
100
AcDbEntity
  8
Engraving
100
AcDbCircle
 10
130.0
 20
99.99999999999964
 30
0.0000000000008527
 40
9.999999999999986
  0
CIRCLE
  5
90
330
1F
100
AcDbEntity
  8
Engraving
100
AcDbCircle
 10
130.0
 20
99.99999999999967
 30
0.0000000000008527
 40
20.0
  0
LINE
  5
91
330
1F
100
AcDbEntity
  8
Engraving
100
AcDbLine
 10
110.0
 20
79.99999999999966
 30
0.0000000000008527
 11
150.0000000000002
 21
119.9999999999994
 31
0.0000000000008527
  0
CIRCLE
  5
92
330
1F
100
AcDbEntity
  8
Engraving
100
AcDbCircle
 10
130.0000000000002
 20
99.99999999999963
 30
0.0000000000008527
 40
0.5000000000000284
  0
CIRCLE
  5
93
330
1F
100
AcDbEntity
  8
Engraving
100
AcDbCircle
 10
140.0
 20
109.9999999999994
 30
0.0000000000008527
 40
0.5
  0
CIRCLE
  5
94
330
1F
100
AcDbEntity
  8
Engraving
100
AcDbCircle
 10
140.0
 20
89.99999999999943
 30
0.0000000000008527
 40
0.5
  0
CIRCLE
  5
95
330
1F
100
AcDbEntity
  8
Engraving
100
AcDbCircle
 10
120.0000000000002
 20
89.99999999999966
 30
0.0000000000008527
 40
0.5
  0
CIRCLE
  5
96
330
1F
100
AcDbEntity
  8
Engraving
100
AcDbCircle
 10
120.0
 20
109.9999999999997
 30
0.0000000000008527
 40
0.5
  0
LINE
  5
97
330
1F
100
AcDbEntity
  8
Engraving
100
AcDbLine
 10
70.0
 20
79.99999999999989
 30
0.0000000000008527
 11
30.00000000000023
 21
120.0000000000001
 31
0.0000000000008527
  0
CIRCLE
  5
98
330
1F
100
AcDbEntity
  8
Engraving
100
AcDbCircle
 10
49.99999999999999
 20
100.0000000000001
 30
0.0000000000008527
 40
9.999999999999986
  0
CIRCLE
  5
99
330
1F
100
AcDbEntity
  8
Engraving
100
AcDbCircle
 10
50.0
 20
100.0000000000001
 30
0.0000000000008527
 40
20.0
  0
LINE
  5
9A
330
1F
100
AcDbEntity
  8
Engraving
100
AcDbLine
 10
30.00000000000023
 20
80.00000000000011
 30
0.0000000000008527
 11
70.00000000000023
 21
119.9999999999999
 31
0.0000000000008527
  0
CIRCLE
  5
9B
330
1F
100
AcDbEntity
  8
Engraving
100
AcDbCircle
 10
50.0
 20
100.0000000000001
 30
0.0000000000008527
 40
0.5
  0
CIRCLE
  5
9C
330
1F
100
AcDbEntity
  8
Engraving
100
AcDbCircle
 10
59.99999999999999
 20
109.9999999999999
 30
0.0000000000008527
 40
0.4999999999999858
  0
CIRCLE
  5
9D
330
1F
100
AcDbEntity
  8
Engraving
100
AcDbCircle
 10
60.00000000000003
 20
89.99999999999989
 30
0.0000000000008527
 40
0.5
  0
CIRCLE
  5
9E
330
1F
100
AcDbEntity
  8
Engraving
100
AcDbCircle
 10
40.00000000000001
 20
90.0000000000001
 30
0.0000000000008527
 40
0.5000000000000142
  0
CIRCLE
  5
9F
330
1F
100
AcDbEntity
  8
Engraving
100
AcDbCircle
 10
40.00000000000001
 20
110.0000000000001
 30
0.0000000000008527
 40
0.5
  0
CIRCLE
  5
A0
330
1F
100
AcDbEntity
  8
Engraving
100
AcDbCircle
 10
80.00000000000001
 20
109.9999999999999
 30
0.0000000000008527
 40
0.5000000000000142
  0
CIRCLE
  5
A1
330
1F
100
AcDbEntity
  8
Engraving
100
AcDbCircle
 10
79.99999999999999
 20
89.9999999999999
 30
0.0000000000008527
 40
0.4999999999999858
  0
CIRCLE
  5
A2
330
1F
100
AcDbEntity
  8
Engraving
100
AcDbCircle
 10
100.0000000000002
 20
89.99999999999966
 30
0.0000000000008527
 40
0.5
  0
CIRCLE
  5
A3
330
1F
100
AcDbEntity
  8
Engraving
100
AcDbCircle
 10
99.99999999999997
 20
109.9999999999997
 30
0.0000000000008527
 40
0.5
  0
CIRCLE
  5
A4
330
1F
100
AcDbEntity
  8
Engraving
100
AcDbCircle
 10
90.00000000000023
 20
99.99999999999986
 30
0.0000000000008527
 40
0.5000000000000284
  0
LINE
  5
A5
330
1F
100
AcDbEntity
  8
Engraving
100
AcDbLine
 10
70.0
 20
79.99999999999989
 30
0.0000000000008527
 11
110.0000000000002
 21
119.9999999999997
 31
0.0000000000008527
  0
CIRCLE
  5
A6
330
1F
100
AcDbEntity
  8
Engraving
100
AcDbCircle
 10
89.99999999999997
 20
99.99999999999987
 30
0.0000000000008527
 40
20.00000000000003
  0
CIRCLE
  5
A7
330
1F
100
AcDbEntity
  8
Engraving
100
AcDbCircle
 10
90.00000000000021
 20
99.9999999999999
 30
0.0000000000008527
 40
10.00000000000001
  0
LINE
  5
A8
330
1F
100
AcDbEntity
  8
Engraving
100
AcDbLine
 10
110.0
 20
79.99999999999966
 30
0.0000000000008527
 11
70.00000000000023
 21
119.9999999999999
 31
0.0000000000008527
  0
CIRCLE
  5
A9
330
1F
100
AcDbEntity
  8
Engraving
100
AcDbCircle
 10
10.00000000000001
 20
60.0000000000001
 30
0.0000000000008527
 40
9.999999999999986
  0
CIRCLE
  5
AA
330
1F
100
AcDbEntity
  8
Engraving
100
AcDbCircle
 10
9.999999999999996
 20
60.00000000000011
 30
0.0000000000008527
 40
0.5
  0
CIRCLE
  5
AB
330
1F
100
AcDbEntity
  8
Engraving
100
AcDbCircle
 10
20.00000000000011
 20
70.0
 30
0.0000000000008527
 40
0.5000000000001137
  0
CIRCLE
  5
AC
330
1F
100
AcDbEntity
  8
Engraving
100
AcDbCircle
 10
20.00000000000001
 20
49.99999999999988
 30
0.0000000000008527
 40
0.5000000000000071
  0
CIRCLE
  5
AD
330
1F
100
AcDbEntity
  8
Engraving
100
AcDbCircle
 10
-0.000000000000005
 20
50.00000000000011
 30
0.0000000000008527
 40
0.5
  0
CIRCLE
  5
AE
330
1F
100
AcDbEntity
  8
Engraving
100
AcDbCircle
 10
-0.000000000000005
 20
70.00000000000011
 30
0.0000000000008527
 40
0.5
  0
LINE
  5
AF
330
1F
100
AcDbEntity
  8
Engraving
100
AcDbLine
 10
69.99999999999977
 20
39.99999999999989
 30
0.0000000000008527
 11
30.00000000000023
 21
80.00000000000011
 31
0.0000000000008527
  0
CIRCLE
  5
B0
330
1F
100
AcDbEntity
  8
Engraving
100
AcDbCircle
 10
50.0
 20
60.00000000000011
 30
0.0000000000008527
 40
10.0
  0
CIRCLE
  5
B1
330
1F
100
AcDbEntity
  8
Engraving
100
AcDbCircle
 10
50.0
 20
60.00000000000011
 30
0.0000000000008527
 40
20.0
  0
LINE
  5
B2
330
1F
100
AcDbEntity
  8
Engraving
100
AcDbLine
 10
30.0
 20
40.00000000000011
 30
0.0000000000008527
 11
70.0
 21
79.99999999999989
 31
0.0000000000008527
  0
CIRCLE
  5
B3
330
1F
100
AcDbEntity
  8
Engraving
100
AcDbCircle
 10
50.00000000000001
 20
60.00000000000011
 30
0.0000000000008527
 40
0.5000000000000071
  0
CIRCLE
  5
B4
330
1F
100
AcDbEntity
  8
Engraving
100
AcDbCircle
 10
60.00000000000001
 20
69.99999999999989
 30
0.0000000000008527
 40
0.5
  0
CIRCLE
  5
B5
330
1F
100
AcDbEntity
  8
Engraving
100
AcDbCircle
 10
60.00000000000001
 20
49.99999999999988
 30
0.0000000000008527
 40
0.5000000000000071
  0
CIRCLE
  5
B6
330
1F
100
AcDbEntity
  8
Engraving
100
AcDbCircle
 10
39.99999999999999
 20
50.00000000000012
 30
0.0000000000008527
 40
0.4999999999999929
  0
CIRCLE
  5
B7
330
1F
100
AcDbEntity
  8
Engraving
100
AcDbCircle
 10
39.99999999999999
 20
70.00000000000011
 30
0.0000000000008527
 40
0.5
  0
CIRCLE
  5
B8
330
1F
100
AcDbEntity
  8
Engraving
100
AcDbCircle
 10
79.99999999999977
 20
69.99999999999989
 30
0.0000000000008527
 40
0.5
  0
CIRCLE
  5
B9
330
1F
100
AcDbEntity
  8
Engraving
100
AcDbCircle
 10
79.99999999999977
 20
49.99999999999988
 30
0.0000000000008527
 40
0.5000000000000071
  0
CIRCLE
  5
BA
330
1F
100
AcDbEntity
  8
Engraving
100
AcDbCircle
 10
100.0
 20
49.99999999999967
 30
0.0000000000008527
 40
0.4999999999999858
  0
CIRCLE
  5
BB
330
1F
100
AcDbEntity
  8
Engraving
100
AcDbCircle
 10
100.0
 20
69.99999999999967
 30
0.0000000000008527
 40
0.4999999999999858
  0
CIRCLE
  5
BC
330
1F
100
AcDbEntity
  8
Engraving
100
AcDbCircle
 10
89.99999999999999
 20
59.9999999999999
 30
0.0000000000008527
 40
0.4999999999999858
  0
LINE
  5
BD
330
1F
100
AcDbEntity
  8
Engraving
100
AcDbLine
 10
69.99999999999977
 20
39.99999999999989
 30
0.0000000000008527
 11
110.0
 21
79.99999999999966
 31
0.0000000000008527
  0
CIRCLE
  5
BE
330
1F
100
AcDbEntity
  8
Engraving
100
AcDbCircle
 10
89.99999999999989
 20
59.99999999999977
 30
0.0000000000008527
 40
19.99999999999989
  0
CIRCLE
  5
BF
330
1F
100
AcDbEntity
  8
Engraving
100
AcDbCircle
 10
90.00000000000001
 20
59.9999999999999
 30
0.0000000000008527
 40
10.00000000000001
  0
LINE
  5
C0
330
1F
100
AcDbEntity
  8
Engraving
100
AcDbLine
 10
110.0
 20
39.99999999999966
 30
0.0000000000008527
 11
70.0
 21
79.99999999999989
 31
0.0000000000008527
  0
LINE
  5
C1
330
1F
100
AcDbEntity
  8
Engraving
100
AcDbLine
 10
109.9999999999998
 20
-0.0000000000003411
 30
0.0000000000008527
 11
69.99999999999977
 21
39.99999999999989
 31
0.0000000000008527
  0
CIRCLE
  5
C2
330
1F
100
AcDbEntity
  8
Engraving
100
AcDbCircle
 10
89.99999999999977
 20
19.99999999999988
 30
0.0000000000008527
 40
9.99999999999999
  0
CIRCLE
  5
C3
330
1F
100
AcDbEntity
  8
Engraving
100
AcDbCircle
 10
89.99999999999966
 20
20.0
 30
0.0000000000008527
 40
20.00000000000011
  0
LINE
  5
C4
330
1F
100
AcDbEntity
  8
Engraving
100
AcDbLine
 10
69.99999999999977
 20
-0.0000000000001137
 30
0.0000000000008527
 11
110.0
 21
39.99999999999966
 31
0.0000000000008527
  0
CIRCLE
  5
C5
330
1F
100
AcDbEntity
  8
Engraving
100
AcDbCircle
 10
89.99999999999977
 20
19.99999999999987
 30
0.0000000000008527
 40
0.5000000000000142
  0
CIRCLE
  5
C6
330
1F
100
AcDbEntity
  8
Engraving
100
AcDbCircle
 10
99.99999999999977
 20
29.99999999999966
 30
0.0000000000008527
 40
0.5
  0
CIRCLE
  5
C7
330
1F
100
AcDbEntity
  8
Engraving
100
AcDbCircle
 10
99.99999999999977
 20
9.999999999999659
 30
0.0000000000008527
 40
0.5
  0
CIRCLE
  5
C8
330
1F
100
AcDbEntity
  8
Engraving
100
AcDbCircle
 10
79.99999999999977
 20
9.999999999999886
 30
0.0000000000008527
 40
0.5
  0
CIRCLE
  5
C9
330
1F
100
AcDbEntity
  8
Engraving
100
AcDbCircle
 10
79.99999999999977
 20
29.99999999999987
 30
0.0000000000008527
 40
0.5000000000000142
  0
CIRCLE
  5
CA
330
1F
100
AcDbEntity
  8
Engraving
100
AcDbCircle
 10
39.99999999999977
 20
30.00000000000011
 30
0.0000000000008527
 40
0.5
  0
CIRCLE
  5
CB
330
1F
100
AcDbEntity
  8
Engraving
100
AcDbCircle
 10
39.99999999999977
 20
10.00000000000011
 30
0.0000000000008527
 40
0.5
  0
CIRCLE
  5
CC
330
1F
100
AcDbEntity
  8
Engraving
100
AcDbCircle
 10
59.99999999999977
 20
9.999999999999893
 30
0.0000000000008527
 40
0.4999999999999929
  0
CIRCLE
  5
CD
330
1F
100
AcDbEntity
  8
Engraving
100
AcDbCircle
 10
59.99999999999978
 20
29.99999999999988
 30
0.0000000000008527
 40
0.5000000000000071
  0
CIRCLE
  5
CE
330
1F
100
AcDbEntity
  8
Engraving
100
AcDbCircle
 10
49.99999999999977
 20
20.00000000000011
 30
0.0000000000008527
 40
0.5
  0
LINE
  5
CF
330
1F
100
AcDbEntity
  8
Engraving
100
AcDbLine
 10
29.99999999999977
 20
-0.0000000000001137
 30
0.0000000000008527
 11
69.99999999999977
 21
39.99999999999989
 31
0.0000000000008527
  0
CIRCLE
  5
D0
330
1F
100
AcDbEntity
  8
Engraving
100
AcDbCircle
 10
49.99999999999967
 20
19.99999999999999
 30
0.0000000000008527
 40
19.99999999999988
  0
CIRCLE
  5
D1
330
1F
100
AcDbEntity
  8
Engraving
100
AcDbCircle
 10
49.99999999999977
 20
20.00000000000011
 30
0.0000000000008527
 40
10.0
  0
LINE
  5
D2
330
1F
100
AcDbEntity
  8
Engraving
100
AcDbLine
 10
69.99999999999977
 20
-0.0000000000001137
 30
0.0000000000008527
 11
30.0
 21
40.00000000000011
 31
0.0000000000008527
  0
CIRCLE
  5
D3
330
1F
100
AcDbEntity
  8
Engraving
100
AcDbCircle
 10
-0.0000000000002286
 20
30.00000000000011
 30
0.0000000000008527
 40
0.5000000000000036
  0
CIRCLE
  5
D4
330
1F
100
AcDbEntity
  8
Engraving
100
AcDbCircle
 10
19.99999999999977
 20
9.999999999999886
 30
0.0000000000008527
 40
0.5
  0
CIRCLE
  5
D5
330
1F
100
AcDbEntity
  8
Engraving
100
AcDbCircle
 10
19.99999999999977
 20
29.99999999999989
 30
0.0000000000008527
 40
0.5
  0
CIRCLE
  5
D6
330
1F
100
AcDbEntity
  8
Engraving
100
AcDbCircle
 10
9.99999999999977
 20
20.00000000000011
 30
0.0000000000008527
 40
0.5
  0
CIRCLE
  5
D7
330
1F
100
AcDbEntity
  8
Engraving
100
AcDbCircle
 10
9.999999999999769
 20
20.00000000000011
 30
0.0000000000008527
 40
10.0
  0
CIRCLE
  5
D8
330
1F
100
AcDbEntity
  8
Engraving
100
AcDbCircle
 10
10.00000000000027
 20
100.0000000000001
 30
0.0000000000008527
 40
9.999999999999986
  0
CIRCLE
  5
D9
330
1F
100
AcDbEntity
  8
Engraving
100
AcDbCircle
 10
10.00000000000024
 20
100.0000000000001
 30
0.0000000000008527
 40
0.5
  0
CIRCLE
  5
DA
330
1F
100
AcDbEntity
  8
Engraving
100
AcDbCircle
 10
19.99999999999989
 20
110.0
 30
0.0000000000008527
 40
0.4999999999999005
  0
CIRCLE
  5
DB
330
1F
100
AcDbEntity
  8
Engraving
100
AcDbCircle
 10
20.00000000000011
 20
90.0
 30
0.0000000000008527
 40
0.4999999999998863
  0
CIRCLE
  5
DC
330
1F
100
AcDbEntity
  8
Engraving
100
AcDbCircle
 10
0.0000000000002261
 20
90.00000000000011
 30
0.0000000000008527
 40
0.5
  0
CIRCLE
  5
DD
330
1F
100
AcDbEntity
  8
Engraving
100
AcDbCircle
 10
0.0
 20
110.0000000000001
 30
0.0000000000008527
 40
0.5
  0
CIRCLE
  5
DE
330
1F
100
AcDbEntity
  8
Engraving
100
AcDbCircle
 10
340.0000000000001
 20
109.9999999999984
 30
0.0000000000008527
 40
0.4999999999998863
  0
CIRCLE
  5
DF
330
1F
100
AcDbEntity
  8
Engraving
100
AcDbCircle
 10
340.0
 20
89.9999999999985
 30
0.0000000000008527
 40
0.5000000000000284
  0
CIRCLE
  5
E0
330
1F
100
AcDbEntity
  8
Engraving
100
AcDbCircle
 10
320.0000000000003
 20
89.99999999999865
 30
0.0000000000008527
 40
0.4999999999998721
  0
CIRCLE
  5
E1
330
1F
100
AcDbEntity
  8
Engraving
100
AcDbCircle
 10
320.0000000000001
 20
109.9999999999986
 30
0.0000000000008527
 40
0.4999999999998863
  0
CIRCLE
  5
E2
330
1F
100
AcDbEntity
  8
Engraving
100
AcDbCircle
 10
330.0000000000001
 20
99.99999999999841
 30
0.0000000000008527
 40
0.4999999999998863
  0
CIRCLE
  5
E3
330
1F
100
AcDbEntity
  8
Engraving
100
AcDbCircle
 10
330.0000000000001
 20
99.99999999999841
 30
0.0000000000008527
 40
10.00000000000011
  0
CIRCLE
  5
E4
330
1F
100
AcDbEntity
  8
Engraving
100
AcDbCircle
 10
329.9999999999998
 20
19.99999999999835
 30
0.0000000000008527
 40
10.00000000000006
  0
CIRCLE
  5
E5
330
1F
100
AcDbEntity
  8
Engraving
100
AcDbCircle
 10
329.9999999999998
 20
19.99999999999829
 30
0.0000000000008527
 40
0.5
  0
CIRCLE
  5
E6
330
1F
100
AcDbEntity
  8
Engraving
100
AcDbCircle
 10
319.9999999999998
 20
29.99999999999852
 30
0.0000000000008527
 40
0.5
  0
CIRCLE
  5
E7
330
1F
100
AcDbEntity
  8
Engraving
100
AcDbCircle
 10
319.9999999999998
 20
9.999999999998522
 30
0.0000000000008527
 40
0.5
  0
CIRCLE
  5
E8
330
1F
100
AcDbEntity
  8
Engraving
100
AcDbCircle
 10
339.9999999999995
 20
9.999999999998295
 30
0.0000000000008527
 40
0.5
  0
CIRCLE
  5
E9
330
1F
100
AcDbEntity
  8
Engraving
100
AcDbCircle
 10
339.9999999999995
 20
29.99999999999847
 30
0.0000000000008527
 40
0.5000000000000568
  0
LINE
  5
EA
330
1F
100
AcDbEntity
  8
Engraving
100
AcDbLine
 10
269.9999999999998
 20
-0.0000000000012506
 30
0.0000000000008527
 11
309.9999999999998
 21
39.99999999999852
 31
0.0000000000008527
  0
CIRCLE
  5
EB
330
1F
100
AcDbEntity
  8
Engraving
100
AcDbCircle
 10
289.9999999999998
 20
19.99999999999852
 30
0.0000000000008527
 40
10.0
  0
CIRCLE
  5
EC
330
1F
100
AcDbEntity
  8
Engraving
100
AcDbCircle
 10
289.9999999999996
 20
19.99999999999835
 30
0.0000000000008527
 40
19.99999999999983
  0
LINE
  5
ED
330
1F
100
AcDbEntity
  8
Engraving
100
AcDbLine
 10
309.9999999999998
 20
-0.0000000000012506
 30
0.0000000000008527
 11
270.0
 21
39.99999999999875
 31
0.0000000000008527
  0
CIRCLE
  5
EE
330
1F
100
AcDbEntity
  8
Engraving
100
AcDbCircle
 10
289.9999999999998
 20
19.99999999999852
 30
0.0000000000008527
 40
0.5
  0
CIRCLE
  5
EF
330
1F
100
AcDbEntity
  8
Engraving
100
AcDbCircle
 10
279.9999999999998
 20
29.99999999999878
 30
0.0000000000008527
 40
0.4999999999999716
  0
CIRCLE
  5
F0
330
1F
100
AcDbEntity
  8
Engraving
100
AcDbCircle
 10
279.9999999999997
 20
9.99999999999875
 30
0.0000000000008527
 40
0.5
  0
CIRCLE
  5
F1
330
1F
100
AcDbEntity
  8
Engraving
100
AcDbCircle
 10
299.9999999999998
 20
9.999999999998522
 30
0.0000000000008527
 40
0.5
  0
CIRCLE
  5
F2
330
1F
100
AcDbEntity
  8
Engraving
100
AcDbCircle
 10
299.9999999999998
 20
29.99999999999852
 30
0.0000000000008527
 40
0.5
  0
CIRCLE
  5
F3
330
1F
100
AcDbEntity
  8
Engraving
100
AcDbCircle
 10
259.9999999999998
 20
29.99999999999878
 30
0.0000000000008527
 40
0.4999999999999716
  0
CIRCLE
  5
F4
330
1F
100
AcDbEntity
  8
Engraving
100
AcDbCircle
 10
259.9999999999998
 20
9.999999999998778
 30
0.0000000000008527
 40
0.4999999999999716
  0
CIRCLE
  5
F5
330
1F
100
AcDbEntity
  8
Engraving
100
AcDbCircle
 10
239.9999999999998
 20
9.999999999998977
 30
0.0000000000008527
 40
0.5
  0
CIRCLE
  5
F6
330
1F
100
AcDbEntity
  8
Engraving
100
AcDbCircle
 10
239.9999999999998
 20
29.99999999999898
 30
0.0000000000008527
 40
0.5
  0
CIRCLE
  5
F7
330
1F
100
AcDbEntity
  8
Engraving
100
AcDbCircle
 10
249.9999999999998
 20
19.99999999999878
 30
0.0000000000008527
 40
0.4999999999999716
  0
LINE
  5
F8
330
1F
100
AcDbEntity
  8
Engraving
100
AcDbLine
 10
269.9999999999998
 20
-0.0000000000012506
 30
0.0000000000008527
 11
229.9999999999998
 21
39.99999999999898
 31
0.0000000000008527
  0
CIRCLE
  5
F9
330
1F
100
AcDbEntity
  8
Engraving
100
AcDbCircle
 10
249.9999999999996
 20
19.99999999999883
 30
0.0000000000008527
 40
20.00000000000009
  0
CIRCLE
  5
FA
330
1F
100
AcDbEntity
  8
Engraving
100
AcDbCircle
 10
249.9999999999998
 20
19.99999999999878
 30
0.0000000000008527
 40
10.00000000000003
  0
LINE
  5
FB
330
1F
100
AcDbEntity
  8
Engraving
100
AcDbLine
 10
229.9999999999998
 20
-0.0000000000010232
 30
0.0000000000008527
 11
270.0
 21
39.99999999999875
 31
0.0000000000008527
  0
LINE
  5
FC
330
1F
100
AcDbEntity
  8
Engraving
100
AcDbLine
 10
229.9999999999998
 20
39.99999999999898
 30
0.0000000000008527
 11
270.0
 21
79.99999999999875
 31
0.0000000000008527
  0
CIRCLE
  5
FD
330
1F
100
AcDbEntity
  8
Engraving
100
AcDbCircle
 10
250.0
 20
59.99999999999872
 30
0.0000000000008527
 40
9.999999999999972
  0
CIRCLE
  5
FE
330
1F
100
AcDbEntity
  8
Engraving
100
AcDbCircle
 10
249.9999999999999
 20
59.99999999999886
 30
0.0000000000008527
 40
20.00000000000014
  0
LINE
  5
FF
330
1F
100
AcDbEntity
  8
Engraving
100
AcDbLine
 10
270.0
 20
39.99999999999875
 30
0.0000000000008527
 11
230.0
 21
79.99999999999898
 31
0.0000000000008527
  0
CIRCLE
  5
100
330
1F
100
AcDbEntity
  8
Engraving
100
AcDbCircle
 10
249.9999999999998
 20
59.99999999999878
 30
0.0000000000008527
 40
0.4999999999999716
  0
CIRCLE
  5
101
330
1F
100
AcDbEntity
  8
Engraving
100
AcDbCircle
 10
240.0
 20
69.999999999999
 30
0.0000000000008527
 40
0.4999999999999716
  0
CIRCLE
  5
102
330
1F
100
AcDbEntity
  8
Engraving
100
AcDbCircle
 10
240.0
 20
49.99999999999901
 30
0.0000000000008527
 40
0.4999999999999716
  0
CIRCLE
  5
103
330
1F
100
AcDbEntity
  8
Engraving
100
AcDbCircle
 10
260.0
 20
49.99999999999877
 30
0.0000000000008527
 40
0.4999999999999787
  0
CIRCLE
  5
104
330
1F
100
AcDbEntity
  8
Engraving
100
AcDbCircle
 10
260.0
 20
69.99999999999875
 30
0.0000000000008527
 40
0.5
  0
CIRCLE
  5
105
330
1F
100
AcDbEntity
  8
Engraving
100
AcDbCircle
 10
300.0
 20
69.99999999999852
 30
0.0000000000008527
 40
0.5
  0
CIRCLE
  5
106
330
1F
100
AcDbEntity
  8
Engraving
100
AcDbCircle
 10
300.0
 20
49.99999999999852
 30
0.0000000000008527
 40
0.5
  0
CIRCLE
  5
107
330
1F
100
AcDbEntity
  8
Engraving
100
AcDbCircle
 10
280.0
 20
49.99999999999878
 30
0.0000000000008527
 40
0.4999999999999716
  0
CIRCLE
  5
108
330
1F
100
AcDbEntity
  8
Engraving
100
AcDbCircle
 10
280.0
 20
69.99999999999874
 30
0.0000000000008527
 40
0.5000000000000142
  0
CIRCLE
  5
109
330
1F
100
AcDbEntity
  8
Engraving
100
AcDbCircle
 10
290.0
 20
59.99999999999852
 30
0.0000000000008527
 40
0.5
  0
LINE
  5
10A
330
1F
100
AcDbEntity
  8
Engraving
100
AcDbLine
 10
309.9999999999998
 20
39.99999999999852
 30
0.0000000000008527
 11
270.0
 21
79.99999999999875
 31
0.0000000000008527
  0
CIRCLE
  5
10B
330
1F
100
AcDbEntity
  8
Engraving
100
AcDbCircle
 10
289.9999999999998
 20
59.99999999999835
 30
0.0000000000008527
 40
19.99999999999983
  0
CIRCLE
  5
10C
330
1F
100
AcDbEntity
  8
Engraving
100
AcDbCircle
 10
290.0
 20
59.99999999999852
 30
0.0000000000008527
 40
10.0
  0
LINE
  5
10D
330
1F
100
AcDbEntity
  8
Engraving
100
AcDbLine
 10
270.0
 20
39.99999999999875
 30
0.0000000000008527
 11
310.0
 21
79.99999999999852
 31
0.0000000000008527
  0
CIRCLE
  5
10E
330
1F
100
AcDbEntity
  8
Engraving
100
AcDbCircle
 10
339.9999999999998
 20
69.99999999999852
 30
0.0000000000008527
 40
0.5
  0
CIRCLE
  5
10F
330
1F
100
AcDbEntity
  8
Engraving
100
AcDbCircle
 10
339.9999999999998
 20
49.99999999999847
 30
0.0000000000008527
 40
0.5000000000000568
  0
CIRCLE
  5
110
330
1F
100
AcDbEntity
  8
Engraving
100
AcDbCircle
 10
320.0
 20
49.99999999999847
 30
0.0000000000008527
 40
0.5000000000000497
  0
CIRCLE
  5
111
330
1F
100
AcDbEntity
  8
Engraving
100
AcDbCircle
 10
320.0
 20
69.99999999999852
 30
0.0000000000008527
 40
0.5
  0
CIRCLE
  5
112
330
1F
100
AcDbEntity
  8
Engraving
100
AcDbCircle
 10
330.0
 20
59.99999999999852
 30
0.0000000000008527
 40
0.5
  0
CIRCLE
  5
113
330
1F
100
AcDbEntity
  8
Engraving
100
AcDbCircle
 10
330.0
 20
59.99999999999852
 30
0.0000000000008527
 40
10.0
  0
LINE
  5
114
330
1F
100
AcDbEntity
  8
Engraving
100
AcDbLine
 10
230.0
 20
79.99999999999898
 30
0.0000000000008527
 11
270.0000000000002
 21
119.9999999999987
 31
0.0000000000008527
  0
CIRCLE
  5
115
330
1F
100
AcDbEntity
  8
Engraving
100
AcDbCircle
 10
250.0000000000001
 20
99.99999999999886
 30
0.0000000000008527
 40
10.00000000000011
  0
CIRCLE
  5
116
330
1F
100
AcDbEntity
  8
Engraving
100
AcDbCircle
 10
250.0
 20
99.99999999999872
 30
0.0000000000008527
 40
20.0
  0
LINE
  5
117
330
1F
100
AcDbEntity
  8
Engraving
100
AcDbLine
 10
270.0
 20
79.99999999999875
 30
0.0000000000008527
 11
230.0000000000002
 21
119.999999999999
 31
0.0000000000008527
  0
CIRCLE
  5
118
330
1F
100
AcDbEntity
  8
Engraving
100
AcDbCircle
 10
250.0000000000001
 20
99.99999999999888
 30
0.0000000000008527
 40
0.4999999999998721
  0
CIRCLE
  5
119
330
1F
100
AcDbEntity
  8
Engraving
100
AcDbCircle
 10
240.0
 20
109.999999999999
 30
0.0000000000008527
 40
0.4999999999999716
  0
CIRCLE
  5
11A
330
1F
100
AcDbEntity
  8
Engraving
100
AcDbCircle
 10
240.0000000000003
 20
89.99999999999908
 30
0.0000000000008527
 40
0.4999999999999005
  0
CIRCLE
  5
11B
330
1F
100
AcDbEntity
  8
Engraving
100
AcDbCircle
 10
260.0000000000003
 20
89.99999999999886
 30
0.0000000000008527
 40
0.4999999999998863
  0
CIRCLE
  5
11C
330
1F
100
AcDbEntity
  8
Engraving
100
AcDbCircle
 10
260.0000000000001
 20
109.9999999999989
 30
0.0000000000008527
 40
0.4999999999998721
  0
CIRCLE
  5
11D
330
1F
100
AcDbEntity
  8
Engraving
100
AcDbCircle
 10
300.0000000000001
 20
109.9999999999986
 30
0.0000000000008527
 40
0.4999999999998863
  0
CIRCLE
  5
11E
330
1F
100
AcDbEntity
  8
Engraving
100
AcDbCircle
 10
300.0000000000001
 20
89.99999999999861
 30
0.0000000000008527
 40
0.4999999999999147
  0
CIRCLE
  5
11F
330
1F
100
AcDbEntity
  8
Engraving
100
AcDbCircle
 10
280.0000000000001
 20
89.99999999999889
 30
0.0000000000008527
 40
0.4999999999998579
  0
CIRCLE
  5
120
330
1F
100
AcDbEntity
  8
Engraving
100
AcDbCircle
 10
280.0000000000001
 20
109.9999999999989
 30
0.0000000000008527
 40
0.4999999999998579
  0
CIRCLE
  5
121
330
1F
100
AcDbEntity
  8
Engraving
100
AcDbCircle
 10
290.0000000000001
 20
99.99999999999864
 30
0.0000000000008527
 40
0.4999999999998863
  0
LINE
  5
122
330
1F
100
AcDbEntity
  8
Engraving
100
AcDbLine
 10
310.0
 20
79.99999999999852
 30
0.0000000000008527
 11
270.0000000000002
 21
119.9999999999987
 31
0.0000000000008527
  0
CIRCLE
  5
123
330
1F
100
AcDbEntity
  8
Engraving
100
AcDbCircle
 10
290.0
 20
99.9999999999985
 30
0.0000000000008527
 40
20.0
  0
CIRCLE
  5
124
330
1F
100
AcDbEntity
  8
Engraving
100
AcDbCircle
 10
290.0000000000001
 20
99.99999999999866
 30
0.0000000000008527
 40
10.00000000000014
  0
LINE
  5
125
330
1F
100
AcDbEntity
  8
Engraving
100
AcDbLine
 10
270.0
 20
79.99999999999875
 30
0.0000000000008527
 11
310.0000000000002
 21
119.9999999999987
 31
0.0000000000008527
  0
LINE
  5
126
330
1F
100
AcDbEntity
  8
Engraving
100
AcDbLine
 10
150.0000000000005
 20
159.9999999999994
 30
0.0000000000008527
 11
110.0000000000007
 21
199.9999999999997
 31
0.0000000000008527
  0
CIRCLE
  5
127
330
1F
100
AcDbEntity
  8
Engraving
100
AcDbCircle
 10
130.0000000000005
 20
179.9999999999997
 30
0.0000000000008527
 40
10.0
  0
CIRCLE
  5
128
330
1F
100
AcDbEntity
  8
Engraving
100
AcDbCircle
 10
130.0000000000005
 20
179.9999999999997
 30
0.0000000000008527
 40
20.0
  0
LINE
  5
129
330
1F
100
AcDbEntity
  8
Engraving
100
AcDbLine
 10
110.0000000000005
 20
159.9999999999997
 30
0.0000000000008527
 11
150.0000000000007
 21
199.9999999999994
 31
0.0000000000008527
  0
CIRCLE
  5
12A
330
1F
100
AcDbEntity
  8
Engraving
100
AcDbCircle
 10
130.0000000000005
 20
179.9999999999997
 30
0.0000000000008527
 40
0.5
  0
CIRCLE
  5
12B
330
1F
100
AcDbEntity
  8
Engraving
100
AcDbCircle
 10
140.0000000000005
 20
189.9999999999994
 30
0.0000000000008527
 40
0.5000000000000284
  0
CIRCLE
  5
12C
330
1F
100
AcDbEntity
  8
Engraving
100
AcDbCircle
 10
140.0000000000005
 20
169.9999999999994
 30
0.0000000000008527
 40
0.5
  0
CIRCLE
  5
12D
330
1F
100
AcDbEntity
  8
Engraving
100
AcDbCircle
 10
120.0000000000005
 20
169.9999999999997
 30
0.0000000000008527
 40
0.5
  0
CIRCLE
  5
12E
330
1F
100
AcDbEntity
  8
Engraving
100
AcDbCircle
 10
120.0000000000005
 20
189.9999999999997
 30
0.0000000000008527
 40
0.4999999999999716
  0
LINE
  5
12F
330
1F
100
AcDbEntity
  8
Engraving
100
AcDbLine
 10
190.0000000000005
 20
159.9999999999992
 30
0.0000000000008527
 11
150.0000000000007
 21
199.9999999999994
 31
0.0000000000008527
  0
CIRCLE
  5
130
330
1F
100
AcDbEntity
  8
Engraving
100
AcDbCircle
 10
170.0000000000005
 20
179.9999999999994
 30
0.0000000000008527
 40
10.0
  0
CIRCLE
  5
131
330
1F
100
AcDbEntity
  8
Engraving
100
AcDbCircle
 10
170.0000000000005
 20
179.9999999999994
 30
0.0000000000008527
 40
20.0
  0
LINE
  5
132
330
1F
100
AcDbEntity
  8
Engraving
100
AcDbLine
 10
150.0000000000005
 20
159.9999999999994
 30
0.0000000000008527
 11
190.0000000000007
 21
199.9999999999992
 31
0.0000000000008527
  0
CIRCLE
  5
133
330
1F
100
AcDbEntity
  8
Engraving
100
AcDbCircle
 10
170.0000000000005
 20
179.9999999999994
 30
0.0000000000008527
 40
0.5
  0
CIRCLE
  5
134
330
1F
100
AcDbEntity
  8
Engraving
100
AcDbCircle
 10
180.0000000000004
 20
189.9999999999992
 30
0.0000000000008527
 40
0.5000000000000284
  0
CIRCLE
  5
135
330
1F
100
AcDbEntity
  8
Engraving
100
AcDbCircle
 10
180.0000000000005
 20
169.9999999999992
 30
0.0000000000008527
 40
0.5
  0
CIRCLE
  5
136
330
1F
100
AcDbEntity
  8
Engraving
100
AcDbCircle
 10
160.0000000000005
 20
169.9999999999994
 30
0.0000000000008527
 40
0.5
  0
CIRCLE
  5
137
330
1F
100
AcDbEntity
  8
Engraving
100
AcDbCircle
 10
160.0000000000005
 20
189.9999999999994
 30
0.0000000000008527
 40
0.5000000000000284
  0
CIRCLE
  5
138
330
1F
100
AcDbEntity
  8
Engraving
100
AcDbCircle
 10
200.0000000000005
 20
189.9999999999992
 30
0.0000000000008527
 40
0.5000000000000284
  0
CIRCLE
  5
139
330
1F
100
AcDbEntity
  8
Engraving
100
AcDbCircle
 10
200.0000000000005
 20
169.9999999999992
 30
0.0000000000008527
 40
0.5
  0
CIRCLE
  5
13A
330
1F
100
AcDbEntity
  8
Engraving
100
AcDbCircle
 10
220.0000000000005
 20
169.999999999999
 30
0.0000000000008527
 40
0.5
  0
CIRCLE
  5
13B
330
1F
100
AcDbEntity
  8
Engraving
100
AcDbCircle
 10
220.0000000000005
 20
189.9999999999989
 30
0.0000000000008527
 40
0.5000000000000568
  0
CIRCLE
  5
13C
330
1F
100
AcDbEntity
  8
Engraving
100
AcDbCircle
 10
210.0000000000005
 20
179.9999999999992
 30
0.0000000000008527
 40
0.5
  0
LINE
  5
13D
330
1F
100
AcDbEntity
  8
Engraving
100
AcDbLine
 10
190.0000000000005
 20
159.9999999999992
 30
0.0000000000008527
 11
230.0000000000007
 21
199.999999999999
 31
0.0000000000008527
  0
CIRCLE
  5
13E
330
1F
100
AcDbEntity
  8
Engraving
100
AcDbCircle
 10
210.0000000000005
 20
179.9999999999992
 30
0.0000000000008527
 40
20.0
  0
CIRCLE
  5
13F
330
1F
100
AcDbEntity
  8
Engraving
100
AcDbCircle
 10
210.0000000000005
 20
179.9999999999992
 30
0.0000000000008527
 40
10.0
  0
LINE
  5
140
330
1F
100
AcDbEntity
  8
Engraving
100
AcDbLine
 10
230.0000000000005
 20
159.999999999999
 30
0.0000000000008527
 11
190.0000000000007
 21
199.9999999999992
 31
0.0000000000008527
  0
LINE
  5
141
330
1F
100
AcDbEntity
  8
Engraving
100
AcDbLine
 10
230.0000000000002
 20
119.999999999999
 30
0.0000000000008527
 11
190.0000000000005
 21
159.9999999999992
 31
0.0000000000008527
  0
CIRCLE
  5
142
330
1F
100
AcDbEntity
  8
Engraving
100
AcDbCircle
 10
210.0000000000003
 20
139.9999999999992
 30
0.0000000000008527
 40
9.999999999999972
  0
CIRCLE
  5
143
330
1F
100
AcDbEntity
  8
Engraving
100
AcDbCircle
 10
210.0000000000002
 20
139.9999999999992
 30
0.0000000000008527
 40
20.0
  0
LINE
  5
144
330
1F
100
AcDbEntity
  8
Engraving
100
AcDbLine
 10
190.0000000000002
 20
119.9999999999992
 30
0.0000000000008527
 11
230.0000000000005
 21
159.999999999999
 31
0.0000000000008527
  0
CIRCLE
  5
145
330
1F
100
AcDbEntity
  8
Engraving
100
AcDbCircle
 10
210.0000000000002
 20
139.9999999999992
 30
0.0000000000008527
 40
0.5000000000000284
  0
CIRCLE
  5
146
330
1F
100
AcDbEntity
  8
Engraving
100
AcDbCircle
 10
220.0000000000002
 20
149.9999999999989
 30
0.0000000000008527
 40
0.5000000000000284
  0
CIRCLE
  5
147
330
1F
100
AcDbEntity
  8
Engraving
100
AcDbCircle
 10
220.0000000000002
 20
129.999999999999
 30
0.0000000000008527
 40
0.5
  0
CIRCLE
  5
148
330
1F
100
AcDbEntity
  8
Engraving
100
AcDbCircle
 10
200.0000000000002
 20
129.9999999999992
 30
0.0000000000008527
 40
0.5000000000000284
  0
CIRCLE
  5
149
330
1F
100
AcDbEntity
  8
Engraving
100
AcDbCircle
 10
200.0000000000002
 20
149.9999999999992
 30
0.0000000000008527
 40
0.5000000000000284
  0
CIRCLE
  5
14A
330
1F
100
AcDbEntity
  8
Engraving
100
AcDbCircle
 10
160.0000000000002
 20
149.9999999999994
 30
0.0000000000008527
 40
0.5
  0
CIRCLE
  5
14B
330
1F
100
AcDbEntity
  8
Engraving
100
AcDbCircle
 10
160.0000000000002
 20
129.9999999999994
 30
0.0000000000008527
 40
0.5
  0
CIRCLE
  5
14C
330
1F
100
AcDbEntity
  8
Engraving
100
AcDbCircle
 10
180.0000000000002
 20
129.9999999999992
 30
0.0000000000008527
 40
0.5
  0
CIRCLE
  5
14D
330
1F
100
AcDbEntity
  8
Engraving
100
AcDbCircle
 10
180.0000000000002
 20
149.9999999999992
 30
0.0000000000008527
 40
0.5
  0
CIRCLE
  5
14E
330
1F
100
AcDbEntity
  8
Engraving
100
AcDbCircle
 10
170.0000000000002
 20
139.9999999999994
 30
0.0000000000008527
 40
0.5
  0
LINE
  5
14F
330
1F
100
AcDbEntity
  8
Engraving
100
AcDbLine
 10
150.0000000000002
 20
119.9999999999994
 30
0.0000000000008527
 11
190.0000000000005
 21
159.9999999999992
 31
0.0000000000008527
  0
CIRCLE
  5
150
330
1F
100
AcDbEntity
  8
Engraving
100
AcDbCircle
 10
170.0000000000002
 20
139.9999999999994
 30
0.0000000000008527
 40
20.0
  0
CIRCLE
  5
151
330
1F
100
AcDbEntity
  8
Engraving
100
AcDbCircle
 10
170.0000000000002
 20
139.9999999999994
 30
0.0000000000008527
 40
10.0
  0
LINE
  5
152
330
1F
100
AcDbEntity
  8
Engraving
100
AcDbLine
 10
190.0000000000002
 20
119.9999999999992
 30
0.0000000000008527
 11
150.0000000000005
 21
159.9999999999994
 31
0.0000000000008527
  0
CIRCLE
  5
153
330
1F
100
AcDbEntity
  8
Engraving
100
AcDbCircle
 10
120.0000000000002
 20
149.9999999999997
 30
0.0000000000008527
 40
0.5
  0
CIRCLE
  5
154
330
1F
100
AcDbEntity
  8
Engraving
100
AcDbCircle
 10
120.0000000000002
 20
129.9999999999997
 30
0.0000000000008527
 40
0.5
  0
CIRCLE
  5
155
330
1F
100
AcDbEntity
  8
Engraving
100
AcDbCircle
 10
140.0000000000002
 20
129.9999999999994
 30
0.0000000000008527
 40
0.5
  0
CIRCLE
  5
156
330
1F
100
AcDbEntity
  8
Engraving
100
AcDbCircle
 10
140.0000000000002
 20
149.9999999999994
 30
0.0000000000008527
 40
0.5
  0
CIRCLE
  5
157
330
1F
100
AcDbEntity
  8
Engraving
100
AcDbCircle
 10
130.0000000000002
 20
139.9999999999997
 30
0.0000000000008527
 40
0.5
  0
LINE
  5
158
330
1F
100
AcDbEntity
  8
Engraving
100
AcDbLine
 10
110.0000000000002
 20
119.9999999999997
 30
0.0000000000008527
 11
150.0000000000005
 21
159.9999999999994
 31
0.0000000000008527
  0
CIRCLE
  5
159
330
1F
100
AcDbEntity
  8
Engraving
100
AcDbCircle
 10
130.0000000000003
 20
139.9999999999996
 30
0.0000000000008527
 40
19.99999999999997
  0
CIRCLE
  5
15A
330
1F
100
AcDbEntity
  8
Engraving
100
AcDbCircle
 10
130.0000000000002
 20
139.9999999999997
 30
0.0000000000008527
 40
10.0
  0
LINE
  5
15B
330
1F
100
AcDbEntity
  8
Engraving
100
AcDbLine
 10
150.0000000000002
 20
119.9999999999994
 30
0.0000000000008527
 11
110.0000000000005
 21
159.9999999999997
 31
0.0000000000008527
  0
LINE
  5
15C
330
1F
100
AcDbEntity
  8
Engraving
100
AcDbLine
 10
70.00000000000045
 20
159.9999999999999
 30
0.0000000000008527
 11
30.00000000000068
 21
200.0000000000001
 31
0.0000000000008527
  0
CIRCLE
  5
15D
330
1F
100
AcDbEntity
  8
Engraving
100
AcDbCircle
 10
50.00000000000045
 20
180.0000000000001
 30
0.0000000000008527
 40
10.0
  0
CIRCLE
  5
15E
330
1F
100
AcDbEntity
  8
Engraving
100
AcDbCircle
 10
50.00000000000045
 20
180.0000000000001
 30
0.0000000000008527
 40
20.0
  0
LINE
  5
15F
330
1F
100
AcDbEntity
  8
Engraving
100
AcDbLine
 10
30.00000000000045
 20
160.0000000000001
 30
0.0000000000008527
 11
70.00000000000068
 21
199.9999999999999
 31
0.0000000000008527
  0
CIRCLE
  5
160
330
1F
100
AcDbEntity
  8
Engraving
100
AcDbCircle
 10
50.00000000000045
 20
180.0000000000001
 30
0.0000000000008527
 40
0.5000000000000284
  0
CIRCLE
  5
161
330
1F
100
AcDbEntity
  8
Engraving
100
AcDbCircle
 10
60.00000000000045
 20
189.9999999999999
 30
0.0000000000008527
 40
0.5
  0
CIRCLE
  5
162
330
1F
100
AcDbEntity
  8
Engraving
100
AcDbCircle
 10
60.00000000000047
 20
169.9999999999999
 30
0.0000000000008527
 40
0.5
  0
CIRCLE
  5
163
330
1F
100
AcDbEntity
  8
Engraving
100
AcDbCircle
 10
40.00000000000045
 20
170.0000000000001
 30
0.0000000000008527
 40
0.5000000000000284
  0
CIRCLE
  5
164
330
1F
100
AcDbEntity
  8
Engraving
100
AcDbCircle
 10
40.00000000000043
 20
190.0000000000001
 30
0.0000000000008527
 40
0.4999999999999716
  0
CIRCLE
  5
165
330
1F
100
AcDbEntity
  8
Engraving
100
AcDbCircle
 10
80.00000000000045
 20
189.9999999999999
 30
0.0000000000008527
 40
0.5
  0
CIRCLE
  5
166
330
1F
100
AcDbEntity
  8
Engraving
100
AcDbCircle
 10
80.00000000000047
 20
169.9999999999999
 30
0.0000000000008527
 40
0.5
  0
CIRCLE
  5
167
330
1F
100
AcDbEntity
  8
Engraving
100
AcDbCircle
 10
100.0000000000005
 20
169.9999999999997
 30
0.0000000000008527
 40
0.5
  0
CIRCLE
  5
168
330
1F
100
AcDbEntity
  8
Engraving
100
AcDbCircle
 10
100.0000000000005
 20
189.9999999999997
 30
0.0000000000008527
 40
0.5
  0
CIRCLE
  5
169
330
1F
100
AcDbEntity
  8
Engraving
100
AcDbCircle
 10
90.00000000000047
 20
179.9999999999999
 30
0.0000000000008527
 40
0.5
  0
LINE
  5
16A
330
1F
100
AcDbEntity
  8
Engraving
100
AcDbLine
 10
70.00000000000045
 20
159.9999999999999
 30
0.0000000000008527
 11
110.0000000000007
 21
199.9999999999997
 31
0.0000000000008527
  0
CIRCLE
  5
16B
330
1F
100
AcDbEntity
  8
Engraving
100
AcDbCircle
 10
90.00000000000045
 20
179.9999999999999
 30
0.0000000000008527
 40
20.0
  0
CIRCLE
  5
16C
330
1F
100
AcDbEntity
  8
Engraving
100
AcDbCircle
 10
90.00000000000043
 20
179.9999999999999
 30
0.0000000000008527
 40
9.999999999999972
  0
LINE
  5
16D
330
1F
100
AcDbEntity
  8
Engraving
100
AcDbLine
 10
110.0000000000005
 20
159.9999999999997
 30
0.0000000000008527
 11
70.00000000000068
 21
199.9999999999999
 31
0.0000000000008527
  0
LINE
  5
16E
330
1F
100
AcDbEntity
  8
Engraving
100
AcDbLine
 10
110.0000000000002
 20
119.9999999999997
 30
0.0000000000008527
 11
70.00000000000045
 21
159.9999999999999
 31
0.0000000000008527
  0
CIRCLE
  5
16F
330
1F
100
AcDbEntity
  8
Engraving
100
AcDbCircle
 10
90.00000000000023
 20
139.9999999999999
 30
0.0000000000008527
 40
9.999999999999972
  0
CIRCLE
  5
170
330
1F
100
AcDbEntity
  8
Engraving
100
AcDbCircle
 10
90.00000000000023
 20
139.9999999999999
 30
0.0000000000008527
 40
20.0
  0
LINE
  5
171
330
1F
100
AcDbEntity
  8
Engraving
100
AcDbLine
 10
70.00000000000023
 20
119.9999999999999
 30
0.0000000000008527
 11
110.0000000000005
 21
159.9999999999997
 31
0.0000000000008527
  0
CIRCLE
  5
172
330
1F
100
AcDbEntity
  8
Engraving
100
AcDbCircle
 10
90.00000000000023
 20
139.9999999999999
 30
0.0000000000008527
 40
0.5
  0
CIRCLE
  5
173
330
1F
100
AcDbEntity
  8
Engraving
100
AcDbCircle
 10
100.0000000000002
 20
149.9999999999997
 30
0.0000000000008527
 40
0.5
  0
CIRCLE
  5
174
330
1F
100
AcDbEntity
  8
Engraving
100
AcDbCircle
 10
100.0000000000002
 20
129.9999999999997
 30
0.0000000000008527
 40
0.5
  0
CIRCLE
  5
175
330
1F
100
AcDbEntity
  8
Engraving
100
AcDbCircle
 10
80.00000000000023
 20
129.9999999999999
 30
0.0000000000008527
 40
0.5
  0
CIRCLE
  5
176
330
1F
100
AcDbEntity
  8
Engraving
100
AcDbCircle
 10
80.00000000000023
 20
149.9999999999999
 30
0.0000000000008527
 40
0.5
  0
CIRCLE
  5
177
330
1F
100
AcDbEntity
  8
Engraving
100
AcDbCircle
 10
40.00000000000023
 20
150.0000000000001
 30
0.0000000000008527
 40
0.5
  0
CIRCLE
  5
178
330
1F
100
AcDbEntity
  8
Engraving
100
AcDbCircle
 10
40.00000000000023
 20
130.0000000000001
 30
0.0000000000008527
 40
0.5
  0
CIRCLE
  5
179
330
1F
100
AcDbEntity
  8
Engraving
100
AcDbCircle
 10
60.00000000000022
 20
129.9999999999999
 30
0.0000000000008527
 40
0.5
  0
CIRCLE
  5
17A
330
1F
100
AcDbEntity
  8
Engraving
100
AcDbCircle
 10
60.00000000000022
 20
149.9999999999999
 30
0.0000000000008527
 40
0.5
  0
CIRCLE
  5
17B
330
1F
100
AcDbEntity
  8
Engraving
100
AcDbCircle
 10
50.00000000000023
 20
140.0000000000001
 30
0.0000000000008527
 40
0.5
  0
LINE
  5
17C
330
1F
100
AcDbEntity
  8
Engraving
100
AcDbLine
 10
30.00000000000023
 20
120.0000000000001
 30
0.0000000000008527
 11
70.00000000000045
 21
159.9999999999999
 31
0.0000000000008527
  0
CIRCLE
  5
17D
330
1F
100
AcDbEntity
  8
Engraving
100
AcDbCircle
 10
50.00000000000026
 20
140.0000000000001
 30
0.0000000000008527
 40
19.99999999999997
  0
CIRCLE
  5
17E
330
1F
100
AcDbEntity
  8
Engraving
100
AcDbCircle
 10
50.00000000000023
 20
140.0000000000001
 30
0.0000000000008527
 40
10.0
  0
LINE
  5
17F
330
1F
100
AcDbEntity
  8
Engraving
100
AcDbLine
 10
70.00000000000023
 20
119.9999999999999
 30
0.0000000000008527
 11
30.00000000000045
 21
160.0000000000001
 31
0.0000000000008527
  0
CIRCLE
  5
180
330
1F
100
AcDbEntity
  8
Engraving
100
AcDbCircle
 10
0.000000000000201
 20
149.9999999999999
 30
0.0000000000008527
 40
0.5
  0
CIRCLE
  5
181
330
1F
100
AcDbEntity
  8
Engraving
100
AcDbCircle
 10
0.0000000000004421
 20
130.0000000000001
 30
0.0000000000008527
 40
0.5000000000002274
  0
CIRCLE
  5
182
330
1F
100
AcDbEntity
  8
Engraving
100
AcDbCircle
 10
20.00000000000023
 20
130.0000000000001
 30
0.0000000000008527
 40
0.5
  0
CIRCLE
  5
183
330
1F
100
AcDbEntity
  8
Engraving
100
AcDbCircle
 10
20.00000000000023
 20
150.0000000000001
 30
0.0000000000008527
 40
0.5
  0
CIRCLE
  5
184
330
1F
100
AcDbEntity
  8
Engraving
100
AcDbCircle
 10
10.00000000000045
 20
140.0000000000001
 30
0.0000000000008527
 40
0.5000000000002274
  0
CIRCLE
  5
185
330
1F
100
AcDbEntity
  8
Engraving
100
AcDbCircle
 10
10.00000000000045
 20
140.0000000000001
 30
0.0000000000008527
 40
9.999999999999773
  0
CIRCLE
  5
186
330
1F
100
AcDbEntity
  8
Engraving
100
AcDbCircle
 10
330.0000000000002
 20
139.9999999999986
 30
0.0000000000008527
 40
10.00000000000003
  0
CIRCLE
  5
187
330
1F
100
AcDbEntity
  8
Engraving
100
AcDbCircle
 10
330.0000000000002
 20
139.9999999999985
 30
0.0000000000008527
 40
0.5
  0
CIRCLE
  5
188
330
1F
100
AcDbEntity
  8
Engraving
100
AcDbCircle
 10
320.0000000000002
 20
149.9999999999987
 30
0.0000000000008527
 40
0.5
  0
CIRCLE
  5
189
330
1F
100
AcDbEntity
  8
Engraving
100
AcDbCircle
 10
320.0000000000002
 20
129.9999999999987
 30
0.0000000000008527
 40
0.5
  0
CIRCLE
  5
18A
330
1F
100
AcDbEntity
  8
Engraving
100
AcDbCircle
 10
340.0000000000002
 20
129.9999999999985
 30
0.0000000000008527
 40
0.5
  0
CIRCLE
  5
18B
330
1F
100
AcDbEntity
  8
Engraving
100
AcDbCircle
 10
340.0000000000002
 20
149.9999999999985
 30
0.0000000000008527
 40
0.5
  0
LINE
  5
18C
330
1F
100
AcDbEntity
  8
Engraving
100
AcDbLine
 10
270.0000000000002
 20
119.9999999999987
 30
0.0000000000008527
 11
310.0000000000005
 21
159.9999999999985
 31
0.0000000000008527
  0
CIRCLE
  5
18D
330
1F
100
AcDbEntity
  8
Engraving
100
AcDbCircle
 10
290.0000000000002
 20
139.9999999999987
 30
0.0000000000008527
 40
10.0
  0
CIRCLE
  5
18E
330
1F
100
AcDbEntity
  8
Engraving
100
AcDbCircle
 10
290.0000000000002
 20
139.9999999999987
 30
0.0000000000008527
 40
20.0
  0
LINE
  5
18F
330
1F
100
AcDbEntity
  8
Engraving
100
AcDbLine
 10
310.0000000000002
 20
119.9999999999987
 30
0.0000000000008527
 11
270.0000000000005
 21
159.9999999999987
 31
0.0000000000008527
  0
CIRCLE
  5
190
330
1F
100
AcDbEntity
  8
Engraving
100
AcDbCircle
 10
290.0000000000002
 20
139.9999999999987
 30
0.0000000000008527
 40
0.5
  0
CIRCLE
  5
191
330
1F
100
AcDbEntity
  8
Engraving
100
AcDbCircle
 10
280.0000000000002
 20
149.9999999999989
 30
0.0000000000008527
 40
0.5000000000000568
  0
CIRCLE
  5
192
330
1F
100
AcDbEntity
  8
Engraving
100
AcDbCircle
 10
280.0000000000002
 20
129.9999999999989
 30
0.0000000000008527
 40
0.5000000000000568
  0
CIRCLE
  5
193
330
1F
100
AcDbEntity
  8
Engraving
100
AcDbCircle
 10
300.0000000000002
 20
129.9999999999987
 30
0.0000000000008527
 40
0.5
  0
CIRCLE
  5
194
330
1F
100
AcDbEntity
  8
Engraving
100
AcDbCircle
 10
300.0000000000002
 20
149.9999999999987
 30
0.0000000000008527
 40
0.5
  0
CIRCLE
  5
195
330
1F
100
AcDbEntity
  8
Engraving
100
AcDbCircle
 10
260.0000000000001
 20
149.9999999999989
 30
0.0000000000008527
 40
0.5000000000000568
  0
CIRCLE
  5
196
330
1F
100
AcDbEntity
  8
Engraving
100
AcDbCircle
 10
260.0000000000001
 20
129.9999999999988
 30
0.0000000000008527
 40
0.5000000000001421
  0
CIRCLE
  5
197
330
1F
100
AcDbEntity
  8
Engraving
100
AcDbCircle
 10
240.0000000000002
 20
129.9999999999989
 30
0.0000000000008527
 40
0.5000000000000284
  0
CIRCLE
  5
198
330
1F
100
AcDbEntity
  8
Engraving
100
AcDbCircle
 10
240.0000000000002
 20
149.9999999999989
 30
0.0000000000008527
 40
0.5000000000000284
  0
CIRCLE
  5
199
330
1F
100
AcDbEntity
  8
Engraving
100
AcDbCircle
 10
250.0000000000002
 20
139.9999999999987
 30
0.0000000000008527
 40
0.5
  0
LINE
  5
19A
330
1F
100
AcDbEntity
  8
Engraving
100
AcDbLine
 10
270.0000000000002
 20
119.9999999999987
 30
0.0000000000008527
 11
230.0000000000005
 21
159.999999999999
 31
0.0000000000008527
  0
CIRCLE
  5
19B
330
1F
100
AcDbEntity
  8
Engraving
100
AcDbCircle
 10
250.0000000000002
 20
139.9999999999987
 30
0.0000000000008527
 40
20.0
  0
CIRCLE
  5
19C
330
1F
100
AcDbEntity
  8
Engraving
100
AcDbCircle
 10
250.0000000000003
 20
139.9999999999988
 30
0.0000000000008527
 40
10.00000000000006
  0
LINE
  5
19D
330
1F
100
AcDbEntity
  8
Engraving
100
AcDbLine
 10
230.0000000000002
 20
119.999999999999
 30
0.0000000000008527
 11
270.0000000000005
 21
159.9999999999987
 31
0.0000000000008527
  0
LINE
  5
19E
330
1F
100
AcDbEntity
  8
Engraving
100
AcDbLine
 10
230.0000000000005
 20
159.999999999999
 30
0.0000000000008527
 11
270.0000000000007
 21
199.9999999999987
 31
0.0000000000008527
  0
CIRCLE
  5
19F
330
1F
100
AcDbEntity
  8
Engraving
100
AcDbCircle
 10
250.0000000000005
 20
179.999999999999
 30
0.0000000000008527
 40
10.0
  0
CIRCLE
  5
1A0
330
1F
100
AcDbEntity
  8
Engraving
100
AcDbCircle
 10
250.0000000000005
 20
179.9999999999987
 30
0.0000000000008527
 40
20.00000000000003
  0
LINE
  5
1A1
330
1F
100
AcDbEntity
  8
Engraving
100
AcDbLine
 10
270.0000000000005
 20
159.9999999999987
 30
0.0000000000008527
 11
230.0000000000007
 21
199.999999999999
 31
0.0000000000008527
  0
CIRCLE
  5
1A2
330
1F
100
AcDbEntity
  8
Engraving
100
AcDbCircle
 10
250.0000000000004
 20
179.999999999999
 30
0.0000000000008527
 40
0.5
  0
CIRCLE
  5
1A3
330
1F
100
AcDbEntity
  8
Engraving
100
AcDbCircle
 10
240.0000000000003
 20
189.9999999999991
 30
0.0000000000008527
 40
0.5000000000000853
  0
CIRCLE
  5
1A4
330
1F
100
AcDbEntity
  8
Engraving
100
AcDbCircle
 10
240.0000000000004
 20
169.9999999999991
 30
0.0000000000008527
 40
0.5000000000001421
  0
CIRCLE
  5
1A5
330
1F
100
AcDbEntity
  8
Engraving
100
AcDbCircle
 10
260.0000000000005
 20
169.999999999999
 30
0.0000000000008527
 40
0.4999999999999716
  0
CIRCLE
  5
1A6
330
1F
100
AcDbEntity
  8
Engraving
100
AcDbCircle
 10
260.0000000000004
 20
189.9999999999989
 30
0.0000000000008527
 40
0.5000000000000568
  0
CIRCLE
  5
1A7
330
1F
100
AcDbEntity
  8
Engraving
100
AcDbCircle
 10
300.0000000000005
 20
189.9999999999987
 30
0.0000000000008527
 40
0.5
  0
CIRCLE
  5
1A8
330
1F
100
AcDbEntity
  8
Engraving
100
AcDbCircle
 10
300.0000000000005
 20
169.9999999999988
 30
0.0000000000008527
 40
0.4999999999999716
  0
CIRCLE
  5
1A9
330
1F
100
AcDbEntity
  8
Engraving
100
AcDbCircle
 10
280.0000000000005
 20
169.999999999999
 30
0.0000000000008527
 40
0.5
  0
CIRCLE
  5
1AA
330
1F
100
AcDbEntity
  8
Engraving
100
AcDbCircle
 10
280.0000000000005
 20
189.999999999999
 30
0.0000000000008527
 40
0.5
  0
CIRCLE
  5
1AB
330
1F
100
AcDbEntity
  8
Engraving
100
AcDbCircle
 10
290.0000000000005
 20
179.9999999999988
 30
0.0000000000008527
 40
0.4999999999999716
  0
LINE
  5
1AC
330
1F
100
AcDbEntity
  8
Engraving
100
AcDbLine
 10
310.0000000000005
 20
159.9999999999985
 30
0.0000000000008527
 11
270.0000000000007
 21
199.9999999999987
 31
0.0000000000008527
  0
CIRCLE
  5
1AD
330
1F
100
AcDbEntity
  8
Engraving
100
AcDbCircle
 10
290.0000000000005
 20
179.9999999999985
 30
0.0000000000008527
 40
20.0
  0
CIRCLE
  5
1AE
330
1F
100
AcDbEntity
  8
Engraving
100
AcDbCircle
 10
290.0000000000004
 20
179.9999999999987
 30
0.0000000000008527
 40
9.999999999999943
  0
LINE
  5
1AF
330
1F
100
AcDbEntity
  8
Engraving
100
AcDbLine
 10
270.0000000000005
 20
159.9999999999987
 30
0.0000000000008527
 11
310.0000000000007
 21
199.9999999999987
 31
0.0000000000008527
  0
CIRCLE
  5
1B0
330
1F
100
AcDbEntity
  8
Engraving
100
AcDbCircle
 10
340.0000000000005
 20
189.9999999999986
 30
0.0000000000008527
 40
0.4999999999999716
  0
CIRCLE
  5
1B1
330
1F
100
AcDbEntity
  8
Engraving
100
AcDbCircle
 10
340.0000000000005
 20
169.9999999999985
 30
0.0000000000008527
 40
0.5
  0
CIRCLE
  5
1B2
330
1F
100
AcDbEntity
  8
Engraving
100
AcDbCircle
 10
320.0000000000005
 20
169.9999999999988
 30
0.0000000000008527
 40
0.4999999999999716
  0
CIRCLE
  5
1B3
330
1F
100
AcDbEntity
  8
Engraving
100
AcDbCircle
 10
320.0000000000005
 20
189.9999999999987
 30
0.0000000000008527
 40
0.5000000000000284
  0
CIRCLE
  5
1B4
330
1F
100
AcDbEntity
  8
Engraving
100
AcDbCircle
 10
330.0000000000005
 20
179.9999999999985
 30
0.0000000000008527
 40
0.5
  0
CIRCLE
  5
1B5
330
1F
100
AcDbEntity
  8
Engraving
100
AcDbCircle
 10
330.0000000000005
 20
179.9999999999985
 30
0.0000000000008527
 40
10.0
  0
ARC
  5
1B6
330
1F
100
AcDbEntity
  8
Engraving
100
AcDbCircle
 10
10.0000000000003
 20
140.0000000000003
 30
0.0000000000008432
 40
19.99999999999995
100
AcDbArc
 50
240.0000000000025
 51
119.9999999999984
  0
LINE
  5
1B7
330
1F
100
AcDbEntity
  8
Engraving
100
AcDbLine
 10
30.00000000000023
 20
120.0000000000001
 30
0.0000000000008527
 11
0.0000000000006821
 21
149.9999999999994
 31
0.0000000000008527
  0
LINE
  5
1B8
330
1F
100
AcDbEntity
  8
Engraving
100
AcDbLine
 10
0.0000000000006821
 20
130.0000000000006
 30
0.0000000000008527
 11
30.00000000000045
 21
160.0000000000001
 31
0.0000000000008527
  0
LINE
  5
1B9
330
1F
100
AcDbEntity
  8
Engraving
100
AcDbLine
 10
30.00000000000023
 20
80.00000000000011
 30
0.0000000000008527
 11
0.0000000000004547
 21
109.9999999999997
 31
0.0000000000008527
  0
ARC
  5
1BA
330
1F
100
AcDbEntity
  8
Engraving
100
AcDbCircle
 10
10.00000000000015
 20
100.0
 30
0.0000000000007995
 40
19.99999999999988
100
AcDbArc
 50
240.000000000002
 51
119.9999999999971
  0
LINE
  5
1BB
330
1F
100
AcDbEntity
  8
Engraving
100
AcDbLine
 10
0.0000000000004547
 20
90.00000000000057
 30
0.0000000000008527
 11
30.00000000000023
 21
120.0000000000001
 31
0.0000000000008527
  0
LINE
  5
1BC
330
1F
100
AcDbEntity
  8
Engraving
100
AcDbLine
 10
30.0
 20
40.00000000000011
 30
0.0000000000008527
 11
0.0000000000002274
 21
69.99999999999966
 31
0.0000000000008527
  0
ARC
  5
1BD
330
1F
100
AcDbEntity
  8
Engraving
100
AcDbCircle
 10
10.00000000000004
 20
59.99999999999989
 30
0.0000000000008413
 40
19.99999999999997
100
AcDbArc
 50
240.0000000000006
 51
119.9999999999975
  0
LINE
  5
1BE
330
1F
100
AcDbEntity
  8
Engraving
100
AcDbLine
 10
0.0000000000002274
 20
50.00000000000034
 30
0.0000000000008527
 11
30.00000000000023
 21
80.00000000000011
 31
0.0000000000008527
  0
LINE
  5
1BF
330
1F
100
AcDbEntity
  8
Engraving
100
AcDbLine
 10
29.99999999999977
 20
-0.0000000000001137
 30
0.0000000000008527
 11
0.0
 21
29.99999999999989
 31
0.0000000000008527
  0
ARC
  5
1C0
330
1F
100
AcDbEntity
  8
Engraving
100
AcDbCircle
 10
9.999999999999797
 20
20.00000000000009
 30
0.0000000000008556
 40
19.99999999999998
100
AcDbArc
 50
240.0000000000013
 51
119.9999999999986
  0
LINE
  5
1C1
330
1F
100
AcDbEntity
  8
Engraving
100
AcDbLine
 10
0.0
 20
10.00000000000034
 30
0.0000000000008527
 11
30.0
 21
40.00000000000011
 31
0.0000000000008527
  0
CIRCLE
  5
1C2
330
1F
100
AcDbEntity
  8
Engraving
100
AcDbCircle
 10
-0.0000000000002273
 20
10.00000000000011
 30
0.0000000000008527
 40
0.5
  0
CIRCLE
  5
1C3
330
1F
100
AcDbEntity
  8
Engraving
100
AcDbCircle
 10
0.0000000000004547
 20
189.9999999999999
 30
0.0000000000008527
 40
0.5
  0
CIRCLE
  5
1C4
330
1F
100
AcDbEntity
  8
Engraving
100
AcDbCircle
 10
0.0000000000006934
 20
170.0000000000001
 30
0.0000000000008527
 40
0.5000000000002274
  0
CIRCLE
  5
1C5
330
1F
100
AcDbEntity
  8
Engraving
100
AcDbCircle
 10
20.00000000000048
 20
170.0000000000001
 30
0.0000000000008527
 40
0.5000000000000284
  0
CIRCLE
  5
1C6
330
1F
100
AcDbEntity
  8
Engraving
100
AcDbCircle
 10
20.00000000000045
 20
190.0000000000001
 30
0.0000000000008527
 40
0.4999999999999716
  0
CIRCLE
  5
1C7
330
1F
100
AcDbEntity
  8
Engraving
100
AcDbCircle
 10
10.00000000000068
 20
180.0000000000001
 30
0.0000000000008527
 40
0.5000000000002274
  0
CIRCLE
  5
1C8
330
1F
100
AcDbEntity
  8
Engraving
100
AcDbCircle
 10
10.00000000000065
 20
180.0000000000001
 30
0.0000000000008527
 40
9.999999999999801
  0
ARC
  5
1C9
330
1F
100
AcDbEntity
  8
Engraving
100
AcDbCircle
 10
10.0000000000006
 20
180.0000000000003
 30
0.0000000000008432
 40
19.99999999999985
100
AcDbArc
 50
240.0000000000022
 51
119.9999999999986
  0
LINE
  5
1CA
330
1F
100
AcDbEntity
  8
Engraving
100
AcDbLine
 10
30.00000000000045
 20
160.0000000000001
 30
0.0000000000008527
 11
0.0000000000009095
 21
189.9999999999994
 31
0.0000000000008527
  0
LINE
  5
1CB
330
1F
100
AcDbEntity
  8
Engraving
100
AcDbLine
 10
0.0000000000009095
 20
170.0000000000008
 30
0.0000000000008527
 11
30.00000000000068
 21
200.0000000000001
 31
0.0000000000008527
  0
LINE
  5
1CC
330
1F
100
AcDbEntity
  8
Engraving
100
AcDbLine
 10
310.0000000000005
 20
159.9999999999985
 30
0.0000000000008527
 11
340.0000000000009
 21
189.999999999999
 31
0.0000000000008527
  0
ARC
  5
1CD
330
1F
100
AcDbEntity
  8
Engraving
100
AcDbCircle
 10
330.0000000000006
 20
179.999999999999
 30
0.0000000000008179
 40
20.00000000000006
100
AcDbArc
 50
59.99999999999785
 51
300.0000000000022
  0
LINE
  5
1CE
330
1F
100
AcDbEntity
  8
Engraving
100
AcDbLine
 10
340.0000000000009
 20
169.9999999999978
 30
0.0000000000008527
 11
310.0000000000007
 21
199.9999999999987
 31
0.0000000000008527
  0
LINE
  5
1CF
330
1F
100
AcDbEntity
  8
Engraving
100
AcDbLine
 10
310.0000000000002
 20
119.9999999999987
 30
0.0000000000008527
 11
340.0000000000007
 21
149.999999999999
 31
0.0000000000008527
  0
ARC
  5
1D0
330
1F
100
AcDbEntity
  8
Engraving
100
AcDbCircle
 10
330.0000000000005
 20
139.999999999999
 30
0.0000000000007743
 40
20.00000000000022
100
AcDbArc
 50
59.99999999999773
 51
300.0000000000023
  0
LINE
  5
1D1
330
1F
100
AcDbEntity
  8
Engraving
100
AcDbLine
 10
340.0000000000007
 20
129.9999999999978
 30
0.0000000000008527
 11
310.0000000000005
 21
159.9999999999985
 31
0.0000000000008527
  0
LINE
  5
1D2
330
1F
100
AcDbEntity
  8
Engraving
100
AcDbLine
 10
310.0
 20
79.99999999999852
 30
0.0000000000008527
 11
340.0000000000005
 21
109.999999999999
 31
0.0000000000008527
  0
ARC
  5
1D3
330
1F
100
AcDbEntity
  8
Engraving
100
AcDbCircle
 10
330.0000000000001
 20
99.9999999999985
 30
0.0000000000008236
 40
20.0
100
AcDbArc
 50
59.99999999999832
 51
300.0000000000034
  0
LINE
  5
1D4
330
1F
100
AcDbEntity
  8
Engraving
100
AcDbLine
 10
340.0000000000005
 20
89.99999999999784
 30
0.0000000000008527
 11
310.0000000000002
 21
119.9999999999987
 31
0.0000000000008527
  0
LINE
  5
1D5
330
1F
100
AcDbEntity
  8
Engraving
100
AcDbLine
 10
309.9999999999998
 20
39.99999999999852
 30
0.0000000000008527
 11
340.0000000000002
 21
69.99999999999898
 31
0.0000000000008527
  0
ARC
  5
1D6
330
1F
100
AcDbEntity
  8
Engraving
100
AcDbCircle
 10
329.9999999999998
 20
59.99999999999857
 30
0.0000000000008236
 40
20.00000000000006
100
AcDbArc
 50
59.99999999999823
 51
300.0000000000035
  0
LINE
  5
1D7
330
1F
100
AcDbEntity
  8
Engraving
100
AcDbLine
 10
340.0000000000002
 20
49.99999999999784
 30
0.0000000000008527
 11
310.0
 21
79.99999999999852
 31
0.0000000000008527
  0
LINE
  5
1D8
330
1F
100
AcDbEntity
  8
Engraving
100
AcDbLine
 10
309.9999999999998
 20
-0.0000000000012506
 30
0.0000000000008527
 11
340.0
 21
29.9999999999992
 31
0.0000000000008527
  0
ARC
  5
1D9
330
1F
100
AcDbEntity
  8
Engraving
100
AcDbCircle
 10
329.9999999999996
 20
19.99999999999846
 30
0.0000000000008348
 40
19.99999999999999
100
AcDbArc
 50
59.99999999999831
 51
300.0000000000019
  0
LINE
  5
1DA
330
1F
100
AcDbEntity
  8
Engraving
100
AcDbLine
 10
340.0000000000002
 20
9.999999999998067
 30
0.0000000000008527
 11
309.9999999999998
 21
39.99999999999852
 31
0.0000000000008527
  0
ENDSEC
  0
SECTION
  2
OBJECTS
  0
DICTIONARY
  5
C
330
0
100
AcDbDictionary
281
     1
  3
ACAD_GROUP
350
D
  3
ACAD_LAYOUT
350
1A
  3
ACAD_MATERIAL
350
3B
  3
ACAD_MLEADERSTYLE
350
202
  3
ACAD_MLINESTYLE
350
17
  3
ACAD_PLOTSETTINGS
350
19
  3
ACAD_PLOTSTYLENAME
350
E
  3
ACAD_TABLESTYLE
350
201
  3
ACAD_VISUALSTYLE
350
2A
  0
DICTIONARY
  5
D
102
{ACAD_REACTORS
330
C
102
}
330
C
100
AcDbDictionary
281
     1
  0
DICTIONARY
  5
1A
102
{ACAD_REACTORS
330
C
102
}
330
C
100
AcDbDictionary
281
     1
  3
Layout1
350
1E
  3
Layout2
350
26
  3
Model
350
22
  0
DICTIONARY
  5
3B
102
{ACAD_REACTORS
330
C
102
}
330
C
100
AcDbDictionary
281
     1
  3
ByBlock
350
3D
  3
ByLayer
350
3C
  3
Global
350
3E
  0
DICTIONARY
  5
202
102
{ACAD_REACTORS
330
C
102
}
330
C
100
AcDbDictionary
281
     1
  0
DICTIONARY
  5
17
102
{ACAD_REACTORS
330
C
102
}
330
C
100
AcDbDictionary
281
     1
  3
Standard
350
18
  0
DICTIONARY
  5
19
102
{ACAD_REACTORS
330
C
102
}
330
C
100
AcDbDictionary
281
     1
  0
ACDBDICTIONARYWDFLT
  5
E
102
{ACAD_REACTORS
330
C
102
}
330
C
100
AcDbDictionary
281
     1
  3
Normal
350
F
100
AcDbDictionaryWithDefault
340
F
  0
DICTIONARY
  5
201
102
{ACAD_REACTORS
330
C
102
}
330
C
100
AcDbDictionary
281
     1
  0
DICTIONARY
  5
2A
102
{ACAD_REACTORS
330
C
102
}
330
C
100
AcDbDictionary
281
     1
  3
2dWireframe
350
2F
  3
3D Hidden
350
31
  3
3dWireframe
350
30
  3
Basic
350
32
  3
Brighten
350
36
  3
ColorChange
350
3A
  3
Conceptual
350
34
  3
Dim
350
35
  3
Facepattern
350
39
  3
Flat
350
2B
  3
FlatWithEdges
350
2C
  3
Gouraud
350
2D
  3
GouraudWithEdges
350
2E
  3
Linepattern
350
38
  3
Realistic
350
33
  3
Thicken
350
37
  0
LAYOUT
  5
1E
102
{ACAD_REACTORS
330
1A
102
}
330
1A
100
AcDbPlotSettings
  1

  2
none_device
  4

  6

 40
0.0
 41
0.0
 42
0.0
 43
0.0
 44
0.0
 45
0.0
 46
0.0
 47
0.0
 48
0.0
 49
0.0
140
0.0
141
0.0
142
1.0
143
1.0
 70
   688
 72
     0
 73
     0
 74
     5
  7

 75
    16
 76
     0
 77
     2
 78
   300
147
1.0
148
0.0
149
0.0
100
AcDbLayout
  1
Layout1
 70
     1
 71
     1
 10
0.0
 20
0.0
 11
12.0
 21
9.0
 12
0.0
 22
0.0
 32
0.0
 14
1.000000000000000E+20
 24
1.000000000000000E+20
 34
1.000000000000000E+20
 15
-1.000000000000000E+20
 25
-1.000000000000000E+20
 35
-1.000000000000000E+20
146
0.0
 13
0.0
 23
0.0
 33
0.0
 16
1.0
 26
0.0
 36
0.0
 17
0.0
 27
1.0
 37
0.0
 76
     0
330
1B
  0
LAYOUT
  5
26
102
{ACAD_REACTORS
330
1A
102
}
330
1A
100
AcDbPlotSettings
  1

  2
none_device
  4

  6

 40
0.0
 41
0.0
 42
0.0
 43
0.0
 44
0.0
 45
0.0
 46
0.0
 47
0.0
 48
0.0
 49
0.0
140
0.0
141
0.0
142
1.0
143
1.0
 70
   688
 72
     0
 73
     0
 74
     5
  7

 75
    16
 76
     0
 77
     2
 78
   300
147
1.0
148
0.0
149
0.0
100
AcDbLayout
  1
Layout2
 70
     1
 71
     2
 10
0.0
 20
0.0
 11
0.0
 21
0.0
 12
0.0
 22
0.0
 32
0.0
 14
0.0
 24
0.0
 34
0.0
 15
0.0
 25
0.0
 35
0.0
146
0.0
 13
0.0
 23
0.0
 33
0.0
 16
1.0
 26
0.0
 36
0.0
 17
0.0
 27
1.0
 37
0.0
 76
     0
330
23
  0
LAYOUT
  5
22
102
{ACAD_REACTORS
330
1A
102
}
330
1A
100
AcDbPlotSettings
  1

  2
none_device
  4

  6

 40
0.0
 41
0.0
 42
0.0
 43
0.0
 44
0.0
 45
0.0
 46
0.0
 47
0.0
 48
0.0
 49
0.0
140
0.0
141
0.0
142
1.0
143
1.0
 70
  1712
 72
     0
 73
     0
 74
     0
  7

 75
     0
 76
     0
 77
     2
 78
   300
147
1.0
148
0.0
149
0.0
100
AcDbLayout
  1
Model
 70
     1
 71
     0
 10
0.0
 20
0.0
 11
12.0
 21
9.0
 12
0.0
 22
0.0
 32
0.0
 14
-0.5000000000002321
 24
-0.000000000001819
 34
0.0
 15
340.5000000000005
 25
200.0000000000001
 35
0.0000000000008959
146
0.0
 13
0.0
 23
0.0
 33
0.0
 16
1.0
 26
0.0
 36
0.0
 17
0.0
 27
1.0
 37
0.0
 76
     0
330
1F
331
29
  0
MATERIAL
  5
3D
102
{ACAD_REACTORS
330
3B
102
}
102
{ACAD_XDICTIONARY
360
1FD
102
}
330
3B
100
AcDbMaterial
  1
ByBlock
  0
MATERIAL
  5
3C
102
{ACAD_REACTORS
330
3B
102
}
102
{ACAD_XDICTIONARY
360
1FB
102
}
330
3B
100
AcDbMaterial
  1
ByLayer
  0
MATERIAL
  5
3E
102
{ACAD_REACTORS
330
3B
102
}
102
{ACAD_XDICTIONARY
360
1FF
102
}
330
3B
100
AcDbMaterial
  1
Global
  0
MLINESTYLE
  5
18
102
{ACAD_REACTORS
330
17
102
}
330
17
100
AcDbMlineStyle
  2
Standard
 70
     0
  3

 62
   256
 51
90.0
 52
90.0
 71
     2
 49
0.5
 62
   256
  6
BYLAYER
 49
-0.5
 62
   256
  6
BYLAYER
  0
ACDBPLACEHOLDER
  5
F
102
{ACAD_REACTORS
330
E
102
}
330
E
  0
VISUALSTYLE
  5
2F
102
{ACAD_REACTORS
330
2A
102
}
102
{ACAD_XDICTIONARY
360
1E3
102
}
330
2A
100
AcDbVisualStyle
  2
2dWireframe
 70
     4
 71
     0
 72
     2
 73
     0
 90
        0
 40
-0.6
 41
-30.0
 62
     5
 63
     7
421
 16777215
 74
     1
 91
        4
 64
     7
 65
   257
 75
     1
175
     1
 42
1.0
 92
        0
 66
   257
 43
1.0
 76
     1
 77
     6
 78
     2
 67
     7
 79
     5
170
     0
171
     0
290
     0
174
     0
 93
        1
 44
0.0
173
     0
291
     0
 45
0.0
1001
ACAD
1000
AcDbSavedByObjectVersion
1070
     0
  0
VISUALSTYLE
  5
31
102
{ACAD_REACTORS
330
2A
102
}
102
{ACAD_XDICTIONARY
360
1E7
102
}
330
2A
100
AcDbVisualStyle
  2
3D Hidden
 70
     6
 71
     1
 72
     2
 73
     2
 90
        0
 40
-0.6
 41
-30.0
 62
     5
 63
     7
421
 16777215
 74
     2
 91
        2
 64
     7
 65
   257
 75
     2
175
     1
 42
40.0
 92
        0
 66
   257
 43
1.0
 76
     1
 77
     6
 78
     2
 67
     7
 79
     3
170
     0
171
     0
290
     0
174
     0
 93
        1
 44
0.0
173
     0
291
     0
 45
0.0
1001
ACAD
1000
AcDbSavedByObjectVersion
1070
     0
  0
VISUALSTYLE
  5
30
102
{ACAD_REACTORS
330
2A
102
}
102
{ACAD_XDICTIONARY
360
1E5
102
}
330
2A
100
AcDbVisualStyle
  2
3dWireframe
 70
     5
 71
     0
 72
     2
 73
     0
 90
        0
 40
-0.6
 41
-30.0
 62
     5
 63
     7
421
 16777215
 74
     1
 91
        4
 64
     7
 65
   257
 75
     1
175
     1
 42
1.0
 92
        0
 66
   257
 43
1.0
 76
     1
 77
     6
 78
     2
 67
     7
 79
     5
170
     0
171
     0
290
     0
174
     0
 93
        1
 44
0.0
173
     0
291
     0
 45
0.0
1001
ACAD
1000
AcDbSavedByObjectVersion
1070
     0
  0
VISUALSTYLE
  5
32
102
{ACAD_REACTORS
330
2A
102
}
102
{ACAD_XDICTIONARY
360
1E9
102
}
330
2A
100
AcDbVisualStyle
  2
Basic
 70
     7
 71
     1
 72
     0
 73
     1
 90
        0
 40
-0.6
 41
-30.0
 62
     5
 63
     7
421
 16777215
 74
     0
 91
        4
 64
     7
 65
   257
 75
     1
175
     1
 42
1.0
 92
        8
 66
     7
 43
1.0
 76
     1
 77
     6
 78
     2
 67
     7
 79
     5
170
     0
171
     0
290
     0
174
     0
 93
        1
 44
0.0
173
     0
291
     1
 45
0.0
1001
ACAD
1000
AcDbSavedByObjectVersion
1070
     0
  0
VISUALSTYLE
  5
36
102
{ACAD_REACTORS
330
2A
102
}
102
{ACAD_XDICTIONARY
360
1F1
102
}
330
2A
100
AcDbVisualStyle
  2
Brighten
 70
    12
 71
     2
 72
     2
 73
     0
 90
        0
 40
-0.6
 41
-30.0
 62
     5
 63
     7
421
 16777215
 74
     1
 91
        4
 64
     7
 65
   257
 75
     1
175
     1
 42
1.0
 92
        8
 66
     7
 43
1.0
 76
     1
 77
     6
 78
     2
 67
     7
 79
     5
170
     0
171
     0
290
     0
174
     0
 93
        1
 44
50.0
173
     0
291
     1
 45
0.0
1001
ACAD
1000
AcDbSavedByObjectVersion
1070
     0
  0
VISUALSTYLE
  5
3A
102
{ACAD_REACTORS
330
2A
102
}
102
{ACAD_XDICTIONARY
360
1F9
102
}
330
2A
100
AcDbVisualStyle
  2
ColorChange
 70
    16
 71
     2
 72
     2
 73
     3
 90
        0
 40
-0.6
 41
-30.0
 62
     5
 63
     8
421
  8421504
 74
     1
 91
        4
 64
     7
 65
   257
 75
     1
175
     1
 42
1.0
 92
        8
 66
     8
424
  8421504
 43
1.0
 76
     1
 77
     6
 78
     2
 67
     7
 79
     5
170
     0
171
     0
290
     0
174
     0
 93
        1
 44
0.0
173
     0
291
     1
 45
0.0
1001
ACAD
1000
AcDbSavedByObjectVersion
1070
     0
  0
VISUALSTYLE
  5
34
102
{ACAD_REACTORS
330
2A
102
}
102
{ACAD_XDICTIONARY
360
1ED
102
}
330
2A
100
AcDbVisualStyle
  2
Conceptual
 70
     9
 71
     3
 72
     2
 73
     0
 90
        0
 40
-0.6
 41
-30.0
 62
     5
 63
     7
421
 16777215
 74
     2
 91
        2
 64
     7
 65
   257
 75
     1
175
     1
 42
40.0
 92
        8
 66
     7
 43
1.0
 76
     1
 77
     6
 78
     2
 67
     7
 79
     3
170
     0
171
     0
290
     0
174
     0
 93
        1
 44
0.0
173
     0
291
     0
 45
0.0
1001
ACAD
1000
AcDbSavedByObjectVersion
1070
     0
  0
VISUALSTYLE
  5
35
102
{ACAD_REACTORS
330
2A
102
}
102
{ACAD_XDICTIONARY
360
1EF
102
}
330
2A
100
AcDbVisualStyle
  2
Dim
 70
    11
 71
     2
 72
     2
 73
     0
 90
        0
 40
-0.6
 41
-30.0
 62
     5
 63
     7
421
 16777215
 74
     1
 91
        4
 64
     7
 65
   257
 75
     1
175
     1
 42
1.0
 92
        8
 66
     7
 43
1.0
 76
     1
 77
     6
 78
     2
 67
     7
 79
     5
170
     0
171
     0
290
     0
174
     0
 93
        1
 44
-50.0
173
     0
291
     1
 45
0.0
1001
ACAD
1000
AcDbSavedByObjectVersion
1070
     0
  0
VISUALSTYLE
  5
39
102
{ACAD_REACTORS
330
2A
102
}
102
{ACAD_XDICTIONARY
360
1F7
102
}
330
2A
100
AcDbVisualStyle
  2
Facepattern
 70
    15
 71
     2
 72
     2
 73
     0
 90
        0
 40
-0.6
 41
-30.0
 62
     5
 63
     7
421
 16777215
 74
     1
 91
        4
 64
     7
 65
   257
 75
     1
175
     1
 42
1.0
 92
        8
 66
     7
 43
1.0
 76
     1
 77
     6
 78
     2
 67
     7
 79
     5
170
     0
171
     0
290
     0
174
     0
 93
        1
 44
0.0
173
     0
291
     1
 45
0.0
1001
ACAD
1000
AcDbSavedByObjectVersion
1070
     0
  0
VISUALSTYLE
  5
2B
102
{ACAD_REACTORS
330
2A
102
}
102
{ACAD_XDICTIONARY
360
1DB
102
}
330
2A
100
AcDbVisualStyle
  2
Flat
 70
     0
 71
     2
 72
     1
 73
     1
 90
        2
 40
-0.6
 41
30.0
 62
     5
 63
     7
421
 16777215
 74
     0
 91
        4
 64
     7
 65
   257
 75
     1
175
     1
 42
1.0
 92
        8
 66
     7
 43
1.0
 76
     1
 77
     6
 78
     2
 67
     7
 79
     5
170
     0
171
     0
290
     0
174
     0
 93
       13
 44
0.0
173
     0
291
     1
 45
0.0
1001
ACAD
1000
AcDbSavedByObjectVersion
1070
     0
  0
VISUALSTYLE
  5
2C
102
{ACAD_REACTORS
330
2A
102
}
102
{ACAD_XDICTIONARY
360
1DD
102
}
330
2A
100
AcDbVisualStyle
  2
FlatWithEdges
 70
     1
 71
     2
 72
     1
 73
     1
 90
        2
 40
-0.6
 41
30.0
 62
     5
 63
     7
421
 16777215
 74
     1
 91
        4
 64
     7
 65
   257
 75
     1
175
     1
 42
1.0
 92
        0
 66
   257
 43
1.0
 76
     1
 77
     6
 78
     2
 67
     7
 79
     5
170
     0
171
     0
290
     0
174
     0
 93
       13
 44
0.0
173
     0
291
     1
 45
0.0
1001
ACAD
1000
AcDbSavedByObjectVersion
1070
     0
  0
VISUALSTYLE
  5
2D
102
{ACAD_REACTORS
330
2A
102
}
102
{ACAD_XDICTIONARY
360
1DF
102
}
330
2A
100
AcDbVisualStyle
  2
Gouraud
 70
     2
 71
     2
 72
     2
 73
     1
 90
        2
 40
-0.6
 41
30.0
 62
     5
 63
     7
421
 16777215
 74
     0
 91
        4
 64
     7
 65
   257
 75
     1
175
     1
 42
1.0
 92
        0
 66
     7
 43
1.0
 76
     1
 77
     6
 78
     2
 67
     7
 79
     5
170
     0
171
     0
290
     0
174
     0
 93
       13
 44
0.0
173
     0
291
     1
 45
0.0
1001
ACAD
1000
AcDbSavedByObjectVersion
1070
     0
  0
VISUALSTYLE
  5
2E
102
{ACAD_REACTORS
330
2A
102
}
102
{ACAD_XDICTIONARY
360
1E1
102
}
330
2A
100
AcDbVisualStyle
  2
GouraudWithEdges
 70
     3
 71
     2
 72
     2
 73
     1
 90
        2
 40
-0.6
 41
30.0
 62
     5
 63
     7
421
 16777215
 74
     1
 91
        4
 64
     7
 65
   257
 75
     1
175
     1
 42
1.0
 92
        0
 66
   257
 43
1.0
 76
     1
 77
     6
 78
     2
 67
     7
 79
     5
170
     0
171
     0
290
     0
174
     0
 93
       13
 44
0.0
173
     0
291
     1
 45
0.0
1001
ACAD
1000
AcDbSavedByObjectVersion
1070
     0
  0
VISUALSTYLE
  5
38
102
{ACAD_REACTORS
330
2A
102
}
102
{ACAD_XDICTIONARY
360
1F5
102
}
330
2A
100
AcDbVisualStyle
  2
Linepattern
 70
    14
 71
     2
 72
     2
 73
     0
 90
        0
 40
-0.6
 41
-30.0
 62
     5
 63
     7
421
 16777215
 74
     1
 91
        4
 64
     7
 65
   257
 75
     7
175
     7
 42
1.0
 92
        8
 66
     7
 43
1.0
 76
     1
 77
     6
 78
     2
 67
     7
 79
     5
170
     0
171
     0
290
     0
174
     0
 93
        1
 44
0.0
173
     0
291
     1
 45
0.0
1001
ACAD
1000
AcDbSavedByObjectVersion
1070
     0
  0
VISUALSTYLE
  5
33
102
{ACAD_REACTORS
330
2A
102
}
102
{ACAD_XDICTIONARY
360
1EB
102
}
330
2A
100
AcDbVisualStyle
  2
Realistic
 70
     8
 71
     2
 72
     2
 73
     0
 90
        0
 40
-0.6
 41
-30.0
 62
     5
 63
     7
421
 16777215
 74
     1
 91
        0
 64
     7
 65
   257
 75
     1
175
     1
 42
1.0
 92
        8
 66
     8
424
  7895160
 43
1.0
 76
     1
 77
     6
 78
     2
 67
     7
 79
     5
170
     0
171
     0
290
     0
174
     0
 93
       13
 44
0.0
173
     0
291
     0
 45
0.0
1001
ACAD
1000
AcDbSavedByObjectVersion
1070
     0
  0
VISUALSTYLE
  5
37
102
{ACAD_REACTORS
330
2A
102
}
102
{ACAD_XDICTIONARY
360
1F3
102
}
330
2A
100
AcDbVisualStyle
  2
Thicken
 70
    13
 71
     2
 72
     2
 73
     0
 90
        0
 40
-0.6
 41
-30.0
 62
     5
 63
     7
421
 16777215
 74
     1
 91
        4
 64
     7
 65
   257
 75
     1
175
     1
 42
1.0
 92
       12
 66
     7
 43
1.0
 76
     1
 77
     6
 78
     2
 67
     7
 79
     5
170
     0
171
     0
290
     0
174
     0
 93
        1
 44
0.0
173
     0
291
     1
 45
0.0
1001
ACAD
1000
AcDbSavedByObjectVersion
1070
     0
  0
DICTIONARY
  5
1FD
330
3D
100
AcDbDictionary
280
     1
281
     1
  3
ACAD_XREC_ROUNDTRIP
360
1FE
  0
DICTIONARY
  5
1FB
330
3C
100
AcDbDictionary
280
     1
281
     1
  3
ACAD_XREC_ROUNDTRIP
360
1FC
  0
DICTIONARY
  5
1FF
330
3E
100
AcDbDictionary
280
     1
281
     1
  3
ACAD_XREC_ROUNDTRIP
360
200
  0
DICTIONARY
  5
1E3
330
2F
100
AcDbDictionary
280
     1
281
     1
  3
ACAD_XREC_ROUNDTRIP
360
1E4
  0
DICTIONARY
  5
1E7
330
31
100
AcDbDictionary
280
     1
281
     1
  3
ACAD_XREC_ROUNDTRIP
360
1E8
  0
DICTIONARY
  5
1E5
330
30
100
AcDbDictionary
280
     1
281
     1
  3
ACAD_XREC_ROUNDTRIP
360
1E6
  0
DICTIONARY
  5
1E9
330
32
100
AcDbDictionary
280
     1
281
     1
  3
ACAD_XREC_ROUNDTRIP
360
1EA
  0
DICTIONARY
  5
1F1
330
36
100
AcDbDictionary
280
     1
281
     1
  3
ACAD_XREC_ROUNDTRIP
360
1F2
  0
DICTIONARY
  5
1F9
330
3A
100
AcDbDictionary
280
     1
281
     1
  3
ACAD_XREC_ROUNDTRIP
360
1FA
  0
DICTIONARY
  5
1ED
330
34
100
AcDbDictionary
280
     1
281
     1
  3
ACAD_XREC_ROUNDTRIP
360
1EE
  0
DICTIONARY
  5
1EF
330
35
100
AcDbDictionary
280
     1
281
     1
  3
ACAD_XREC_ROUNDTRIP
360
1F0
  0
DICTIONARY
  5
1F7
330
39
100
AcDbDictionary
280
     1
281
     1
  3
ACAD_XREC_ROUNDTRIP
360
1F8
  0
DICTIONARY
  5
1DB
330
2B
100
AcDbDictionary
280
     1
281
     1
  3
ACAD_XREC_ROUNDTRIP
360
1DC
  0
DICTIONARY
  5
1DD
330
2C
100
AcDbDictionary
280
     1
281
     1
  3
ACAD_XREC_ROUNDTRIP
360
1DE
  0
DICTIONARY
  5
1DF
330
2D
100
AcDbDictionary
280
     1
281
     1
  3
ACAD_XREC_ROUNDTRIP
360
1E0
  0
DICTIONARY
  5
1E1
330
2E
100
AcDbDictionary
280
     1
281
     1
  3
ACAD_XREC_ROUNDTRIP
360
1E2
  0
DICTIONARY
  5
1F5
330
38
100
AcDbDictionary
280
     1
281
     1
  3
ACAD_XREC_ROUNDTRIP
360
1F6
  0
DICTIONARY
  5
1EB
330
33
100
AcDbDictionary
280
     1
281
     1
  3
ACAD_XREC_ROUNDTRIP
360
1EC
  0
DICTIONARY
  5
1F3
330
37
100
AcDbDictionary
280
     1
281
     1
  3
ACAD_XREC_ROUNDTRIP
360
1F4
  0
XRECORD
  5
1FE
102
{ACAD_REACTORS
330
1FD
102
}
330
1FD
100
AcDbXrecord
280
     1
102
MATERIAL
148
0.0
149
0.0
149
0.0
 93
        0
 94
      127
282
     0
 72
     1
 77
     1
171
     1
175
     1
179
     1
273
     0
  0
XRECORD
  5
1FC
102
{ACAD_REACTORS
330
1FB
102
}
330
1FB
100
AcDbXrecord
280
     1
102
MATERIAL
148
0.0
149
0.0
149
0.0
 93
        0
 94
      127
282
     0
 72
     1
 77
     1
171
     1
175
     1
179
     1
273
     0
  0
XRECORD
  5
200
102
{ACAD_REACTORS
330
1FF
102
}
330
1FF
100
AcDbXrecord
280
     1
102
MATERIAL
148
0.0
149
0.0
149
0.0
 93
        0
 94
      127
282
     0
 72
     1
 77
     1
171
     1
175
     1
179
     1
273
     0
  0
XRECORD
  5
1E4
102
{ACAD_REACTORS
330
1E3
102
}
330
1E3
100
AcDbXrecord
280
     1
102
RTVSPropertyOp0
 70
     1
102
RTVSPropertyOp1
 70
     1
102
RTVSPropertyOp2
 70
     1
102
RTVSPropertyOp3
 70
     1
102
RTVSPropertyOp4
 70
     1
102
RTVSPropertyOp5
 70
     1
102
RTVSPropertyOp6
 70
     1
102
RTVSPropertyOp7
 70
     1
102
RTVSPropertyOp8
 70
     1
102
RTVSPropertyOp9
 70
     1
102
RTVSPropertyOp10
 70
     1
102
RTVSPropertyOp11
 70
     1
102
RTVSPropertyOp12
 70
     1
102
RTVSPropertyOp13
 70
     1
102
RTVSPropertyOp14
 70
     1
102
RTVSPropertyOp15
 70
     1
102
RTVSPropertyOp16
 70
     1
102
RTVSPropertyOp17
 70
     1
102
RTVSPropertyOp18
 70
     1
102
RTVSPropertyOp19
 70
     1
102
RTVSPropertyOp20
 70
     1
102
RTVSPropertyOp21
 70
     1
102
RTVSPropertyOp22
 70
     1
102
RTVSPropertyOp23
 70
     1
102
RTVSPropertyOp24
 70
     1
102
RTVSPropertyOp25
 70
     1
102
RTVSPropertyOp26
 70
     1
102
RTVSPropertyOp27
 70
     1
102
RTVSPropertyOp28
 70
     1
102
RTVSPropertyOp29
 70
     1
102
RTVSPropertyOp30
 70
     1
102
RTVSPropertyOp31
 70
     1
102
RTVSPropertyOp32
 70
     1
  0
XRECORD
  5
1E8
102
{ACAD_REACTORS
330
1E7
102
}
330
1E7
100
AcDbXrecord
280
     1
102
RTVSPropertyOp0
 70
     1
102
RTVSPropertyOp1
 70
     1
102
RTVSPropertyOp2
 70
     1
102
RTVSPropertyOp3
 70
     1
102
RTVSPropertyOp4
 70
     1
102
RTVSPropertyOp5
 70
     1
102
RTVSPropertyOp6
 70
     1
102
RTVSPropertyOp7
 70
     1
102
RTVSPropertyOp8
 70
     1
102
RTVSPropertyOp9
 70
     1
102
RTVSPropertyOp10
 70
     1
102
RTVSPropertyOp11
 70
     1
102
RTVSPropertyOp12
 70
     1
102
RTVSPropertyOp13
 70
     1
102
RTVSPropertyOp14
 70
     1
102
RTVSPropertyOp15
 70
     1
102
RTVSPropertyOp16
 70
     1
102
RTVSPropertyOp17
 70
     1
102
RTVSPropertyOp18
 70
     1
102
RTVSPropertyOp19
 70
     1
102
RTVSPropertyOp20
 70
     1
102
RTVSPropertyOp21
 70
     1
102
RTVSPropertyOp22
 70
     1
102
RTVSPropertyOp23
 70
     1
102
RTVSPropertyOp24
 70
     1
102
RTVSPropertyOp25
 70
     1
102
RTVSPropertyOp26
 70
     1
102
RTVSPropertyOp27
 70
     1
102
RTVSPropertyOp28
 70
     1
102
RTVSPropertyOp29
 70
     1
102
RTVSPropertyOp30
 70
     1
102
RTVSPropertyOp31
 70
     1
102
RTVSPropertyOp32
 70
     1
  0
XRECORD
  5
1E6
102
{ACAD_REACTORS
330
1E5
102
}
330
1E5
100
AcDbXrecord
280
     1
102
RTVSPropertyOp0
 70
     1
102
RTVSPropertyOp1
 70
     1
102
RTVSPropertyOp2
 70
     1
102
RTVSPropertyOp3
 70
     1
102
RTVSPropertyOp4
 70
     1
102
RTVSPropertyOp5
 70
     1
102
RTVSPropertyOp6
 70
     1
102
RTVSPropertyOp7
 70
     1
102
RTVSPropertyOp8
 70
     1
102
RTVSPropertyOp9
 70
     1
102
RTVSPropertyOp10
 70
     1
102
RTVSPropertyOp11
 70
     1
102
RTVSPropertyOp12
 70
     1
102
RTVSPropertyOp13
 70
     1
102
RTVSPropertyOp14
 70
     1
102
RTVSPropertyOp15
 70
     1
102
RTVSPropertyOp16
 70
     1
102
RTVSPropertyOp17
 70
     1
102
RTVSPropertyOp18
 70
     1
102
RTVSPropertyOp19
 70
     1
102
RTVSPropertyOp20
 70
     1
102
RTVSPropertyOp21
 70
     1
102
RTVSPropertyOp22
 70
     1
102
RTVSPropertyOp23
 70
     1
102
RTVSPropertyOp24
 70
     1
102
RTVSPropertyOp25
 70
     1
102
RTVSPropertyOp26
 70
     1
102
RTVSPropertyOp27
 70
     1
102
RTVSPropertyOp28
 70
     1
102
RTVSPropertyOp29
 70
     1
102
RTVSPropertyOp30
 70
     1
102
RTVSPropertyOp31
 70
     1
102
RTVSPropertyOp32
 70
     1
  0
XRECORD
  5
1EA
102
{ACAD_REACTORS
330
1E9
102
}
330
1E9
100
AcDbXrecord
280
     1
102
RTVSPropertyOp0
 70
     1
102
RTVSPropertyOp1
 70
     1
102
RTVSPropertyOp2
 70
     1
102
RTVSPropertyOp3
 70
     1
102
RTVSPropertyOp4
 70
     1
102
RTVSPropertyOp5
 70
     1
102
RTVSPropertyOp6
 70
     1
102
RTVSPropertyOp7
 70
     1
102
RTVSPropertyOp8
 70
     1
102
RTVSPropertyOp9
 70
     1
102
RTVSPropertyOp10
 70
     1
102
RTVSPropertyOp11
 70
     1
102
RTVSPropertyOp12
 70
     1
102
RTVSPropertyOp13
 70
     1
102
RTVSPropertyOp14
 70
     1
102
RTVSPropertyOp15
 70
     1
102
RTVSPropertyOp16
 70
     1
102
RTVSPropertyOp17
 70
     1
102
RTVSPropertyOp18
 70
     1
102
RTVSPropertyOp19
 70
     1
102
RTVSPropertyOp20
 70
     1
102
RTVSPropertyOp21
 70
     1
102
RTVSPropertyOp22
 70
     1
102
RTVSPropertyOp23
 70
     1
102
RTVSPropertyOp24
 70
     1
102
RTVSPropertyOp25
 70
     1
102
RTVSPropertyOp26
 70
     1
102
RTVSPropertyOp27
 70
     1
102
RTVSPropertyOp28
 70
     1
102
RTVSPropertyOp29
 70
     1
102
RTVSPropertyOp30
 70
     1
102
RTVSPropertyOp31
 70
     1
102
RTVSPropertyOp32
 70
     1
  0
XRECORD
  5
1F2
102
{ACAD_REACTORS
330
1F1
102
}
330
1F1
100
AcDbXrecord
280
     1
102
RTVSPropertyOp0
 70
     1
102
RTVSPropertyOp1
 70
     1
102
RTVSPropertyOp2
 70
     1
102
RTVSPropertyOp3
 70
     1
102
RTVSPropertyOp4
 70
     1
102
RTVSPropertyOp5
 70
     1
102
RTVSPropertyOp6
 70
     1
102
RTVSPropertyOp7
 70
     1
102
RTVSPropertyOp8
 70
     1
102
RTVSPropertyOp9
 70
     1
102
RTVSPropertyOp10
 70
     1
102
RTVSPropertyOp11
 70
     1
102
RTVSPropertyOp12
 70
     1
102
RTVSPropertyOp13
 70
     1
102
RTVSPropertyOp14
 70
     1
102
RTVSPropertyOp15
 70
     1
102
RTVSPropertyOp16
 70
     1
102
RTVSPropertyOp17
 70
     1
102
RTVSPropertyOp18
 70
     1
102
RTVSPropertyOp19
 70
     1
102
RTVSPropertyOp20
 70
     1
102
RTVSPropertyOp21
 70
     1
102
RTVSPropertyOp22
 70
     1
102
RTVSPropertyOp23
 70
     1
102
RTVSPropertyOp24
 70
     1
102
RTVSPropertyOp25
 70
     1
102
RTVSPropertyOp26
 70
     1
102
RTVSPropertyOp27
 70
     1
102
RTVSPropertyOp28
 70
     1
102
RTVSPropertyOp29
 70
     1
102
RTVSPropertyOp30
 70
     1
102
RTVSPropertyOp31
 70
     1
102
RTVSPropertyOp32
 70
     1
  0
XRECORD
  5
1FA
102
{ACAD_REACTORS
330
1F9
102
}
330
1F9
100
AcDbXrecord
280
     1
102
RTVSPropertyOp0
 70
     1
102
RTVSPropertyOp1
 70
     1
102
RTVSPropertyOp2
 70
     1
102
RTVSPropertyOp3
 70
     1
102
RTVSPropertyOp4
 70
     1
102
RTVSPropertyOp5
 70
     1
102
RTVSPropertyOp6
 70
     1
102
RTVSPropertyOp7
 70
     1
102
RTVSPropertyOp8
 70
     1
102
RTVSPropertyOp9
 70
     1
102
RTVSPropertyOp10
 70
     1
102
RTVSPropertyOp11
 70
     1
102
RTVSPropertyOp12
 70
     1
102
RTVSPropertyOp13
 70
     1
102
RTVSPropertyOp14
 70
     1
102
RTVSPropertyOp15
 70
     1
102
RTVSPropertyOp16
 70
     1
102
RTVSPropertyOp17
 70
     1
102
RTVSPropertyOp18
 70
     1
102
RTVSPropertyOp19
 70
     1
102
RTVSPropertyOp20
 70
     1
102
RTVSPropertyOp21
 70
     1
102
RTVSPropertyOp22
 70
     1
102
RTVSPropertyOp23
 70
     1
102
RTVSPropertyOp24
 70
     1
102
RTVSPropertyOp25
 70
     1
102
RTVSPropertyOp26
 70
     1
102
RTVSPropertyOp27
 70
     1
102
RTVSPropertyOp28
 70
     1
102
RTVSPropertyOp29
 70
     1
102
RTVSPropertyOp30
 70
     1
102
RTVSPropertyOp31
 70
     1
102
RTVSPropertyOp32
 70
     1
  0
XRECORD
  5
1EE
102
{ACAD_REACTORS
330
1ED
102
}
330
1ED
100
AcDbXrecord
280
     1
102
RTVSPropertyOp0
 70
     1
102
RTVSPropertyOp1
 70
     1
102
RTVSPropertyOp2
 70
     1
102
RTVSPropertyOp3
 70
     1
102
RTVSPropertyOp4
 70
     1
102
RTVSPropertyOp5
 70
     1
102
RTVSPropertyOp6
 70
     1
102
RTVSPropertyOp7
 70
     1
102
RTVSPropertyOp8
 70
     1
102
RTVSPropertyOp9
 70
     1
102
RTVSPropertyOp10
 70
     1
102
RTVSPropertyOp11
 70
     1
102
RTVSPropertyOp12
 70
     1
102
RTVSPropertyOp13
 70
     1
102
RTVSPropertyOp14
 70
     1
102
RTVSPropertyOp15
 70
     1
102
RTVSPropertyOp16
 70
     1
102
RTVSPropertyOp17
 70
     1
102
RTVSPropertyOp18
 70
     1
102
RTVSPropertyOp19
 70
     1
102
RTVSPropertyOp20
 70
     1
102
RTVSPropertyOp21
 70
     1
102
RTVSPropertyOp22
 70
     1
102
RTVSPropertyOp23
 70
     1
102
RTVSPropertyOp24
 70
     1
102
RTVSPropertyOp25
 70
     1
102
RTVSPropertyOp26
 70
     1
102
RTVSPropertyOp27
 70
     1
102
RTVSPropertyOp28
 70
     1
102
RTVSPropertyOp29
 70
     1
102
RTVSPropertyOp30
 70
     1
102
RTVSPropertyOp31
 70
     1
102
RTVSPropertyOp32
 70
     1
  0
XRECORD
  5
1F0
102
{ACAD_REACTORS
330
1EF
102
}
330
1EF
100
AcDbXrecord
280
     1
102
RTVSPropertyOp0
 70
     1
102
RTVSPropertyOp1
 70
     1
102
RTVSPropertyOp2
 70
     1
102
RTVSPropertyOp3
 70
     1
102
RTVSPropertyOp4
 70
     1
102
RTVSPropertyOp5
 70
     1
102
RTVSPropertyOp6
 70
     1
102
RTVSPropertyOp7
 70
     1
102
RTVSPropertyOp8
 70
     1
102
RTVSPropertyOp9
 70
     1
102
RTVSPropertyOp10
 70
     1
102
RTVSPropertyOp11
 70
     1
102
RTVSPropertyOp12
 70
     1
102
RTVSPropertyOp13
 70
     1
102
RTVSPropertyOp14
 70
     1
102
RTVSPropertyOp15
 70
     1
102
RTVSPropertyOp16
 70
     1
102
RTVSPropertyOp17
 70
     1
102
RTVSPropertyOp18
 70
     1
102
RTVSPropertyOp19
 70
     1
102
RTVSPropertyOp20
 70
     1
102
RTVSPropertyOp21
 70
     1
102
RTVSPropertyOp22
 70
     1
102
RTVSPropertyOp23
 70
     1
102
RTVSPropertyOp24
 70
     1
102
RTVSPropertyOp25
 70
     1
102
RTVSPropertyOp26
 70
     1
102
RTVSPropertyOp27
 70
     1
102
RTVSPropertyOp28
 70
     1
102
RTVSPropertyOp29
 70
     1
102
RTVSPropertyOp30
 70
     1
102
RTVSPropertyOp31
 70
     1
102
RTVSPropertyOp32
 70
     1
  0
XRECORD
  5
1F8
102
{ACAD_REACTORS
330
1F7
102
}
330
1F7
100
AcDbXrecord
280
     1
102
RTVSPropertyOp0
 70
     1
102
RTVSPropertyOp1
 70
     1
102
RTVSPropertyOp2
 70
     1
102
RTVSPropertyOp3
 70
     1
102
RTVSPropertyOp4
 70
     1
102
RTVSPropertyOp5
 70
     1
102
RTVSPropertyOp6
 70
     1
102
RTVSPropertyOp7
 70
     1
102
RTVSPropertyOp8
 70
     1
102
RTVSPropertyOp9
 70
     1
102
RTVSPropertyOp10
 70
     1
102
RTVSPropertyOp11
 70
     1
102
RTVSPropertyOp12
 70
     1
102
RTVSPropertyOp13
 70
     1
102
RTVSPropertyOp14
 70
     1
102
RTVSPropertyOp15
 70
     1
102
RTVSPropertyOp16
 70
     1
102
RTVSPropertyOp17
 70
     1
102
RTVSPropertyOp18
 70
     1
102
RTVSPropertyOp19
 70
     1
102
RTVSPropertyOp20
 70
     1
102
RTVSPropertyOp21
 70
     1
102
RTVSPropertyOp22
 70
     1
102
RTVSPropertyOp23
 70
     1
102
RTVSPropertyOp24
 70
     1
102
RTVSPropertyOp25
 70
     1
102
RTVSPropertyOp26
 70
     1
102
RTVSPropertyOp27
 70
     1
102
RTVSPropertyOp28
 70
     1
102
RTVSPropertyOp29
 70
     1
102
RTVSPropertyOp30
 70
     1
102
RTVSPropertyOp31
 70
     1
102
RTVSPropertyOp32
 70
     1
  0
XRECORD
  5
1DC
102
{ACAD_REACTORS
330
1DB
102
}
330
1DB
100
AcDbXrecord
280
     1
102
RTVSPropertyOp0
 70
     1
102
RTVSPropertyOp1
 70
     1
102
RTVSPropertyOp2
 70
     1
102
RTVSPropertyOp3
 70
     1
102
RTVSPropertyOp4
 70
     1
102
RTVSPropertyOp5
 70
     1
102
RTVSPropertyOp6
 70
     1
102
RTVSPropertyOp7
 70
     1
102
RTVSPropertyOp8
 70
     1
102
RTVSPropertyOp9
 70
     1
102
RTVSPropertyOp10
 70
     1
102
RTVSPropertyOp11
 70
     1
102
RTVSPropertyOp12
 70
     1
102
RTVSPropertyOp13
 70
     1
102
RTVSPropertyOp14
 70
     1
102
RTVSPropertyOp15
 70
     1
102
RTVSPropertyOp16
 70
     1
102
RTVSPropertyOp17
 70
     1
102
RTVSPropertyOp18
 70
     1
102
RTVSPropertyOp19
 70
     1
102
RTVSPropertyOp20
 70
     1
102
RTVSPropertyOp21
 70
     1
102
RTVSPropertyOp22
 70
     1
102
RTVSPropertyOp23
 70
     1
102
RTVSPropertyOp24
 70
     1
102
RTVSPropertyOp25
 70
     1
102
RTVSPropertyOp26
 70
     1
102
RTVSPropertyOp27
 70
     1
102
RTVSPropertyOp28
 70
     1
102
RTVSPropertyOp29
 70
     1
102
RTVSPropertyOp30
 70
     1
102
RTVSPropertyOp31
 70
     1
102
RTVSPropertyOp32
 70
     1
  0
XRECORD
  5
1DE
102
{ACAD_REACTORS
330
1DD
102
}
330
1DD
100
AcDbXrecord
280
     1
102
RTVSPropertyOp0
 70
     1
102
RTVSPropertyOp1
 70
     1
102
RTVSPropertyOp2
 70
     1
102
RTVSPropertyOp3
 70
     1
102
RTVSPropertyOp4
 70
     1
102
RTVSPropertyOp5
 70
     1
102
RTVSPropertyOp6
 70
     1
102
RTVSPropertyOp7
 70
     1
102
RTVSPropertyOp8
 70
     1
102
RTVSPropertyOp9
 70
     1
102
RTVSPropertyOp10
 70
     1
102
RTVSPropertyOp11
 70
     1
102
RTVSPropertyOp12
 70
     1
102
RTVSPropertyOp13
 70
     1
102
RTVSPropertyOp14
 70
     1
102
RTVSPropertyOp15
 70
     1
102
RTVSPropertyOp16
 70
     1
102
RTVSPropertyOp17
 70
     1
102
RTVSPropertyOp18
 70
     1
102
RTVSPropertyOp19
 70
     1
102
RTVSPropertyOp20
 70
     1
102
RTVSPropertyOp21
 70
     1
102
RTVSPropertyOp22
 70
     1
102
RTVSPropertyOp23
 70
     1
102
RTVSPropertyOp24
 70
     1
102
RTVSPropertyOp25
 70
     1
102
RTVSPropertyOp26
 70
     1
102
RTVSPropertyOp27
 70
     1
102
RTVSPropertyOp28
 70
     1
102
RTVSPropertyOp29
 70
     1
102
RTVSPropertyOp30
 70
     1
102
RTVSPropertyOp31
 70
     1
102
RTVSPropertyOp32
 70
     1
  0
XRECORD
  5
1E0
102
{ACAD_REACTORS
330
1DF
102
}
330
1DF
100
AcDbXrecord
280
     1
102
RTVSPropertyOp0
 70
     1
102
RTVSPropertyOp1
 70
     1
102
RTVSPropertyOp2
 70
     1
102
RTVSPropertyOp3
 70
     1
102
RTVSPropertyOp4
 70
     1
102
RTVSPropertyOp5
 70
     1
102
RTVSPropertyOp6
 70
     1
102
RTVSPropertyOp7
 70
     1
102
RTVSPropertyOp8
 70
     1
102
RTVSPropertyOp9
 70
     1
102
RTVSPropertyOp10
 70
     1
102
RTVSPropertyOp11
 70
     1
102
RTVSPropertyOp12
 70
     1
102
RTVSPropertyOp13
 70
     1
102
RTVSPropertyOp14
 70
     1
102
RTVSPropertyOp15
 70
     1
102
RTVSPropertyOp16
 70
     1
102
RTVSPropertyOp17
 70
     1
102
RTVSPropertyOp18
 70
     1
102
RTVSPropertyOp19
 70
     1
102
RTVSPropertyOp20
 70
     1
102
RTVSPropertyOp21
 70
     1
102
RTVSPropertyOp22
 70
     1
102
RTVSPropertyOp23
 70
     1
102
RTVSPropertyOp24
 70
     1
102
RTVSPropertyOp25
 70
     1
102
RTVSPropertyOp26
 70
     1
102
RTVSPropertyOp27
 70
     1
102
RTVSPropertyOp28
 70
     1
102
RTVSPropertyOp29
 70
     1
102
RTVSPropertyOp30
 70
     1
102
RTVSPropertyOp31
 70
     1
102
RTVSPropertyOp32
 70
     1
  0
XRECORD
  5
1E2
102
{ACAD_REACTORS
330
1E1
102
}
330
1E1
100
AcDbXrecord
280
     1
102
RTVSPropertyOp0
 70
     1
102
RTVSPropertyOp1
 70
     1
102
RTVSPropertyOp2
 70
     1
102
RTVSPropertyOp3
 70
     1
102
RTVSPropertyOp4
 70
     1
102
RTVSPropertyOp5
 70
     1
102
RTVSPropertyOp6
 70
     1
102
RTVSPropertyOp7
 70
     1
102
RTVSPropertyOp8
 70
     1
102
RTVSPropertyOp9
 70
     1
102
RTVSPropertyOp10
 70
     1
102
RTVSPropertyOp11
 70
     1
102
RTVSPropertyOp12
 70
     1
102
RTVSPropertyOp13
 70
     1
102
RTVSPropertyOp14
 70
     1
102
RTVSPropertyOp15
 70
     1
102
RTVSPropertyOp16
 70
     1
102
RTVSPropertyOp17
 70
     1
102
RTVSPropertyOp18
 70
     1
102
RTVSPropertyOp19
 70
     1
102
RTVSPropertyOp20
 70
     1
102
RTVSPropertyOp21
 70
     1
102
RTVSPropertyOp22
 70
     1
102
RTVSPropertyOp23
 70
     1
102
RTVSPropertyOp24
 70
     1
102
RTVSPropertyOp25
 70
     1
102
RTVSPropertyOp26
 70
     1
102
RTVSPropertyOp27
 70
     1
102
RTVSPropertyOp28
 70
     1
102
RTVSPropertyOp29
 70
     1
102
RTVSPropertyOp30
 70
     1
102
RTVSPropertyOp31
 70
     1
102
RTVSPropertyOp32
 70
     1
  0
XRECORD
  5
1F6
102
{ACAD_REACTORS
330
1F5
102
}
330
1F5
100
AcDbXrecord
280
     1
102
RTVSPropertyOp0
 70
     1
102
RTVSPropertyOp1
 70
     1
102
RTVSPropertyOp2
 70
     1
102
RTVSPropertyOp3
 70
     1
102
RTVSPropertyOp4
 70
     1
102
RTVSPropertyOp5
 70
     1
102
RTVSPropertyOp6
 70
     1
102
RTVSPropertyOp7
 70
     1
102
RTVSPropertyOp8
 70
     1
102
RTVSPropertyOp9
 70
     1
102
RTVSPropertyOp10
 70
     1
102
RTVSPropertyOp11
 70
     1
102
RTVSPropertyOp12
 70
     1
102
RTVSPropertyOp13
 70
     1
102
RTVSPropertyOp14
 70
     1
102
RTVSPropertyOp15
 70
     1
102
RTVSPropertyOp16
 70
     1
102
RTVSPropertyOp17
 70
     1
102
RTVSPropertyOp18
 70
     1
102
RTVSPropertyOp19
 70
     1
102
RTVSPropertyOp20
 70
     1
102
RTVSPropertyOp21
 70
     1
102
RTVSPropertyOp22
 70
     1
102
RTVSPropertyOp23
 70
     1
102
RTVSPropertyOp24
 70
     1
102
RTVSPropertyOp25
 70
     1
102
RTVSPropertyOp26
 70
     1
102
RTVSPropertyOp27
 70
     1
102
RTVSPropertyOp28
 70
     1
102
RTVSPropertyOp29
 70
     1
102
RTVSPropertyOp30
 70
     1
102
RTVSPropertyOp31
 70
     1
102
RTVSPropertyOp32
 70
     1
  0
XRECORD
  5
1EC
102
{ACAD_REACTORS
330
1EB
102
}
330
1EB
100
AcDbXrecord
280
     1
102
RTVSPropertyOp0
 70
     1
102
RTVSPropertyOp1
 70
     1
102
RTVSPropertyOp2
 70
     1
102
RTVSPropertyOp3
 70
     1
102
RTVSPropertyOp4
 70
     1
102
RTVSPropertyOp5
 70
     1
102
RTVSPropertyOp6
 70
     1
102
RTVSPropertyOp7
 70
     1
102
RTVSPropertyOp8
 70
     1
102
RTVSPropertyOp9
 70
     1
102
RTVSPropertyOp10
 70
     1
102
RTVSPropertyOp11
 70
     1
102
RTVSPropertyOp12
 70
     1
102
RTVSPropertyOp13
 70
     1
102
RTVSPropertyOp14
 70
     1
102
RTVSPropertyOp15
 70
     1
102
RTVSPropertyOp16
 70
     1
102
RTVSPropertyOp17
 70
     1
102
RTVSPropertyOp18
 70
     1
102
RTVSPropertyOp19
 70
     1
102
RTVSPropertyOp20
 70
     1
102
RTVSPropertyOp21
 70
     1
102
RTVSPropertyOp22
 70
     1
102
RTVSPropertyOp23
 70
     1
102
RTVSPropertyOp24
 70
     1
102
RTVSPropertyOp25
 70
     1
102
RTVSPropertyOp26
 70
     1
102
RTVSPropertyOp27
 70
     1
102
RTVSPropertyOp28
 70
     1
102
RTVSPropertyOp29
 70
     1
102
RTVSPropertyOp30
 70
     1
102
RTVSPropertyOp31
 70
     1
102
RTVSPropertyOp32
 70
     1
  0
XRECORD
  5
1F4
102
{ACAD_REACTORS
330
1F3
102
}
330
1F3
100
AcDbXrecord
280
     1
102
RTVSPropertyOp0
 70
     1
102
RTVSPropertyOp1
 70
     1
102
RTVSPropertyOp2
 70
     1
102
RTVSPropertyOp3
 70
     1
102
RTVSPropertyOp4
 70
     1
102
RTVSPropertyOp5
 70
     1
102
RTVSPropertyOp6
 70
     1
102
RTVSPropertyOp7
 70
     1
102
RTVSPropertyOp8
 70
     1
102
RTVSPropertyOp9
 70
     1
102
RTVSPropertyOp10
 70
     1
102
RTVSPropertyOp11
 70
     1
102
RTVSPropertyOp12
 70
     1
102
RTVSPropertyOp13
 70
     1
102
RTVSPropertyOp14
 70
     1
102
RTVSPropertyOp15
 70
     1
102
RTVSPropertyOp16
 70
     1
102
RTVSPropertyOp17
 70
     1
102
RTVSPropertyOp18
 70
     1
102
RTVSPropertyOp19
 70
     1
102
RTVSPropertyOp20
 70
     1
102
RTVSPropertyOp21
 70
     1
102
RTVSPropertyOp22
 70
     1
102
RTVSPropertyOp23
 70
     1
102
RTVSPropertyOp24
 70
     1
102
RTVSPropertyOp25
 70
     1
102
RTVSPropertyOp26
 70
     1
102
RTVSPropertyOp27
 70
     1
102
RTVSPropertyOp28
 70
     1
102
RTVSPropertyOp29
 70
     1
102
RTVSPropertyOp30
 70
     1
102
RTVSPropertyOp31
 70
     1
102
RTVSPropertyOp32
 70
     1
  0
ENDSEC
  0
EOF
